<svg xmlns="http://www.w3.org/2000/svg" width="60" height="60" viewBox="0 0 60 60">
  <g id="Group_20920" data-name="Group 20920" transform="translate(-6551 -494)">
    <circle id="Ellipse_1564" data-name="Ellipse 1564" cx="30" cy="30" r="30" transform="translate(6551 494)" fill="#f6f6f6"/>
    <g id="Group_20918" data-name="Group 20918" transform="translate(6524.877 -1789.555)">
      <path id="Path_28735" data-name="Path 28735" d="M74.563,2312.016a18.764,18.764,0,0,0-17.879-17.461H55.051a18.763,18.763,0,0,0-17.914,18.214c0,.023-.013.041-.013.064s.009.032.01.05c0,.131-.01.262-.01.4a18.74,18.74,0,0,0,37.477.372m-6.336,11.385-2.219-2.149a.816.816,0,0,0-1.136,1.173l2.176,2.106a17.008,17.008,0,0,1-10.366,4.179v-2.814a.816.816,0,1,0-1.633,0v2.818a17.018,17.018,0,0,1-10.417-4.163l1.767-1.826a.816.816,0,1,0-1.173-1.135l-1.775,1.833a17.034,17.034,0,0,1-4.713-11.408h3.247a.816.816,0,1,0,0-1.633h-3.2a17.023,17.023,0,0,1,3.792-9.541l2.351,2.276a.816.816,0,0,0,1.135-1.173l-2.394-2.318a17.048,17.048,0,0,1,11.382-5.053v2.746a.816.816,0,0,0,1.633,0v-2.742a17.015,17.015,0,0,1,10.516,4.315l-2.1,2.165a.816.816,0,1,0,1.173,1.135l2.088-2.157a17.033,17.033,0,0,1,4.513,10.347h-3.13a.816.816,0,0,0,0,1.633h3.174A17.024,17.024,0,0,1,68.265,2325.035Z" fill="#d9041f"/>
      <path id="Path_28736" data-name="Path 28736" d="M56.1,2313.007" fill="#d9041f" opacity="0.14"/>
      <text id="_1_MINUTE" data-name="1
MINUTE" transform="translate(56.121 2311.898)" fill="#e51427" font-size="10.836" font-family="HelveticaNeueLTCom-MdCn, Helvetica Neue LT Com" font-weight="500" letter-spacing="-0.02em"><tspan x="-2.601" y="0">1</tspan><tspan font-size="7.614"><tspan x="-11.036" y="6.552">MINUTE</tspan></tspan></text>
    </g>
  </g>
</svg>
