<svg xmlns="http://www.w3.org/2000/svg" width="60" height="60" viewBox="0 0 60 60">
  <g id="Group_20921" data-name="Group 20921" transform="translate(-6303 -494)">
    <circle id="Ellipse_1564" data-name="Ellipse 1564" cx="30" cy="30" r="30" transform="translate(6303 494)" fill="#f6f6f6"/>
    <g id="Group_20916" data-name="Group 20916" transform="translate(6279.73 -1860.959)">
      <g id="Group_20913" data-name="Group 20913" transform="translate(36.4 2389.07)">
        <g id="Group_20912" data-name="Group 20912">
          <path id="Path_28733" data-name="Path 28733" d="M67.543,2397.409l-.008-.02c-.623-1.458-2.085-2-3.815-1.407l-4.716,1.3a3.091,3.091,0,0,0-1.915-1.885l-.018-.006-5.185-1.76a5.344,5.344,0,0,0-4.314-1.986,5.414,5.414,0,0,0-4.229,2.536H37.077a.677.677,0,0,0-.677.677v8.536a.676.676,0,0,0,.677.677H41.1a.677.677,0,0,0,.678-.677v-.585h1.888a.677.677,0,0,0,.677-.677v-.2a4.8,4.8,0,0,1,2.473.888,41.135,41.135,0,0,0,4.067,2.077l.03.012a6.089,6.089,0,0,0,2.178.41,5.409,5.409,0,0,0,2.243-.48l10.425-3.733.055-.022A2.891,2.891,0,0,0,67.543,2397.409Zm-27.118,5.313H37.754v-7.181h2.672Zm2.565-1.261H41.78v-5.92h1.21Zm22.285-1.608-10.421,3.731-.03.012-.028.012a4.389,4.389,0,0,1-3.371.057,39.006,39.006,0,0,1-3.931-2.008,6.1,6.1,0,0,0-3.15-1.071v-5.452A4.18,4.18,0,0,1,47.572,2393a3.9,3.9,0,0,1,3.314,1.557.677.677,0,0,0,.36.287l5.38,1.826a1.519,1.519,0,0,1,1.105,1.792,1.32,1.32,0,0,1-1.621.91l-6.066-1.923a.677.677,0,0,0-.409,1.291l6.076,1.925.02.006a2.7,2.7,0,0,0,.735.1,2.676,2.676,0,0,0,2.567-1.944c.016-.054.029-.11.042-.164l5.083-1.409c.734-.25,1.7-.341,2.127.647C66.729,2399.072,65.575,2399.71,65.275,2399.853Z" transform="translate(-36.4 -2391.65)" fill="#d9041f"/>
        </g>
      </g>
      <g id="Group_20915" data-name="Group 20915" transform="translate(38.41 2368.09)">
        <g id="Group_20914" data-name="Group 20914">
          <path id="Path_28734" data-name="Path 28734" d="M70.633,2370.383H66.608a.676.676,0,0,0-.677.677v.584H64.044a.677.677,0,0,0-.677.678v.194a4.8,4.8,0,0,1-2.473-.887,40.856,40.856,0,0,0-4.068-2.077l-.029-.012a5.759,5.759,0,0,0-4.421.069l-2.724.975-2.3-2.3a.679.679,0,0,0-.957,0l-7.539,7.54a.671.671,0,0,0,0,.957l12.883,12.883a.733.733,0,0,0,.957,0l6.883-6.883c.179.015.365.023.557.023a5.413,5.413,0,0,0,4.228-2.535h6.266a.678.678,0,0,0,.678-.678v-8.535A.677.677,0,0,0,70.633,2370.383Zm-23.758-.659,1.543,1.543a2.952,2.952,0,0,1-3.086,0Zm-5.038,8.125-1.543-1.543,1.543-1.543a2.953,2.953,0,0,1,0,3.087Zm10.382,10.382-1.542-1.543a2.951,2.951,0,0,1,3.086,0Zm2.518-2.519a4.3,4.3,0,0,0-5.037,0l-6.888-6.889a4.3,4.3,0,0,0,0-5.037l1.544-1.545a4.3,4.3,0,0,0,5.038,0l1.464,1.465a2.681,2.681,0,0,0-2.014,1.476,3.859,3.859,0,1,0,4.437,4.778l2.286.776a4.324,4.324,0,0,0,.717,3.431Zm-4.116-6.656.018.006,1.354.459a2.506,2.506,0,1,1-3.4-2.861A3,3,0,0,0,50.622,2379.057Zm6.638,4.134a2.953,2.953,0,0,1-.433-1.408,5.221,5.221,0,0,0,1.194.646Zm6.107-3.866a4.184,4.184,0,0,1-3.228,2.129,5.008,5.008,0,0,1-.706-.05h0a3.879,3.879,0,0,1-2.509-1.372c-.013-.021-.072-.1-.081-.11a.672.672,0,0,0-.373-.311l-5.383-1.827a1.519,1.519,0,0,1-1.1-1.791v0a1.321,1.321,0,0,1,1.621-.908L57.666,2377a.677.677,0,0,0,.41-1.292l-4.825-1.528-.042-.043h0l-2.5-2.5,2.147-.768.023-.009.007,0,.028-.012a4.389,4.389,0,0,1,3.371-.058,39.319,39.319,0,0,1,3.931,2.008,6.1,6.1,0,0,0,3.15,1.071Zm2.565-.407H64.72V2373h1.211Zm4.025,0H67.285v-7.182h2.672Z" transform="translate(-38.657 -2368.09)" fill="#d9041f"/>
        </g>
      </g>
    </g>
  </g>
</svg>
