<?xml version="1.0" standalone="no"?>
<!DOCTYPE svg PUBLIC "-//W3C//DTD SVG 1.0//EN" "http://www.w3.org/TR/2001/REC-SVG-20010904/DTD/svg10.dtd">
<svg xmlns="http://www.w3.org/2000/svg" xmlns:xlink="http://www.w3.org/1999/xlink" id="body_1" width="78" height="65">

<defs>
    <linearGradient transform="matrix(1 0 0 1 0 0)"  id="1" x1="0.5" y1="0.359" x2="0.5" y2="1">
        <stop stop-color="#D93636" offset="0%"/>
        <stop stop-color="#6D1B1B" offset="100%"/>
    </linearGradient>
    <linearGradient transform="matrix(1 0 0 1 0 0)"  id="220" x1="-460.69092" y1="0" x2="-361.99377" y2="0">
        <stop stop-color="#790808" offset="0%"/>
        <stop stop-color="#D93636" offset="100%"/>
    </linearGradient>
</defs>

<g transform="matrix(0.609375 0 0 0.60747665 0 0)">
	<g transform="matrix(0.7637004 0 0 0.87045646 1607.573 -743.73724)">
	</g>
    <path transform="matrix(0.7637004 0 0 0.87045646 1607.573 -743.73724)"  d="M-2076.389 975.87C -2061.2688 979.191 -2045.8129 976.08 -2030.6649 974.57C -2020.6919 973.578 -2011.0779 974.929 -2001.0819 975.662C -1975.6699 977.526 -1947.4819 974.247 -1939.351 950.76196C -1932.5769 931.19196 -1943.5249 902.15497 -1967.12 890.662C -1975.281 886.687 -1983.589 885.903 -1991.697 886.719C -1996.5651 887.209 -2001.9971 889.076 -2007.239 887.11C -2012.771 885.035 -2016.863 879.277 -2020.602 875.128C -2026.166 868.951 -2032.0431 862.477 -2039.508 858.30096C -2056.631 848.72394 -2066.814 858.061 -2071.958 873.412C -2074.458 880.875 -2075.787 888.653 -2077.802 896.243C -2080.659 907.009 -2086.856 914.828 -2093.837 923.49097C -2100.051 931.20795 -2105.868 940.23096 -2104.866 950.021C -2103.731 961.131 -2093.721 970.243 -2082.56 974.127C -2080.5396 974.8294 -2078.479 975.41016 -2076.3892 975.866" stroke="none" fill="#FFFFFF" fill-rule="nonzero" />
	<g transform="matrix(0.7637004 0 0 0.87045646 379.73325 -32.897564)">
	</g>
    <path transform="matrix(0.7637004 0 0 0.87045646 379.73325 -32.897564)"  d="M-409.753 153.965C -417.1281 148.89563 -424.07712 143.23288 -430.531 137.03299C -459.54602 109.05699 -455.62302 65.25299 -455.62302 65.25299L-455.62302 65.25299L-409.36002 47.66399L-363.1 65.253C -363.1 65.253 -359.178 109.05299 -388.19 137.03299C -394.64517 143.23254 -401.5952 148.89532 -408.971 153.965" stroke="none" fill="url(#1)" />
	<g transform="matrix(0.7637004 0 0 0.87045646 381.2538 -31.056654)">
	</g>
    <path transform="matrix(0.7637004 0 0 0.87045646 381.2538 -31.056654)"  d="M-411.341 155.14C -419.484 149.65802 -427.16272 143.51642 -434.3 136.777C -449.786 121.848 -456 102.557 -458.479 89C -460.1199 80.40509 -460.69092 71.64016 -460.17902 62.905L-460.17902 62.905L-460.035 61.295998L-411.344 42.783997L-362.652 61.3L-362.508 62.909C -361.99377 71.64248 -362.56213 80.40609 -364.2 89C -366.682 102.555 -372.89 121.847 -388.371 136.775C -395.51236 143.51482 -403.1948 149.65707 -411.341 155.14zM-455.121 64.955C -455.44202 72.946 -455.421 109.240005 -430.721 133.055C -424.67117 138.84439 -418.19345 144.16948 -411.34302 148.98499C -404.49207 144.16885 -398.01346 138.84384 -391.962 133.055C -367.262 109.23599 -367.243 72.94399 -367.562 64.954994L-367.562 64.954994L-411.34 48.311z" stroke="none" fill="url(#220)" />
	<g transform="matrix(0.7637004 0 0 0.87045646 -76.41571 -77.02409)">
	</g>
    <path transform="matrix(0.7637004 0 0 0.87045646 -76.41571 -77.02409)"  d="M127.746 136.708C 127.719 136.7 127.869 136.247 127.938 135.48499C 128.02174 134.4929 128.006 133.49492 127.89101 132.50598C 127.78593 131.51483 127.59861 130.5341 127.33101 129.57397C 127.12301 128.83597 126.91401 128.40797 126.93901 128.39697C 127.00708 128.48631 127.06322 128.58414 127.10601 128.68797C 127.235 128.96417 127.34688 129.24805 127.44101 129.53798C 127.7432 130.49785 127.94724 131.48592 128.05 132.48698C 128.16762 133.48753 128.16762 134.49843 128.05 135.49898C 128.01248 135.8036 127.949936 136.10461 127.86301 136.39897C 127.838196 136.5068 127.798836 136.61076 127.746 136.708z" stroke="none" fill="#1C262A" fill-rule="nonzero" />
	<g transform="matrix(0.7637004 0 0 0.87045646 -75.87959 -94.67347)">
	</g>
    <path transform="matrix(0.7637004 0 0 0.87045646 -75.87959 -94.67347)"  d="M139.646 127.811C 140.1618 127.19589 140.60724 126.52507 140.974 125.811C 141.34062 125.0891 141.45268 124.26454 141.29199 123.471C 141.18 123.016 140.94899 122.591 140.881 122.124C 140.788 121.485 141.007 120.794 140.733 120.21C 140.302 119.294 139.019 119.239 138.196 118.644C 137.55699 118.183 137.196 117.38 136.506 117.004C 135.8683 116.72486 135.15244 116.68023 134.485 116.878C 133.82484 117.07926 133.14001 117.18829 132.45 117.201996C 131.96263 117.13743 131.47925 117.04595 131.002 116.92799C 130.51953 116.81067 130.01045 116.88222 129.579 117.12799C 129.14928 117.402115 129.0219 117.97198 129.29399 118.40299C 128.87373 118.29207 128.42624 118.36244 128.06033 118.59701C 127.69442 118.831566 127.443634 119.20882 127.36899 119.63699C 127.27645 120.522575 127.68725 121.385475 128.43298 121.871994C 129.17386 122.34112 130.02086 122.616234 130.89598 122.672C 133.36444 123.02513 135.87599 122.44733 137.94199 121.050995" stroke="none" fill="#1C262A" fill-rule="nonzero" />
	<g transform="matrix(0.7637004 0 0 0.87045646 -75.23731 -93.72206)">
	</g>
    <path transform="matrix(0.7637004 0 0 0.87045646 -75.23731 -93.72206)"  d="M138.855 123.608L138.23799 135.841C 138.18633 136.83905 137.72601 137.7718 136.9653 138.41995C 136.20459 139.0681 135.21059 139.37447 134.217 139.267C 132.275 139.067 130.775 138.767 130.87599 136.829C 130.92299 135.907 131.01 133.746 131.01 133.653C 129.2321 133.38377 127.89593 131.88982 127.826 130.093C 127.78999 128.598 127.974 125.513 128.16899 122.723C 128.38867 119.72376 130.8827 117.40062 133.88998 117.394L133.88998 117.394L134.18999 117.394C 137.426 117.563 139.1 120.391 138.855 123.608z" stroke="none" fill="#E8845A" fill-rule="nonzero" />
	<g transform="matrix(0.7637004 0 0 0.87045646 -73.693115 -85.39962)">
	</g>
    <path transform="matrix(0.7637004 0 0 0.87045646 -73.693115 -85.39962)"  d="M128.983 124.044C 130.41559 124.06321 131.82164 123.65671 133.023 122.876C 132.248 124.341484 130.61511 125.13853 128.983 124.848L128.983 124.848L128.983 124.044z" stroke="none" fill="#F89F81" fill-rule="nonzero" />
	<g transform="matrix(0.7637004 0 0 0.87045646 -74.7203 -89.52211)">
	</g>
    <path transform="matrix(0.7637004 0 0 0.87045646 -74.7203 -89.52211)"  d="M128.211 120.56C 128.21352 120.79992 128.40422 120.99546 128.644 121.004C 128.75746 121.01167 128.86931 120.973755 128.95473 120.89867C 129.04013 120.82358 129.09207 120.717514 129.099 120.604C 129.09749 120.364006 128.90593 120.168465 128.666 120.161995C 128.55261 120.153206 128.44046 120.19046 128.35484 120.26534C 128.26924 120.340225 128.21739 120.446434 128.211 120.56z" stroke="none" fill="#1C262A" fill-rule="nonzero" />
	<g transform="matrix(0.7637004 0 0 0.87045646 -74.73939 -90.19324)">
	</g>
    <path transform="matrix(0.7637004 0 0 0.87045646 -74.73939 -90.19324)"  d="M128.2 120.185C 128.25499 120.243 128.589 119.993 129.067 119.99C 129.545 119.987 129.895 120.226 129.947 120.168C 129.972 120.141 129.917 120.035995 129.761 119.927C 129.55469 119.78688 129.31041 119.71325 129.061 119.716C 128.81352 119.715485 128.57237 119.79435 128.373 119.941C 128.223 120.056 128.176 120.16 128.2 120.185z" stroke="none" fill="#1C262A" fill-rule="nonzero" />
	<g transform="matrix(0.7637004 0 0 0.87045646 -72.52772 -89.39241)">
	</g>
    <path transform="matrix(0.7637004 0 0 0.87045646 -72.52772 -89.39241)"  d="M129.858 120.645C 129.8595 120.88534 130.05077 121.081474 130.291 121.089C 130.40453 121.09778 130.51677 121.060196 130.60213 120.98483C 130.68748 120.90946 130.73866 120.802734 130.744 120.688995C 130.74359 120.44898 130.5529 120.25255 130.313 120.244995C 130.19922 120.23592 130.08661 120.273346 130.00089 120.34872C 129.91515 120.42409 129.8636 120.530975 129.858 120.645z" stroke="none" fill="#1C262A" fill-rule="nonzero" />
	<g transform="matrix(0.7637004 0 0 0.87045646 -72.46051 -90.15841)">
	</g>
    <path transform="matrix(0.7637004 0 0 0.87045646 -72.46051 -90.15841)"  d="M129.916 120.208C 129.971 120.266 130.30501 120.016 130.783 120.013C 131.261 120.01 131.614 120.249 131.666 120.189C 131.691 120.164 131.633 120.060005 131.48 119.950005C 131.27135 119.80849 131.0241 119.73481 130.772 119.739006C 130.5246 119.738976 130.2836 119.81779 130.084 119.964005C 129.938 120.076 129.888 120.181 129.916 120.208z" stroke="none" fill="#1C262A" fill-rule="nonzero" />
	<g transform="matrix(0.7637004 0 0 0.87045646 -73.87259 -90.13578)">
	</g>
    <path transform="matrix(0.7637004 0 0 0.87045646 -73.87259 -90.13578)"  d="M130.067 123.717C 129.81503 123.639755 129.55429 123.59473 129.291 123.583C 129.168 123.572 129.052 123.547 129.03 123.465004C 129.01903 123.33996 129.04698 123.21457 129.11 123.106C 129.22 122.806 129.338 122.506004 129.461 122.179C 129.78578 121.39259 130.04794 120.58171 130.245 119.754C 129.8544 120.510025 129.52695 121.29703 129.26599 122.106995L129.26599 122.106995L128.92899 123.03999C 128.85498 123.18747 128.83447 123.35607 128.87099 123.51699C 128.90651 123.60367 128.98048 123.66878 129.07098 123.69299C 129.13803 123.711716 129.20738 123.72081 129.27698 123.71999C 129.53934 123.75339 129.80493 123.75238 130.067 123.717z" stroke="none" fill="#1C262A" fill-rule="nonzero" />
	<g transform="matrix(0.7637004 0 0 0.87045646 -73.3296 -87.7664)">
	</g>
    <path transform="matrix(0.7637004 0 0 0.87045646 -73.3296 -87.7664)"  d="M130.765 121.316C 130.688 121.316 130.691 121.829 130.252 122.199005C 129.813 122.56901 129.259 122.51401 129.252 122.586006C 129.244 122.619 129.375 122.686005 129.609 122.686005C 129.91177 122.68777 130.20569 122.583786 130.43999 122.392006C 130.66481 122.20658 130.80832 121.940704 130.83998 121.65101C 130.858 121.442 130.8 121.313 130.765 121.316z" stroke="none" fill="#1C262A" fill-rule="nonzero" />
	<g transform="matrix(0.7637004 0 0 0.87045646 -70.03805 -89.07121)">
	</g>
    <path transform="matrix(0.7637004 0 0 0.87045646 -70.03805 -89.07121)"  d="M131.817 120.558C 131.872 120.533 133.948 119.916 133.901 122.034C 133.9286 122.57421 133.68002 123.09148 133.24097 123.407425C 132.80191 123.72337 132.23247 123.79477 131.729 123.597C 131.726 123.534 131.817 120.558 131.817 120.558z" stroke="none" fill="#E8845A" fill-rule="nonzero" />
	<g transform="matrix(0.7637004 0 0 0.87045646 -69.71576 -88.68908)">
	</g>
    <path transform="matrix(0.7637004 0 0 0.87045646 -69.71576 -88.68908)"  d="M131.974 122.37C 131.982 122.365005 132.01 122.397 132.074 122.428C 132.15996 122.46844 132.25836 122.473465 132.348 122.442C 132.63159 122.274086 132.80162 121.96543 132.792 121.636C 132.80087 121.453964 132.7691 121.27224 132.699 121.104004C 132.66129 120.96841 132.55974 120.85977 132.427 120.813C 132.33867 120.789566 132.246 120.83131 132.205 120.913C 132.175 120.971 132.189 121.013 132.17801 121.013C 132.16702 121.013 132.13101 120.977 132.15102 120.89C 132.16463 120.83816 132.19571 120.792595 132.23901 120.761C 132.29823 120.717514 132.37254 120.69984 132.445 120.712C 132.6207 120.751595 132.76358 120.87897 132.82301 121.048996C 132.90952 121.23393 132.95 121.43704 132.94101 121.641C 132.95372 122.02727 132.73166 122.38289 132.37901 122.541C 132.26294 122.57254 132.13882 122.54934 132.042 122.478C 131.976 122.422 131.965 122.376 131.974 122.37z" stroke="none" fill="#F89F81" fill-rule="nonzero" />
	<g transform="matrix(0.7637004 0 0 0.87045646 -75.10138 -94.00235)">
	</g>
    <path transform="matrix(0.7637004 0 0 0.87045646 -75.10138 -94.00235)"  d="M127.925 120.163C 128.133 120.989 129.897 121.630005 131.307 121.488C 132.60701 121.355995 133.20001 120.668 134.10701 120.141C 134.68301 119.809 134.68301 119.809 135.507 119.88C 136.171 119.939995 136.574 120.686 136.985 121.213C 136.401 122.79 136.82 124.543 137.246 126.172C 137.27484 126.3577 137.36328 126.528984 137.498 126.659996C 137.79001 126.80868 138.14651 126.72796 138.34601 126.467995C 138.66408 126.07197 138.85942 125.5916 138.908 125.086C 139.11787 123.94992 139.09816 122.783325 138.85 121.655C 138.59927 120.518715 138.02031 119.48111 137.18501 118.671C 136.09894 117.6896 134.67622 117.164856 133.21301 117.206C 131.76048 117.25803 130.3611 117.765656 129.21301 118.657C 128.66483 119.04404 128.2218 119.561646 127.92401 120.162994" stroke="none" fill="#1C262A" fill-rule="nonzero" />
	<g transform="matrix(0.7637004 0 0 0.87045646 -71.09043 -40.89667)">
	</g>
    <path transform="matrix(0.7637004 0 0 0.87045646 -71.09043 -40.89667)"  d="M131.5 155.465L135.049 161.178C 135.049 161.178 130.433 166.70499 130.987 167.82399L130.987 167.82399L142.309 161.34L137.14401 152.21199L131.5 155.465z" stroke="none" fill="#C9C9C9" fill-rule="nonzero" />
	<g transform="matrix(0.7637004 0 0 0.87045646 -67.71945 -37.325184)">
	</g>
    <path transform="matrix(0.7637004 0 0 0.87045646 -67.71945 -37.325184)"  d="M133.851 154.58C 134.11586 154.5189 134.38391 154.66849 134.471 154.926C 134.54195 155.18886 134.39474 155.46127 134.13599 155.54599C 133.85449 155.6078 133.57141 155.44862 133.47798 155.176C 133.43517 154.89522 133.62128 154.63062 133.89998 154.57599" stroke="none" fill="#D9D9D8" fill-rule="nonzero" />
	<g transform="matrix(0.7637004 0 0 0.87045646 -69.20409 -36.065624)">
	</g>
    <path transform="matrix(0.7637004 0 0 0.87045646 -69.20409 -36.065624)"  d="M132.359 155.675C 132.392 155.73 132.683 155.595 133.05899 155.617C 133.43498 155.639 133.71199 155.79001 133.74998 155.738C 133.78798 155.686 132.318 155.631 132.359 155.675z" stroke="none" fill="#1C262A" fill-rule="nonzero" />
	<g transform="matrix(0.7637004 0 0 0.87045646 -69.6432 -35.33444)">
	</g>
    <path transform="matrix(0.7637004 0 0 0.87045646 -69.6432 -35.33444)"  d="M132.027 156.006C 132.04599 156.066 132.34 156.025 132.661 156.151C 132.982 156.27701 133.179 156.494 133.231 156.45801C 133.289 156.43901 133.141 156.093 132.737 155.942C 132.333 155.791 132 155.954 132.027 156.006z" stroke="none" fill="#1C262A" fill-rule="nonzero" />
	<g transform="matrix(0.7637004 0 0 0.87045646 -70.05027 -34.671154)">
	</g>
    <path transform="matrix(0.7637004 0 0 0.87045646 -70.05027 -34.671154)"  d="M132.7 157.051C 132.758 157.034 132.675 156.71399 132.36 156.49399C 132.045 156.27399 131.718 156.29898 131.721 156.357C 131.72398 156.41501 132.642 157.079 132.7 157.051z" stroke="none" fill="#1C262A" fill-rule="nonzero" />
	<g transform="matrix(0.7637004 0 0 0.87045646 -69.530174 -37.049244)">
	</g>
    <path transform="matrix(0.7637004 0 0 0.87045646 -69.530174 -37.049244)"  d="M132.12 155.415C 132.172 155.45099 132.383 155.23099 132.707 155.07199C 133.031 154.913 133.332 154.872 133.335 154.80899C 133.33801 154.74599 132.07 155.387 132.12 155.415z" stroke="none" fill="#1C262A" fill-rule="nonzero" />
	<g transform="matrix(0.7637004 0 0 0.87045646 -67.71945 -37.325184)">
	</g>
    <path transform="matrix(0.7637004 0 0 0.87045646 -67.71945 -37.325184)"  d="M133.851 154.58C 134.11586 154.5189 134.38391 154.66849 134.471 154.926C 134.54195 155.18886 134.39474 155.46127 134.13599 155.54599C 133.85449 155.6078 133.57141 155.44862 133.47798 155.176C 133.43517 154.89522 133.62128 154.63062 133.89998 154.57599" stroke="none" fill="#D9D9D8" fill-rule="nonzero" />
	<g transform="matrix(0.7637004 0 0 0.87045646 -69.20409 -36.065624)">
	</g>
    <path transform="matrix(0.7637004 0 0 0.87045646 -69.20409 -36.065624)"  d="M132.359 155.675C 132.392 155.73 132.683 155.595 133.05899 155.617C 133.43498 155.639 133.71199 155.79001 133.74998 155.738C 133.78798 155.686 132.318 155.631 132.359 155.675z" stroke="none" fill="#1C262A" fill-rule="nonzero" />
	<g transform="matrix(0.7637004 0 0 0.87045646 -69.6432 -35.33444)">
	</g>
    <path transform="matrix(0.7637004 0 0 0.87045646 -69.6432 -35.33444)"  d="M132.027 156.006C 132.04599 156.066 132.34 156.025 132.661 156.151C 132.982 156.27701 133.179 156.494 133.231 156.45801C 133.289 156.43901 133.141 156.093 132.737 155.942C 132.333 155.791 132 155.954 132.027 156.006z" stroke="none" fill="#1C262A" fill-rule="nonzero" />
	<g transform="matrix(0.7637004 0 0 0.87045646 -70.05027 -34.671154)">
	</g>
    <path transform="matrix(0.7637004 0 0 0.87045646 -70.05027 -34.671154)"  d="M132.7 157.051C 132.758 157.034 132.675 156.71399 132.36 156.49399C 132.045 156.27399 131.718 156.29898 131.721 156.357C 131.72398 156.41501 132.642 157.079 132.7 157.051z" stroke="none" fill="#1C262A" fill-rule="nonzero" />
	<g transform="matrix(0.7637004 0 0 0.87045646 -69.530174 -37.049244)">
	</g>
    <path transform="matrix(0.7637004 0 0 0.87045646 -69.530174 -37.049244)"  d="M132.12 155.415C 132.172 155.45099 132.383 155.23099 132.707 155.07199C 133.031 154.913 133.332 154.872 133.335 154.80899C 133.33801 154.74599 132.07 155.387 132.12 155.415z" stroke="none" fill="#1C262A" fill-rule="nonzero" />
	<g transform="matrix(0.7637004 0 0 0.87045646 -74.17577 -38.179104)">
	</g>
    <path transform="matrix(0.7637004 0 0 0.87045646 -74.17577 -38.179104)"  d="M134.983 154.156L135.364 160.87001C 135.364 160.87001 128.664 163.514 128.62 164.76201L128.62 164.76201L141.665 164.488L141.5 154L134.983 154.156z" stroke="none" fill="#C9C9C9" fill-rule="nonzero" />
	<g transform="matrix(0.7637004 0 0 0.87045646 -69.25602 -34.751244)">
	</g>
    <path transform="matrix(0.7637004 0 0 0.87045646 -69.25602 -34.751244)"  d="M132.946 156.282C 133.20671 156.35655 133.3704 156.61435 133.327 156.882C 133.26169 157.14574 133.00209 157.3128 132.735 157.263C 132.45784 157.18558 132.28476 156.91035 132.335 156.627C 132.42885 156.35706 132.72075 156.2111 132.99301 156.298" stroke="none" fill="#D9D9D8" fill-rule="nonzero" />
	<g transform="matrix(0.7637004 0 0 0.87045646 -71.00642 -34.450054)">
	</g>
    <path transform="matrix(0.7637004 0 0 0.87045646 -71.00642 -34.450054)"  d="M131 156.523C 131 156.58899 131.321 156.611 131.639 156.808C 131.95702 157.005 132.13 157.272 132.188 157.244C 132.246 157.216 130.986 156.466 131 156.523z" stroke="none" fill="#1C262A" fill-rule="nonzero" />
	<g transform="matrix(0.7637004 0 0 0.87045646 -71.664734 -34.101)">
	</g>
    <path transform="matrix(0.7637004 0 0 0.87045646 -71.664734 -34.101)"  d="M130.507 156.718C 130.493 156.781 130.77301 156.883 130.99501 157.149C 131.21701 157.41501 131.28601 157.698 131.34901 157.692C 131.40901 157.703 131.44902 157.327 131.16301 157.003C 130.877 156.67902 130.507 156.658 130.507 156.718z" stroke="none" fill="#1C262A" fill-rule="nonzero" />
	<g transform="matrix(0.7637004 0 0 0.87045646 -72.28257 -33.77372)">
	</g>
    <path transform="matrix(0.7637004 0 0 0.87045646 -72.28257 -33.77372)"  d="M130.573 157.995C 130.633 158.009 130.716 157.68799 130.543 157.342C 130.37 156.996 130.071 156.86499 130.043 156.92C 130.015 156.975 130.51 157.989 130.573 157.995z" stroke="none" fill="#1C262A" fill-rule="nonzero" />
	<g transform="matrix(0.7637004 0 0 0.87045646 -70.96671 -35.401478)">
	</g>
    <path transform="matrix(0.7637004 0 0 0.87045646 -70.96671 -35.401478)"  d="M131.033 156.077C 131.06 156.135 131.351 156.041 131.711 156.058C 132.071 156.075 132.356 156.181 132.388 156.127C 132.42 156.073 131 156.027 131.033 156.077z" stroke="none" fill="#1C262A" fill-rule="nonzero" />
	<g transform="matrix(0.7637004 0 0 0.87045646 -69.25602 -34.751244)">
	</g>
    <path transform="matrix(0.7637004 0 0 0.87045646 -69.25602 -34.751244)"  d="M132.946 156.282C 133.20671 156.35655 133.3704 156.61435 133.327 156.882C 133.26169 157.14574 133.00209 157.3128 132.735 157.263C 132.45784 157.18558 132.28476 156.91035 132.335 156.627C 132.42885 156.35706 132.72075 156.2111 132.99301 156.298" stroke="none" fill="#C9C9C9" fill-rule="nonzero" />
	<g transform="matrix(0.7637004 0 0 0.87045646 -71.00642 -34.450054)">
	</g>
    <path transform="matrix(0.7637004 0 0 0.87045646 -71.00642 -34.450054)"  d="M131 156.523C 131 156.58899 131.321 156.611 131.639 156.808C 131.95702 157.005 132.13 157.272 132.188 157.244C 132.246 157.216 130.986 156.466 131 156.523z" stroke="none" fill="#1C262A" fill-rule="nonzero" />
	<g transform="matrix(0.7637004 0 0 0.87045646 -71.664734 -34.101)">
	</g>
    <path transform="matrix(0.7637004 0 0 0.87045646 -71.664734 -34.101)"  d="M130.507 156.718C 130.493 156.781 130.77301 156.883 130.99501 157.149C 131.21701 157.41501 131.28601 157.698 131.34901 157.692C 131.40901 157.703 131.44902 157.327 131.16301 157.003C 130.877 156.67902 130.507 156.658 130.507 156.718z" stroke="none" fill="#1C262A" fill-rule="nonzero" />
	<g transform="matrix(0.7637004 0 0 0.87045646 -72.28257 -33.77372)">
	</g>
    <path transform="matrix(0.7637004 0 0 0.87045646 -72.28257 -33.77372)"  d="M130.573 157.995C 130.633 158.009 130.716 157.68799 130.543 157.342C 130.37 156.996 130.071 156.86499 130.043 156.92C 130.015 156.975 130.51 157.989 130.573 157.995z" stroke="none" fill="#1C262A" fill-rule="nonzero" />
	<g transform="matrix(0.7637004 0 0 0.87045646 -70.96671 -35.401478)">
	</g>
    <path transform="matrix(0.7637004 0 0 0.87045646 -70.96671 -35.401478)"  d="M131.033 156.077C 131.06 156.135 131.351 156.041 131.711 156.058C 132.071 156.075 132.356 156.181 132.388 156.127C 132.42 156.073 131 156.027 131.033 156.077z" stroke="none" fill="#1C262A" fill-rule="nonzero" />
	<g transform="matrix(0.7637004 0 0 0.87045646 -77.004524 -63.305695)">
	</g>
    <path transform="matrix(0.7637004 0 0 0.87045646 -77.004524 -63.305695)"  d="M126.495 137.44C 126.495 137.44 128.119 159.72 128.656 161.697L128.656 161.697L135.321 158.425L126.484 137.072L126.484 138.666L126.495 137.44z" stroke="none" fill="#670919" fill-rule="nonzero" />
	<g transform="matrix(0.7637004 0 0 0.87045646 -75.298416 -63.550293)">
	</g>
    <path transform="matrix(0.7637004 0 0 0.87045646 -75.298416 -63.550293)"  d="M141.982 140.219C 141.982 140.219 142.791 143.905 142.43199 144.446C 142.04918 145.17026 141.71834 145.92082 141.44199 146.692L141.44199 146.692L141.98198 163.324L143.59998 187.776L135.83197 187.776L132.5 166.213C 131.82205 165.05067 131.27919 163.81464 130.882 162.52899C 130.432 160.81999 127.782005 143.829 127.782005 143.829L127.782005 143.829L127.782005 137.27899L141.982 140.219z" stroke="none" fill="#A60B20" fill-rule="nonzero" />
	<g transform="matrix(0.7637004 0 0 0.87045646 -75.71387 -62.245483)">
	</g>
    <path transform="matrix(0.7637004 0 0 0.87045646 -75.71387 -62.245483)"  d="M127.466 138.139C 127.465355 138.18127 127.46905 138.2235 127.477005 138.26501L127.477005 138.26501L127.52901 138.63301L127.743004 140.048C 127.935005 141.282 128.212 143.057 128.55501 145.24301C 128.89801 147.42902 129.32301 150.048 129.78401 152.94301C 130.02 154.391 130.253 155.91301 130.52402 157.49101C 130.78389 159.12381 131.18883 160.73018 131.73402 162.29102C 132.42896 163.78143 132.9976 165.32751 133.43402 166.91301C 133.76903 168.47101 134.00201 169.996 134.23402 171.44402C 134.67302 174.34401 135.02702 176.96501 135.32802 179.16501C 135.62901 181.365 135.87102 183.145 136.05502 184.37401C 136.14803 184.988 136.22203 185.46301 136.28003 185.78601L136.28003 185.78601L136.34903 186.15102C 136.35503 186.19289 136.36507 186.23409 136.37903 186.27402C 136.37747 186.23172 136.37279 186.1896 136.36502 186.14801L136.36502 186.14801L136.31302 185.781C 136.26602 185.449 136.20001 184.972 136.11801 184.36601C 135.95601 183.126 135.72601 181.34601 135.44101 179.15201C 135.156 176.95801 134.813 174.32701 134.38 171.423C 134.158 169.972 133.927 168.447 133.593 166.878C 133.1573 165.28468 132.58656 163.73137 131.88701 162.235C 131.34634 160.68306 130.94478 159.0861 130.68701 157.463C 130.41301 155.89099 130.17702 154.36299 129.93802 152.918C 129.46301 150.024 129.03802 147.418 128.67603 145.218C 128.31403 143.018 128.01503 141.266 127.80903 140.031L127.80903 140.031L127.56803 138.62401L127.50003 138.25601C 127.49136 138.21628 127.479996 138.17719 127.466 138.139z" stroke="none" fill="#A60B20" fill-rule="nonzero" />
	<g transform="matrix(0.7637004 0 0 0.87045646 -68.044785 -42.883915)">
	</g>
    <path transform="matrix(0.7637004 0 0 0.87045646 -68.044785 -42.883915)"  d="M133.233 150.9C 133.21985 151.07074 133.21985 151.24225 133.233 151.413C 133.244 151.745 133.266 152.222 133.299 152.81299C 133.368 153.995 133.483 155.624 133.62 157.42398C 133.75699 159.22397 133.875 160.85498 133.952 162.03497C 133.98799 162.60297 134.021 163.07497 134.04199 163.43497C 134.04456 163.60728 134.06296 163.779 134.09698 163.94797C 134.11383 163.77748 134.1165 163.6059 134.10498 163.43497C 134.10498 163.10297 134.08897 162.62297 134.06398 162.03497C 134.01698 160.84998 133.91898 159.21797 133.78098 157.41898C 133.64297 155.61998 133.50897 154.01898 133.41298 152.81097C 133.36398 152.24298 133.32498 151.77197 133.29498 151.41098C 133.28783 151.23929 133.26709 151.06842 133.233 150.9z" stroke="none" fill="#344952" fill-rule="nonzero" />
	<g transform="matrix(0.7637004 0 0 0.87045646 -77.84688 -83.39236)">
	</g>
    <path transform="matrix(0.7637004 0 0 0.87045646 -77.84688 -83.39236)"  d="M134.293 124.2L133.369 124.83099C 133.369 124.83099 129.713 132.98 129.098 135.638L129.098 135.638L131.26501 135.814L131.27101 131.46399L134.293 124.2z" stroke="none" fill="#344952" fill-rule="nonzero" />
	<g transform="matrix(0.7637004 0 0 0.87045646 -77.30618 -84.09655)">
	</g>
    <path transform="matrix(0.7637004 0 0 0.87045646 -77.30618 -84.09655)"  d="M133.523 125.518C 133.523 125.518 130.555 131.772 129.83699 135.252C 129.286 137.934 126.26899 162.68 126.26899 162.68L126.26899 162.68L134.969 162.258L140.16899 131.71399L141.28499 123.734985C 141.28499 123.734985 136.15298 126.85599 134.97699 126.677986C 134.311 126.5997 133.74727 126.14996 133.523 125.518z" stroke="none" fill="#DA0820" fill-rule="nonzero" />
	<g transform="matrix(0.7637004 0 0 0.87045646 -74.70883 -84.82512)">
	</g>
    <path transform="matrix(0.7637004 0 0 0.87045646 -74.70883 -84.82512)"  d="M144.071 128.91L138.534 124.57201L138.323 123.255005L131.511 127.378006L128.22 167.39401L142.377 167.39401L140.75 151.01302L143.75 133.42401L144.071 128.91z" stroke="none" fill="#C9C9C9" fill-rule="nonzero" />
	<g transform="matrix(0.7637004 0 0 0.87045646 -73.102776 -84.09655)">
	</g>
    <path transform="matrix(0.7637004 0 0 0.87045646 -73.102776 -84.09655)"  d="M129.428 126.473C 129.4472 126.60426 129.48074 126.73303 129.528 126.857L129.528 126.857L129.857 127.880005L129.969 128.21701C 129.99617 128.35793 130.066 128.48709 130.16899 128.587C 130.322 128.6646 130.50774 128.63338 130.62698 128.51001L130.62698 128.51001L130.97298 128.238L132.50098 127.020004C 133.57898 126.151 134.54198 125.344 135.22197 124.741005C 135.56197 124.441 135.83397 124.192 136.02197 124.017006C 136.12411 123.93318 136.21698 123.838646 136.29897 123.73501C 136.18492 123.8022 136.07832 123.88131 135.98097 123.97101L135.98097 123.97101L135.15297 124.657005C 134.45297 125.23601 133.48297 126.02601 132.40497 126.895004C 131.86697 127.328 131.35497 127.743004 130.88496 128.12401C 130.65497 128.28601 130.42197 128.582 130.24896 128.47801C 130.16997 128.42601 130.13696 128.292 130.09296 128.17801L130.09296 128.17801L129.96996 127.84301C 129.82196 127.44301 129.69595 127.10501 129.59395 126.83601C 129.55121 126.70965 129.49559 126.588005 129.428 126.473z" stroke="none" fill="#C9C9C9" fill-rule="nonzero" />
	<g transform="matrix(0.7637004 0 0 0.87045646 -77.73461 -79.39783)">
	</g>
    <path transform="matrix(0.7637004 0 0 0.87045646 -77.73461 -79.39783)"  d="M130.392 126.832C 130.39026 126.86196 130.38454 126.89155 130.375 126.92L130.375 126.92L130.309 127.172C 130.25401 127.394 130.15001 127.712 130.05101 128.135C 129.95201 128.55798 129.83401 129.073 129.716 129.679C 129.198 132.734 128.641 136.979 128.116 141.684C 127.59099 146.389 127.161995 150.653 126.852 153.73901C 126.696 155.27202 126.569 156.51701 126.481995 157.39201L126.481995 157.39201L126.371994 158.38501L126.341995 158.643C 126.340034 158.67287 126.33466 158.7024 126.326 158.731C 126.322334 158.70078 126.322334 158.67023 126.326 158.64L126.326 158.64L126.341995 158.382L126.419 157.382C 126.496 156.504 126.603 155.259 126.737 153.723C 127.019 150.632 127.423 146.367 127.957 141.66C 128.491 136.953 129.057 132.71 129.608 129.655C 129.73401 128.887 129.888 128.201 130.008 127.598C 130.12799 126.994995 130.271 126.482 130.37 126.057L130.37 126.057L130.45 125.81C 130.73221 125.82601 130.94801 126.06778 130.93199 126.35C 130.91597 126.63222 130.67421 126.848015 130.392 126.832z" stroke="none" fill="#C9C9C9" fill-rule="nonzero" />
	<g transform="matrix(0.7637004 0 0 0.87045646 -77.00375 -74.80356)">
	</g>
    <path transform="matrix(0.7637004 0 0 0.87045646 -77.00375 -74.80356)"  d="M128.807 136.1C 130.29767 137.09882 132.00018 137.73729 133.78001 137.96501C 139.21048 138.97606 144.77458 139.04372 150.22801 138.16501C 148.77907 137.14545 147.13109 136.44345 145.39201 136.10501C 142.58601 135.35368 139.78001 134.60402 136.97401 133.85602C 135.71107 133.49158 134.42789 133.20142 133.13101 132.98701C 131.751 132.78702 131.22202 130.53201 129.93802 129.95901C 128.78615 129.72426 127.621765 130.30069 127.110016 131.35901C 125.31 134.4 127.948 135.445 128.807 136.1z" stroke="none" fill="#344952" fill-rule="nonzero" fill-opacity="0.10980392" />
	<g transform="matrix(0.7637004 0 0 0.87045646 -70.86361 -82.39742)">
	</g>
    <path transform="matrix(0.7637004 0 0 0.87045646 -70.86361 -82.39742)"  d="M131.54 128.649C 131.71051 127.22624 132.57637 125.98101 133.85074 125.32579C 135.12509 124.67057 136.64163 124.69089 137.898 125.380005C 139.45183 126.24814 140.6342 127.65496 141.222 129.335C 143.216 134.494 147.222 142.47601 146.469 144.179C 145.71599 145.88199 141.713 147.325 141.713 147.325L141.713 147.325L138 140.983L136.768 141.172L131.10701 131.512C 131.10701 131.512 131.348 130.344 131.54 128.649z" stroke="none" fill="#C9C9C9" fill-rule="nonzero" />
	<g transform="matrix(0.7637004 0 0 0.87045646 -67.578926 -74.716515)">
	</g>
    <path transform="matrix(0.7637004 0 0 0.87045646 -67.578926 -74.716515)"  d="M135.715 130.011C 135.55077 129.92487 135.36336 129.89334 135.18 129.921C 134.72678 129.94115 134.301 130.14381 133.9996 130.4829C 133.69821 130.82196 133.54684 131.26857 133.57999 131.72101C 133.57417 131.9067 133.62816 132.08932 133.734 132.242C 133.75899 132.23401 133.68999 132.042 133.696 131.718C 133.69392 130.85886 134.33748 130.13522 135.191 130.037C 135.506 129.991 135.709 130.038 135.715 130.011z" stroke="none" fill="#030504" fill-rule="nonzero" />
	<g transform="matrix(0.7637004 0 0 0.87045646 -70.47106 -82.41135)">
	</g>
    <path transform="matrix(0.7637004 0 0 0.87045646 -70.47106 -82.41135)"  d="M131.408 128.955C 131.438 128.963 131.50801 128.455 131.822 127.712006C 132.0074 127.27759 132.24696 126.86834 132.535 126.494C 132.88608 126.03976 133.32689 125.662605 133.83 125.386C 134.34538 125.13116 134.91206 124.99709 135.487 124.994C 135.95679 124.97974 136.42574 125.042915 136.875 125.181C 137.2897 125.3177 137.6797 125.520294 138.03 125.781C 138.03 125.776 138.01399 125.751 137.97 125.707C 137.90907 125.64211 137.8421 125.58318 137.77 125.531C 137.51196 125.330894 137.22185 125.17603 136.912 125.073C 136.4521 124.91662 135.96872 124.84051 135.483 124.848C 134.88345 124.84256 134.29118 124.97966 133.755 125.248C 133.23105 125.53474 132.77449 125.93026 132.416 126.408005C 132.12483 126.79462 131.8892 127.22008 131.716 127.672005C 131.59642 127.97358 131.50633 128.28604 131.447 128.60501C 131.41602 128.71895 131.40286 128.837 131.408 128.955z" stroke="none" fill="#030504" fill-rule="nonzero" />
	<g transform="matrix(0.7637004 0 0 0.87045646 -73.585434 -73.47699)">
	</g>
    <path transform="matrix(0.7637004 0 0 0.87045646 -73.585434 -73.47699)"  d="M141.566 130.735L129.621 130.815L129.064 134.615C 129.064 134.615 138.364 136.823 144.797 136.252L144.797 136.252L141.566 130.735z" stroke="none" fill="#E8845A" fill-rule="nonzero" />
	<g transform="matrix(0.7637004 0 0 0.87045646 -76.25991 -75.64181)">
	</g>
    <path transform="matrix(0.7637004 0 0 0.87045646 -76.25991 -75.64181)"  d="M128.644 129.308C 128.644 129.308 130.92099 129.508 131.255 129.577C 131.86003 129.90031 132.43237 130.28142 132.964 130.715L132.964 130.715L133.60901 133.79L132.567 137.10599C 131.85544 136.98798 131.1657 136.76346 130.521 136.43999C 129.60022 135.6926 128.80806 134.79944 128.176 133.79599C 128.176 133.79599 127.27599 133.829 127.204994 133.69598C 127.204994 133.69598 126.97199 132.82399 127.30499 132.59099L127.30499 132.59099L127.74099 132.52199C 127.74099 132.52199 127.34099 131.42198 128.10799 131.42198C 128.109 130.482 127.742 129.442 128.644 129.308z" stroke="none" fill="#E8845A" fill-rule="nonzero" />
	<g transform="matrix(0.7637004 0 0 0.87045646 -75.721504 -75.103)">
	</g>
    <path transform="matrix(0.7637004 0 0 0.87045646 -75.721504 -75.103)"  d="M127.459 129.774C 127.465 129.823 128.093 129.785 128.866 129.84C 129.63899 129.89499 130.257 130.01799 130.26599 129.972C 129.82556 129.78554 129.35321 129.68604 128.87498 129.679C 128.40123 129.62064 127.920715 129.65288 127.459 129.774z" stroke="none" fill="#DFDFDE" fill-rule="nonzero" />
	<g transform="matrix(0.7637004 0 0 0.87045646 -76.0079 -74.45363)">
	</g>
    <path transform="matrix(0.7637004 0 0 0.87045646 -76.0079 -74.45363)"  d="M127.244 130.2C 127.37518 130.2293 127.50992 130.2394 127.644005 130.23L127.644005 130.23L128.615 130.288C 129.07591 130.3393 129.54155 130.32988 130 130.26C 129.5505 130.15019 129.08862 130.09943 128.626 130.109C 128.299 130.08836 127.97102 130.08836 127.644005 130.109C 127.392 130.128 127.239 130.18 127.244 130.2z" stroke="none" fill="#DFDFDE" fill-rule="nonzero" />
	<g transform="matrix(0.7637004 0 0 0.87045646 -76.16368 -73.9479)">
	</g>
    <path transform="matrix(0.7637004 0 0 0.87045646 -76.16368 -73.9479)"  d="M129.176 130.6C 128.85419 130.42628 128.48254 130.36806 128.123 130.43501C 127.75616 130.44524 127.403625 130.57956 127.123 130.81601C 127.145004 130.86002 127.57 130.649 128.135 130.59401C 128.69998 130.53902 129.163 130.65 129.176 130.6z" stroke="none" fill="#DFDFDE" fill-rule="nonzero" />
	<g transform="matrix(0.7637004 0 0 0.87045646 44.980015 66.3705)">
	</g>
    <path transform="matrix(0.7637004 0 0 0.87045646 44.980015 66.3705)"  d="M13.351 6.726C 9.045667 6.7260003 5.9026666 5.5926666 3.922 3.3259997C 1.9413335 1.0593331 0.95066684 -2.3983335 0.95 -7.047L0.95 -7.047L0.95 -12.19L11.008 -12.19L11.008 -7.0469995C 10.953214 -5.867339 11.147779 -4.689385 11.579 -3.5899994C 12.007686 -2.7412972 12.92062 -2.2504852 13.865001 -2.3609996C 14.558767 -2.3076644 15.2266035 -2.6360269 15.608001 -3.2179995C 15.984238 -3.8329234 16.209389 -4.5282555 16.265001 -5.2469997C 16.341002 -6.028333 16.379002 -7.1616664 16.379002 -8.646999L16.379002 -8.646999L16.379002 -9.846999C 16.379002 -14.075666 14.988335 -16.189999 12.207002 -16.189999C 11.881924 -16.202246 11.55642 -16.183159 11.235002 -16.133L11.235002 -16.133L11.235002 -24.932999C 12.648676 -24.826082 14.052242 -25.243275 15.178001 -26.105C 16.137602 -27.103369 16.616974 -28.468885 16.492 -29.848C 16.492 -32.629333 15.692001 -34.02 14.092001 -34.02C 13.778568 -33.435383 13.584474 -32.794292 13.521001 -32.134C 13.425669 -31.372002 13.359001 -30.819668 13.321001 -30.477L13.321001 -30.477L13.321001 -28.991L1.236 -28.991L1.1789999 -30.705C 1.217 -35.200333 2.2836666 -38.505333 4.3789997 -40.62C 6.4743333 -42.73467 9.693666 -43.792 14.037 -43.792C 22.380333 -43.792 26.552002 -39.42967 26.552 -30.705C 26.637558 -28.626749 26.287037 -26.5536 25.523 -24.619C 24.836843 -23.113245 23.552181 -21.963104 21.980001 -21.446999C 23.205704 -20.884184 24.260466 -20.00677 25.037 -18.904C 25.742373 -17.787708 26.191166 -16.528765 26.351 -15.217999C 26.588737 -13.284478 26.69365 -11.336871 26.664999 -9.389C 26.665 -4.3223333 25.607666 -0.49333322 23.493 2.0980005C 21.378334 4.6893344 17.99767 6.232001 13.351 6.726zM28.838001 6.1549997L34.1 -19.905L29.924 -42.993L39.524002 -42.993L42.1 -26.077L44.329 -42.993L53.987 -42.993L49.754 -19.905L55.012 6.154L45.068 6.154L41.982002 -13.046001L38.839 6.1539993z" stroke="none" fill="#6E0303" fill-rule="nonzero" />
	<g transform="matrix(0.7637004 0 0 0.87045646 44.980015 63.91585)">
	</g>
    <path transform="matrix(0.7637004 0 0 0.87045646 44.980015 63.91585)"  d="M13.351 6.726C 9.045667 6.7260003 5.9026666 5.5926666 3.922 3.3259997C 1.9413335 1.0593331 0.95066684 -2.3983335 0.95 -7.047L0.95 -7.047L0.95 -12.19L11.008 -12.19L11.008 -7.0469995C 10.953214 -5.867339 11.147779 -4.689385 11.579 -3.5899994C 12.007686 -2.7412972 12.92062 -2.2504852 13.865001 -2.3609996C 14.558767 -2.3076644 15.2266035 -2.6360269 15.608001 -3.2179995C 15.984238 -3.8329234 16.209389 -4.5282555 16.265001 -5.2469997C 16.341002 -6.028333 16.379002 -7.1616664 16.379002 -8.646999L16.379002 -8.646999L16.379002 -9.846999C 16.379002 -14.075666 14.988335 -16.189999 12.207002 -16.189999C 11.881924 -16.202246 11.55642 -16.183159 11.235002 -16.133L11.235002 -16.133L11.235002 -24.932999C 12.648676 -24.826082 14.052242 -25.243275 15.178001 -26.105C 16.137602 -27.103369 16.616974 -28.468885 16.492 -29.848C 16.492 -32.629333 15.692001 -34.02 14.092001 -34.02C 13.778568 -33.435383 13.584474 -32.794292 13.521001 -32.134C 13.425669 -31.372002 13.359001 -30.819668 13.321001 -30.477L13.321001 -30.477L13.321001 -28.991L1.236 -28.991L1.1789999 -30.705C 1.217 -35.200333 2.2836666 -38.505333 4.3789997 -40.62C 6.4743333 -42.73467 9.693666 -43.792 14.037 -43.792C 22.380333 -43.792 26.552002 -39.42967 26.552 -30.705C 26.637558 -28.626749 26.287037 -26.5536 25.523 -24.619C 24.836843 -23.113245 23.552181 -21.963104 21.980001 -21.446999C 23.205704 -20.884184 24.260466 -20.00677 25.037 -18.904C 25.742373 -17.787708 26.191166 -16.528765 26.351 -15.217999C 26.588737 -13.284478 26.69365 -11.336871 26.664999 -9.389C 26.665 -4.3223333 25.607666 -0.49333322 23.493 2.0980005C 21.378334 4.6893344 17.99767 6.232001 13.351 6.726zM28.838001 6.1549997L34.1 -19.905L29.924 -42.993L39.524002 -42.993L42.1 -26.077L44.329 -42.993L53.987 -42.993L49.754 -19.905L55.012 6.154L45.068 6.154L41.982002 -13.046001L38.839 6.1539993z" stroke="none" fill="#FFFFFF" fill-rule="nonzero" />
</g>
</svg>