<?xml version="1.0" encoding="UTF-8"?>
<svg xmlns="http://www.w3.org/2000/svg" xmlns:xlink="http://www.w3.org/1999/xlink" width="82pt" height="65pt" viewBox="0 0 82 65" version="1.1">
<defs>
<filter id="alpha" filterUnits="objectBoundingBox" x="0%" y="0%" width="100%" height="100%">
  <feColorMatrix type="matrix" in="SourceGraphic" values="0 0 0 0 1 0 0 0 0 1 0 0 0 0 1 0 0 0 1 0"/>
</filter>
<mask id="mask0">
  <g filter="url(#alpha)">
<rect x="0" y="0" width="82" height="65" style="fill:rgb(0%,0%,0%);fill-opacity:0.301961;stroke:none;"/>
  </g>
</mask>
<clipPath id="clip1">
  <rect x="0" y="0" width="82" height="65"/>
</clipPath>
<g id="surface5" clip-path="url(#clip1)">
<path style=" stroke:none;fill-rule:nonzero;fill:rgb(1.176471%,1.960784%,1.568627%);fill-opacity:1;" d="M 39.566406 31.289062 L 39.699219 31.734375 L 37.347656 32.507812 L 37.1875 32.046875 Z M 39.566406 31.289062 "/>
</g>
<mask id="mask1">
  <g filter="url(#alpha)">
<rect x="0" y="0" width="82" height="65" style="fill:rgb(0%,0%,0%);fill-opacity:0.301961;stroke:none;"/>
  </g>
</mask>
<clipPath id="clip2">
  <rect x="0" y="0" width="82" height="65"/>
</clipPath>
<g id="surface8" clip-path="url(#clip2)">
<path style=" stroke:none;fill-rule:nonzero;fill:rgb(1.176471%,1.960784%,1.568627%);fill-opacity:1;" d="M 18.957031 36.222656 L 18.566406 36.472656 L 17.1875 34.410156 L 17.53125 34.171875 Z M 18.957031 36.222656 "/>
</g>
<mask id="mask2">
  <g filter="url(#alpha)">
<rect x="0" y="0" width="82" height="65" style="fill:rgb(0%,0%,0%);fill-opacity:0.301961;stroke:none;"/>
  </g>
</mask>
<clipPath id="clip3">
  <rect x="0" y="0" width="82" height="65"/>
</clipPath>
<g id="surface11" clip-path="url(#clip3)">
<path style=" stroke:none;fill-rule:nonzero;fill:rgb(1.176471%,1.960784%,1.568627%);fill-opacity:1;" d="M 22.117188 11.765625 C 22.476562 11.558594 22.820312 11.320312 23.140625 11.058594 C 22.910156 12.335938 22.683594 13.847656 22.480469 15.128906 C 22.398438 13.996094 22.199219 12.898438 22.117188 11.765625 "/>
</g>
<mask id="mask3">
  <g filter="url(#alpha)">
<rect x="0" y="0" width="82" height="65" style="fill:rgb(0%,0%,0%);fill-opacity:0.301961;stroke:none;"/>
  </g>
</mask>
<clipPath id="clip4">
  <rect x="0" y="0" width="82" height="65"/>
</clipPath>
<g id="surface14" clip-path="url(#clip4)">
<path style=" stroke:none;fill-rule:nonzero;fill:rgb(1.176471%,1.960784%,1.568627%);fill-opacity:1;" d="M 29.375 13.726562 C 29.375 13.726562 30.300781 14.820312 30.28125 14.789062 C 30.15625 13.628906 29.871094 12.492188 29.429688 11.414062 "/>
</g>
</defs>
<g id="surface1">
<path style=" stroke:none;fill-rule:nonzero;fill:rgb(100%,100%,100%);fill-opacity:1;" d="M 67.855469 64.0625 C 60.472656 65.6875 52.929688 64.167969 45.535156 63.429688 C 40.667969 62.945312 35.976562 63.605469 31.097656 63.960938 C 18.691406 64.871094 4.933594 63.269531 0.964844 51.792969 C -2.339844 42.226562 3.003906 28.039062 14.519531 22.421875 C 18.503906 20.476562 22.558594 20.09375 26.515625 20.492188 C 28.890625 20.734375 31.542969 21.644531 34.101562 20.683594 C 36.800781 19.671875 38.800781 16.855469 40.625 14.828125 C 43.339844 11.808594 46.207031 8.644531 49.851562 6.605469 C 58.210938 1.925781 63.179688 6.488281 65.691406 13.988281 C 66.910156 17.636719 67.558594 21.4375 68.542969 25.148438 C 69.9375 30.410156 72.960938 34.230469 76.371094 38.464844 C 79.402344 42.234375 82.242188 46.644531 81.753906 51.429688 C 81.199219 56.859375 76.3125 61.3125 70.867188 63.210938 C 69.878906 63.554688 68.875 63.839844 67.855469 64.0625 "/>
<path style=" stroke:none;fill-rule:nonzero;fill:rgb(40.392157%,3.529412%,9.803922%);fill-opacity:1;" d="M 13.324219 41.515625 L 27.285156 41.515625 L 27.285156 61.984375 L 13.324219 61.984375 Z M 13.324219 41.515625 "/>
<path style=" stroke:none;fill-rule:nonzero;fill:rgb(65.098039%,4.313725%,12.54902%);fill-opacity:1;" d="M 32.292969 35.503906 L 46.253906 35.503906 L 46.253906 61.984375 L 32.292969 61.984375 Z M 32.292969 35.503906 "/>
<path style=" stroke:none;fill-rule:nonzero;fill:rgb(85.490196%,3.137255%,12.54902%);fill-opacity:1;" d="M 51.261719 25.300781 L 65.222656 25.300781 L 65.222656 61.984375 L 51.261719 61.984375 Z M 51.261719 25.300781 "/>
<path style=" stroke:none;fill-rule:nonzero;fill:rgb(98.431373%,67.843137%,54.509804%);fill-opacity:1;" d="M 38.6875 12.003906 C 38.808594 11.855469 40.058594 13.625 38.039062 14.140625 C 36.226562 14.421875 36.023438 13.882812 36.023438 13.882812 L 34.179688 14.226562 L 33.730469 13.027344 L 35.675781 12.535156 C 35.972656 12.144531 36.382812 11.859375 36.851562 11.71875 C 37.667969 11.386719 37.769531 11.074219 37.769531 11.074219 C 37.769531 11.074219 38.308594 11.878906 37.246094 12.246094 "/>
<path style=" stroke:none;fill-rule:nonzero;fill:rgb(98.431373%,67.843137%,54.509804%);fill-opacity:1;" d="M 17.5625 18.382812 L 17.289062 19.625 C 17.449219 19.867188 17.582031 20.125 17.6875 20.394531 C 17.738281 20.867188 17.761719 21.347656 17.753906 21.824219 C 17.617188 21.859375 17.476562 21.789062 17.417969 21.664062 C 17.375 21.441406 17.351562 21.21875 17.339844 20.992188 C 17.265625 20.925781 17.164062 20.902344 17.066406 20.929688 C 16.972656 20.957031 16.898438 21.03125 16.871094 21.128906 C 16.785156 21.433594 16.6875 21.785156 16.664062 21.828125 C 16.707031 22.085938 16.773438 22.339844 16.867188 22.582031 C 16.898438 22.660156 16.867188 22.75 16.800781 22.800781 C 16.730469 22.851562 16.636719 22.847656 16.570312 22.796875 C 16.554688 22.785156 16.542969 22.769531 16.539062 22.75 C 16.539062 22.75 16.410156 23.046875 16.140625 22.59375 C 16.140625 22.59375 15.75 22.476562 15.6875 22.183594 C 15.496094 22.042969 15.335938 21.867188 15.207031 21.664062 C 15.125 21.453125 15.628906 19.992188 15.628906 19.992188 L 16.199219 17.921875 Z M 17.5625 18.382812 "/>
<path style=" stroke:none;fill-rule:nonzero;fill:rgb(90.980392%,51.764706%,35.294118%);fill-opacity:1;" d="M 16.394531 21.046875 C 16.34375 21.121094 16.300781 21.199219 16.273438 21.285156 C 16.179688 21.484375 16.136719 21.703125 16.144531 21.925781 C 16.171875 22.144531 16.257812 22.351562 16.386719 22.53125 C 16.429688 22.605469 16.488281 22.675781 16.554688 22.738281 C 16.519531 22.65625 16.476562 22.578125 16.429688 22.503906 C 16.316406 22.324219 16.242188 22.125 16.214844 21.917969 C 16.207031 21.707031 16.242188 21.496094 16.316406 21.300781 C 16.351562 21.21875 16.378906 21.132812 16.394531 21.046875 Z M 16.394531 21.046875 "/>
<path style=" stroke:none;fill-rule:nonzero;fill:rgb(90.980392%,51.764706%,35.294118%);fill-opacity:1;" d="M 16.015625 21.03125 C 15.957031 21.09375 15.914062 21.164062 15.890625 21.246094 C 15.859375 21.328125 15.832031 21.414062 15.8125 21.5 C 15.78125 21.605469 15.773438 21.71875 15.789062 21.832031 C 15.8125 21.9375 15.851562 22.042969 15.898438 22.140625 L 16.011719 22.378906 C 16.042969 22.457031 16.082031 22.527344 16.132812 22.589844 C 16.117188 22.511719 16.09375 22.433594 16.058594 22.359375 C 16.03125 22.289062 15.996094 22.207031 15.960938 22.117188 C 15.917969 22.019531 15.882812 21.921875 15.859375 21.820312 C 15.847656 21.714844 15.851562 21.613281 15.875 21.511719 C 15.894531 21.417969 15.917969 21.332031 15.9375 21.261719 C 15.980469 21.117188 16.023438 21.039062 16.015625 21.03125 Z M 16.015625 21.03125 "/>
<path style=" stroke:none;fill-rule:nonzero;fill:rgb(90.980392%,51.764706%,35.294118%);fill-opacity:1;" d="M 15.578125 21.054688 C 15.496094 21.238281 15.441406 21.433594 15.425781 21.636719 C 15.417969 21.679688 15.421875 21.726562 15.4375 21.769531 C 15.449219 21.808594 15.460938 21.84375 15.476562 21.878906 C 15.5 21.9375 15.53125 21.996094 15.566406 22.050781 C 15.625 22.144531 15.679688 22.1875 15.6875 22.183594 C 15.691406 22.179688 15.65625 22.121094 15.609375 22.027344 C 15.585938 21.980469 15.558594 21.921875 15.535156 21.855469 C 15.523438 21.820312 15.511719 21.785156 15.503906 21.75 C 15.492188 21.71875 15.488281 21.683594 15.492188 21.648438 C 15.523438 21.484375 15.546875 21.335938 15.5625 21.230469 C 15.574219 21.171875 15.578125 21.113281 15.578125 21.054688 Z M 15.578125 21.054688 "/>
<path style=" stroke:none;fill-rule:nonzero;fill:rgb(78.823529%,78.823529%,78.823529%);fill-opacity:1;" d="M 35.488281 12.503906 L 31.855469 13.019531 L 29.460938 9.386719 L 28.15625 12.25 L 30.054688 14.558594 C 30.503906 15.105469 31.21875 15.347656 31.90625 15.1875 L 36.023438 13.929688 Z M 35.488281 12.503906 "/>
<path style=" stroke:none;fill-rule:nonzero;fill:rgb(78.823529%,78.823529%,78.823529%);fill-opacity:1;" d="M 39.421875 30.792969 L 40.164062 33.289062 C 40.164062 33.289062 42.882812 33.191406 43.0625 33.636719 L 38.351562 35.433594 L 37.035156 31.597656 Z M 39.421875 30.792969 "/>
<path style=" stroke:none;fill-rule:nonzero;fill:rgb(10.980392%,14.901961%,16.470588%);fill-opacity:1;" d="M 40.234375 33.238281 C 40.242188 33.257812 40.128906 33.308594 40.039062 33.425781 C 39.949219 33.539062 39.921875 33.65625 39.898438 33.652344 C 39.871094 33.652344 39.863281 33.507812 39.972656 33.371094 C 40.082031 33.234375 40.230469 33.214844 40.234375 33.238281 Z M 40.234375 33.238281 "/>
<path style=" stroke:none;fill-rule:nonzero;fill:rgb(10.980392%,14.901961%,16.470588%);fill-opacity:1;" d="M 40.804688 33.273438 C 40.816406 33.292969 40.730469 33.367188 40.683594 33.492188 C 40.640625 33.621094 40.652344 33.730469 40.628906 33.738281 C 40.601562 33.746094 40.542969 33.621094 40.605469 33.460938 C 40.664062 33.304688 40.796875 33.253906 40.804688 33.273438 Z M 40.804688 33.273438 "/>
<path style=" stroke:none;fill-rule:nonzero;fill:rgb(10.980392%,14.901961%,16.470588%);fill-opacity:1;" d="M 41.292969 33.777344 C 41.273438 33.789062 41.203125 33.683594 41.21875 33.53125 C 41.234375 33.382812 41.328125 33.296875 41.34375 33.3125 C 41.359375 33.328125 41.3125 33.421875 41.304688 33.542969 C 41.292969 33.664062 41.316406 33.765625 41.292969 33.777344 Z M 41.292969 33.777344 "/>
<path style=" stroke:none;fill-rule:nonzero;fill:rgb(78.823529%,78.823529%,78.823529%);fill-opacity:1;" d="M 40 32.6875 C 40 32.710938 39.878906 32.714844 39.753906 32.769531 C 39.625 32.824219 39.535156 32.898438 39.515625 32.882812 C 39.496094 32.867188 39.566406 32.75 39.71875 32.6875 C 39.875 32.625 40.007812 32.664062 40 32.6875 Z M 40 32.6875 "/>
<use xlink:href="#surface5" mask="url(#mask0)"/>
<path style=" stroke:none;fill-rule:nonzero;fill:rgb(10.980392%,14.901961%,16.470588%);fill-opacity:1;" d="M 39.84375 32.1875 C 39.769531 32.234375 39.6875 32.261719 39.601562 32.265625 C 39.511719 32.28125 39.417969 32.285156 39.324219 32.273438 C 39.269531 32.269531 39.21875 32.261719 39.164062 32.25 C 39.132812 32.242188 39.101562 32.230469 39.074219 32.21875 C 39.03125 32.195312 39.007812 32.144531 39.019531 32.097656 C 39.03125 32.054688 39.0625 32.023438 39.105469 32.007812 C 39.132812 31.996094 39.164062 31.992188 39.195312 31.992188 C 39.253906 31.984375 39.308594 31.984375 39.363281 31.992188 C 39.457031 32 39.546875 32.023438 39.632812 32.0625 C 39.78125 32.125 39.84375 32.199219 39.839844 32.207031 C 39.835938 32.214844 39.753906 32.164062 39.613281 32.117188 C 39.53125 32.089844 39.445312 32.074219 39.359375 32.066406 C 39.308594 32.0625 39.257812 32.066406 39.207031 32.070312 C 39.152344 32.074219 39.109375 32.089844 39.101562 32.117188 C 39.101562 32.125 39.101562 32.128906 39.117188 32.140625 C 39.136719 32.152344 39.160156 32.160156 39.183594 32.164062 C 39.234375 32.175781 39.28125 32.1875 39.332031 32.191406 C 39.421875 32.203125 39.507812 32.207031 39.597656 32.203125 C 39.675781 32.191406 39.761719 32.1875 39.84375 32.1875 Z M 39.84375 32.1875 "/>
<path style=" stroke:none;fill-rule:nonzero;fill:rgb(10.980392%,14.901961%,16.470588%);fill-opacity:1;" d="M 39.824219 32.230469 C 39.816406 32.238281 39.738281 32.167969 39.679688 32.019531 C 39.644531 31.933594 39.628906 31.839844 39.625 31.746094 C 39.621094 31.691406 39.625 31.636719 39.636719 31.582031 C 39.640625 31.507812 39.683594 31.441406 39.75 31.410156 C 39.792969 31.394531 39.839844 31.410156 39.871094 31.441406 C 39.890625 31.464844 39.910156 31.492188 39.925781 31.519531 C 39.949219 31.570312 39.96875 31.625 39.980469 31.683594 C 39.996094 31.777344 39.992188 31.875 39.960938 31.964844 C 39.914062 32.121094 39.824219 32.179688 39.816406 32.171875 C 39.851562 32.101562 39.878906 32.023438 39.902344 31.949219 C 39.921875 31.867188 39.921875 31.78125 39.902344 31.699219 C 39.894531 31.648438 39.875 31.605469 39.851562 31.5625 C 39.828125 31.511719 39.792969 31.480469 39.777344 31.492188 C 39.753906 31.496094 39.722656 31.550781 39.71875 31.597656 C 39.710938 31.648438 39.703125 31.695312 39.703125 31.746094 C 39.703125 31.832031 39.714844 31.917969 39.738281 32 C 39.777344 32.144531 39.832031 32.222656 39.824219 32.230469 Z M 39.824219 32.230469 "/>
<path style=" stroke:none;fill-rule:nonzero;fill:rgb(78.823529%,78.823529%,78.823529%);fill-opacity:1;" d="M 19.390625 35.949219 L 17.195312 37.335938 C 17.195312 37.335938 18.019531 39.925781 17.632812 40.222656 L 14.640625 36.164062 L 17.976562 33.863281 Z M 19.390625 35.949219 "/>
<path style=" stroke:none;fill-rule:nonzero;fill:rgb(10.980392%,14.901961%,16.470588%);fill-opacity:1;" d="M 17.261719 37.390625 C 17.242188 37.402344 17.164062 37.308594 17.027344 37.25 C 16.894531 37.195312 16.773438 37.203125 16.769531 37.175781 C 16.765625 37.152344 16.902344 37.101562 17.0625 37.171875 C 17.222656 37.242188 17.28125 37.378906 17.261719 37.390625 Z M 17.261719 37.390625 "/>
<path style=" stroke:none;fill-rule:nonzero;fill:rgb(10.980392%,14.901961%,16.470588%);fill-opacity:1;" d="M 17.378906 37.949219 C 17.363281 37.96875 17.265625 37.898438 17.136719 37.890625 C 17.003906 37.882812 16.898438 37.921875 16.882812 37.902344 C 16.871094 37.878906 16.980469 37.789062 17.144531 37.808594 C 17.308594 37.824219 17.398438 37.933594 17.378906 37.949219 Z M 17.378906 37.949219 "/>
<path style=" stroke:none;fill-rule:nonzero;fill:rgb(10.980392%,14.901961%,16.470588%);fill-opacity:1;" d="M 17.023438 38.554688 C 17.007812 38.539062 17.089844 38.441406 17.238281 38.417969 C 17.382812 38.394531 17.492188 38.457031 17.480469 38.480469 C 17.46875 38.5 17.371094 38.480469 17.25 38.503906 C 17.128906 38.523438 17.039062 38.570312 17.023438 38.554688 Z M 17.023438 38.554688 "/>
<path style=" stroke:none;fill-rule:nonzero;fill:rgb(10.980392%,14.901961%,16.470588%);fill-opacity:1;" d="M 17.726562 37.015625 C 17.703125 37.019531 17.667969 36.90625 17.582031 36.796875 C 17.492188 36.691406 17.398438 36.625 17.40625 36.601562 C 17.417969 36.578125 17.546875 36.613281 17.648438 36.746094 C 17.746094 36.878906 17.75 37.015625 17.726562 37.015625 Z M 17.726562 37.015625 "/>
<use xlink:href="#surface8" mask="url(#mask1)"/>
<path style=" stroke:none;fill-rule:nonzero;fill:rgb(10.980392%,14.901961%,16.470588%);fill-opacity:1;" d="M 18.164062 36.730469 C 18.15625 36.734375 18.089844 36.660156 18.023438 36.519531 C 17.988281 36.433594 17.960938 36.347656 17.941406 36.253906 C 17.933594 36.203125 17.925781 36.148438 17.925781 36.09375 C 17.921875 36.058594 17.921875 36.027344 17.929688 35.996094 C 17.941406 35.945312 17.984375 35.914062 18.03125 35.910156 C 18.074219 35.910156 18.117188 35.933594 18.140625 35.96875 C 18.160156 35.996094 18.171875 36.023438 18.183594 36.054688 C 18.203125 36.105469 18.214844 36.160156 18.226562 36.214844 C 18.242188 36.304688 18.246094 36.402344 18.230469 36.492188 C 18.207031 36.652344 18.15625 36.738281 18.144531 36.730469 C 18.136719 36.726562 18.164062 36.636719 18.171875 36.488281 C 18.175781 36.402344 18.167969 36.3125 18.148438 36.230469 C 18.136719 36.179688 18.125 36.128906 18.105469 36.082031 C 18.085938 36.035156 18.058594 35.992188 18.035156 35.996094 C 18.023438 35.996094 18.019531 36 18.011719 36.015625 C 18.007812 36.039062 18.007812 36.0625 18.007812 36.085938 C 18.011719 36.226562 18.035156 36.363281 18.082031 36.496094 C 18.117188 36.570312 18.144531 36.648438 18.164062 36.730469 Z M 18.164062 36.730469 "/>
<path style=" stroke:none;fill-rule:nonzero;fill:rgb(10.980392%,14.901961%,16.470588%);fill-opacity:1;" d="M 18.117188 36.722656 C 18.109375 36.714844 18.15625 36.625 18.28125 36.527344 C 18.355469 36.472656 18.441406 36.429688 18.53125 36.402344 C 18.582031 36.386719 18.636719 36.375 18.691406 36.367188 C 18.765625 36.351562 18.839844 36.375 18.886719 36.429688 C 18.914062 36.46875 18.914062 36.519531 18.886719 36.554688 C 18.871094 36.582031 18.847656 36.609375 18.824219 36.628906 C 18.785156 36.671875 18.738281 36.703125 18.683594 36.726562 C 18.597656 36.769531 18.503906 36.789062 18.410156 36.785156 C 18.246094 36.777344 18.164062 36.707031 18.167969 36.703125 C 18.25 36.714844 18.328125 36.722656 18.40625 36.722656 C 18.492188 36.71875 18.574219 36.695312 18.652344 36.65625 C 18.695312 36.632812 18.734375 36.605469 18.769531 36.570312 C 18.808594 36.535156 18.832031 36.492188 18.816406 36.480469 C 18.785156 36.453125 18.738281 36.445312 18.699219 36.453125 C 18.648438 36.457031 18.601562 36.464844 18.550781 36.476562 C 18.46875 36.5 18.390625 36.535156 18.316406 36.578125 C 18.191406 36.65625 18.128906 36.730469 18.117188 36.722656 Z M 18.117188 36.722656 "/>
<path style=" stroke:none;fill-rule:nonzero;fill:rgb(10.980392%,14.901961%,16.470588%);fill-opacity:1;" d="M 29.667969 0.601562 C 29.253906 0.4375 28.785156 0.785156 28.355469 0.667969 C 28.109375 0.554688 27.886719 0.402344 27.6875 0.21875 C 27.328125 -0.0117188 26.882812 -0.0625 26.480469 0.0820312 C 26.132812 0.175781 25.863281 0.457031 25.785156 0.8125 C 25.472656 0.601562 24.894531 0.972656 24.679688 1.355469 C 24.492188 1.738281 24.449219 2.171875 24.554688 2.585938 C 24.679688 3.335938 24.953125 4.054688 25.355469 4.699219 C 25.390625 4.753906 25.449219 4.820312 25.511719 4.796875 C 25.558594 4.78125 25.574219 4.730469 25.585938 4.683594 C 25.65625 4.292969 25.679688 3.894531 25.652344 3.5 C 25.628906 3.105469 25.683594 2.707031 25.8125 2.335938 C 25.953125 1.953125 26.28125 1.675781 26.679688 1.601562 C 26.972656 1.582031 27.261719 1.667969 27.5 1.84375 C 27.742188 2.007812 27.953125 2.214844 28.183594 2.394531 C 28.40625 2.585938 28.675781 2.714844 28.964844 2.769531 C 29.257812 2.8125 29.554688 2.683594 29.71875 2.433594 C 29.792969 2.308594 29.804688 2.15625 29.757812 2.015625 C 29.710938 1.878906 29.605469 1.769531 29.472656 1.710938 C 29.746094 1.707031 29.980469 1.507812 30.027344 1.238281 C 30.078125 0.96875 29.929688 0.699219 29.671875 0.601562 Z M 29.667969 0.601562 "/>
<path style=" stroke:none;fill-rule:nonzero;fill:rgb(98.431373%,67.843137%,54.509804%);fill-opacity:1;" d="M 27.847656 7.332031 L 27.867188 6.488281 C 28.511719 6.410156 29.011719 5.886719 29.054688 5.238281 C 29.082031 4.699219 29.050781 3.582031 29.007812 2.570312 C 28.964844 1.480469 28.09375 0.609375 27.007812 0.566406 L 26.902344 0.558594 C 25.734375 0.582031 25.101562 1.585938 25.152344 2.753906 L 25.082031 7.273438 C 25.070312 8.035156 25.671875 8.664062 26.433594 8.679688 L 26.480469 9.097656 C 27.242188 9.113281 27.828125 8.097656 27.847656 7.332031 Z M 27.847656 7.332031 "/>
<path style=" stroke:none;fill-rule:nonzero;fill:rgb(90.980392%,51.764706%,35.294118%);fill-opacity:1;" d="M 27.871094 6.488281 C 27.355469 6.476562 26.851562 6.3125 26.429688 6.015625 C 26.691406 6.550781 27.269531 6.859375 27.863281 6.777344 Z M 27.871094 6.488281 "/>
<path style=" stroke:none;fill-rule:nonzero;fill:rgb(10.980392%,14.901961%,16.470588%);fill-opacity:1;" d="M 28.753906 3.40625 C 28.75 3.492188 28.679688 3.5625 28.59375 3.5625 C 28.550781 3.5625 28.511719 3.546875 28.480469 3.519531 C 28.453125 3.492188 28.433594 3.453125 28.433594 3.410156 C 28.4375 3.324219 28.507812 3.253906 28.59375 3.253906 C 28.636719 3.253906 28.675781 3.269531 28.707031 3.296875 C 28.734375 3.324219 28.753906 3.363281 28.753906 3.40625 Z M 28.753906 3.40625 "/>
<path style=" stroke:none;fill-rule:nonzero;fill:rgb(10.980392%,14.901961%,16.470588%);fill-opacity:1;" d="M 28.746094 3.105469 C 28.726562 3.125 28.609375 3.03125 28.4375 3.023438 C 28.261719 3.015625 28.136719 3.097656 28.117188 3.078125 C 28.109375 3.066406 28.132812 3.03125 28.1875 2.992188 C 28.265625 2.945312 28.355469 2.921875 28.445312 2.925781 C 28.535156 2.929688 28.621094 2.960938 28.691406 3.015625 C 28.742188 3.058594 28.757812 3.097656 28.746094 3.105469 Z M 28.746094 3.105469 "/>
<path style=" stroke:none;fill-rule:nonzero;fill:rgb(10.980392%,14.901961%,16.470588%);fill-opacity:1;" d="M 27.097656 3.367188 C 27.097656 3.453125 27.027344 3.523438 26.941406 3.523438 C 26.898438 3.523438 26.859375 3.511719 26.828125 3.480469 C 26.796875 3.453125 26.78125 3.414062 26.78125 3.371094 C 26.78125 3.285156 26.851562 3.214844 26.941406 3.214844 C 26.980469 3.214844 27.023438 3.230469 27.050781 3.257812 C 27.082031 3.289062 27.097656 3.328125 27.097656 3.367188 Z M 27.097656 3.367188 "/>
<path style=" stroke:none;fill-rule:nonzero;fill:rgb(10.980392%,14.901961%,16.470588%);fill-opacity:1;" d="M 27.054688 3.070312 C 27.035156 3.089844 26.917969 2.996094 26.746094 2.988281 C 26.574219 2.984375 26.445312 3.066406 26.425781 3.042969 C 26.417969 3.035156 26.4375 2.992188 26.496094 2.957031 C 26.652344 2.859375 26.851562 2.867188 27 2.980469 C 27.046875 3.023438 27.066406 3.0625 27.054688 3.070312 Z M 27.054688 3.070312 "/>
<path style=" stroke:none;fill-rule:nonzero;fill:rgb(10.980392%,14.901961%,16.470588%);fill-opacity:1;" d="M 27.628906 4.371094 C 27.722656 4.347656 27.816406 4.335938 27.910156 4.332031 C 27.953125 4.328125 27.996094 4.324219 28.003906 4.292969 C 28.011719 4.246094 28 4.203125 27.980469 4.160156 L 27.863281 3.824219 C 27.753906 3.535156 27.667969 3.238281 27.609375 2.933594 C 27.738281 3.214844 27.847656 3.503906 27.933594 3.800781 L 28.046875 4.140625 C 28.070312 4.195312 28.074219 4.257812 28.0625 4.316406 C 28.046875 4.347656 28.019531 4.371094 27.984375 4.378906 C 27.960938 4.382812 27.9375 4.382812 27.914062 4.382812 C 27.816406 4.394531 27.722656 4.390625 27.628906 4.371094 Z M 27.628906 4.371094 "/>
<path style=" stroke:none;fill-rule:nonzero;fill:rgb(10.980392%,14.901961%,16.470588%);fill-opacity:1;" d="M 27.117188 4.46875 C 27.144531 4.46875 27.136719 4.65625 27.292969 4.796875 C 27.449219 4.9375 27.648438 4.921875 27.648438 4.949219 C 27.648438 4.960938 27.601562 4.984375 27.519531 4.984375 C 27.410156 4.980469 27.304688 4.9375 27.222656 4.863281 C 27.140625 4.796875 27.09375 4.699219 27.085938 4.59375 C 27.082031 4.515625 27.105469 4.46875 27.117188 4.46875 Z M 27.117188 4.46875 "/>
<path style=" stroke:none;fill-rule:nonzero;fill:rgb(10.980392%,14.901961%,16.470588%);fill-opacity:1;" d="M 27.109375 2.191406 C 27.089844 2.234375 26.917969 2.207031 26.71875 2.222656 C 26.515625 2.242188 26.351562 2.289062 26.328125 2.246094 C 26.316406 2.222656 26.347656 2.179688 26.414062 2.140625 C 26.59375 2.03125 26.816406 2.015625 27.011719 2.097656 C 27.078125 2.128906 27.117188 2.167969 27.109375 2.191406 Z M 27.109375 2.191406 "/>
<path style=" stroke:none;fill-rule:nonzero;fill:rgb(10.980392%,14.901961%,16.470588%);fill-opacity:1;" d="M 28.703125 2.605469 C 28.671875 2.644531 28.554688 2.597656 28.410156 2.589844 C 28.269531 2.582031 28.148438 2.605469 28.121094 2.5625 C 28.109375 2.542969 28.128906 2.503906 28.183594 2.472656 C 28.332031 2.386719 28.515625 2.398438 28.652344 2.503906 C 28.703125 2.546875 28.71875 2.589844 28.703125 2.605469 Z M 28.703125 2.605469 "/>
<path style=" stroke:none;fill-rule:nonzero;fill:rgb(98.431373%,67.843137%,54.509804%);fill-opacity:1;" d="M 25.214844 3.585938 C 25.195312 3.578125 24.453125 3.328125 24.445312 4.09375 C 24.429688 4.289062 24.511719 4.480469 24.667969 4.601562 C 24.820312 4.71875 25.027344 4.753906 25.210938 4.6875 C 25.214844 4.664062 25.214844 3.585938 25.214844 3.585938 Z M 25.214844 3.585938 "/>
<path style=" stroke:none;fill-rule:nonzero;fill:rgb(90.980392%,51.764706%,35.294118%);fill-opacity:1;" d="M 24.980469 4.394531 C 24.976562 4.394531 24.96875 4.402344 24.945312 4.414062 C 24.914062 4.425781 24.878906 4.425781 24.847656 4.414062 C 24.746094 4.347656 24.6875 4.234375 24.695312 4.117188 C 24.695312 4.050781 24.707031 3.984375 24.734375 3.925781 C 24.75 3.875 24.789062 3.839844 24.835938 3.824219 C 24.867188 3.816406 24.902344 3.832031 24.914062 3.863281 C 24.921875 3.882812 24.921875 3.898438 24.921875 3.898438 C 24.925781 3.898438 24.9375 3.886719 24.933594 3.855469 C 24.929688 3.835938 24.917969 3.816406 24.90625 3.804688 C 24.882812 3.789062 24.855469 3.78125 24.832031 3.785156 C 24.765625 3.796875 24.714844 3.84375 24.691406 3.902344 C 24.65625 3.96875 24.640625 4.042969 24.640625 4.117188 C 24.632812 4.257812 24.707031 4.390625 24.835938 4.449219 C 24.875 4.464844 24.921875 4.457031 24.957031 4.429688 C 24.976562 4.414062 24.984375 4.398438 24.980469 4.394531 Z M 24.980469 4.394531 "/>
<path style=" stroke:none;fill-rule:nonzero;fill:rgb(10.980392%,14.901961%,16.470588%);fill-opacity:1;" d="M 29.257812 2.34375 C 28.75 2.453125 28.21875 2.308594 27.835938 1.960938 C 27.570312 1.71875 27.375 1.378906 27.035156 1.261719 C 26.804688 1.1875 26.554688 1.214844 26.339844 1.328125 C 26.128906 1.441406 25.941406 1.601562 25.792969 1.792969 C 25.925781 2.390625 25.875 3.015625 25.644531 3.585938 C 25.632812 3.652344 25.597656 3.710938 25.546875 3.757812 C 25.441406 3.808594 25.3125 3.773438 25.246094 3.675781 C 25.136719 3.53125 25.070312 3.355469 25.058594 3.171875 C 24.996094 2.757812 25.011719 2.335938 25.113281 1.929688 C 25.21875 1.519531 25.4375 1.152344 25.75 0.871094 C 26.148438 0.527344 26.667969 0.355469 27.195312 0.390625 C 27.71875 0.425781 28.214844 0.625 28.617188 0.964844 C 28.8125 1.109375 28.964844 1.304688 29.066406 1.523438 "/>
<path style=" stroke:none;fill-rule:nonzero;fill:rgb(20.392157%,28.627451%,32.156863%);fill-opacity:1;" d="M 29.980469 0.882812 C 29.980469 0.90625 29.976562 0.929688 29.972656 0.949219 C 29.949219 1.011719 29.910156 1.066406 29.855469 1.105469 C 29.773438 1.160156 29.671875 1.191406 29.566406 1.1875 C 29.503906 1.1875 29.441406 1.183594 29.378906 1.167969 C 29.308594 1.152344 29.242188 1.121094 29.1875 1.070312 C 29.125 1.015625 29.09375 0.933594 29.101562 0.847656 C 29.117188 0.757812 29.183594 0.6875 29.269531 0.660156 C 29.3125 0.644531 29.363281 0.640625 29.410156 0.648438 C 29.457031 0.65625 29.503906 0.679688 29.539062 0.710938 C 29.609375 0.785156 29.648438 0.882812 29.640625 0.984375 C 29.636719 1.09375 29.589844 1.191406 29.507812 1.261719 C 29.429688 1.335938 29.332031 1.386719 29.226562 1.410156 C 29.003906 1.449219 28.773438 1.417969 28.574219 1.3125 C 28.378906 1.210938 28.191406 1.089844 28.023438 0.945312 C 27.867188 0.816406 27.699219 0.699219 27.523438 0.597656 C 27.363281 0.507812 27.1875 0.457031 27.003906 0.449219 C 26.84375 0.445312 26.6875 0.480469 26.539062 0.546875 C 26.332031 0.644531 26.148438 0.796875 26.015625 0.988281 C 25.964844 1.054688 25.933594 1.109375 25.910156 1.144531 L 25.875 1.203125 L 25.90625 1.140625 C 25.933594 1.085938 25.964844 1.03125 26.003906 0.976562 C 26.136719 0.78125 26.316406 0.625 26.527344 0.519531 C 26.675781 0.449219 26.839844 0.414062 27.003906 0.414062 C 27.191406 0.421875 27.375 0.472656 27.539062 0.5625 C 27.71875 0.667969 27.886719 0.785156 28.046875 0.914062 C 28.214844 1.054688 28.398438 1.175781 28.589844 1.273438 C 28.785156 1.375 29.003906 1.410156 29.21875 1.371094 C 29.316406 1.347656 29.410156 1.300781 29.484375 1.234375 C 29.554688 1.167969 29.597656 1.078125 29.605469 0.984375 C 29.613281 0.890625 29.582031 0.800781 29.515625 0.734375 C 29.453125 0.679688 29.363281 0.660156 29.28125 0.691406 C 29.203125 0.710938 29.144531 0.773438 29.128906 0.851562 C 29.125 0.925781 29.152344 1 29.207031 1.050781 C 29.257812 1.097656 29.316406 1.128906 29.382812 1.144531 C 29.445312 1.15625 29.507812 1.164062 29.566406 1.164062 C 29.667969 1.171875 29.765625 1.144531 29.847656 1.089844 C 29.898438 1.054688 29.941406 1.003906 29.964844 0.945312 C 29.96875 0.925781 29.976562 0.90625 29.980469 0.882812 Z M 29.980469 0.882812 "/>
<path style=" stroke:none;fill-rule:nonzero;fill:rgb(20.392157%,28.627451%,32.156863%);fill-opacity:1;" d="M 24.515625 2.007812 C 24.589844 2.039062 24.667969 2.0625 24.746094 2.078125 C 24.832031 2.089844 24.921875 2.085938 25.003906 2.0625 C 25.109375 2.035156 25.207031 1.992188 25.296875 1.9375 C 25.460938 1.832031 25.585938 1.675781 25.65625 1.492188 C 25.683594 1.417969 25.703125 1.339844 25.714844 1.257812 C 25.71875 1.28125 25.71875 1.304688 25.714844 1.324219 C 25.710938 1.386719 25.699219 1.445312 25.679688 1.503906 C 25.617188 1.695312 25.488281 1.859375 25.316406 1.96875 C 25.222656 2.027344 25.117188 2.070312 25.011719 2.097656 C 24.921875 2.117188 24.832031 2.121094 24.742188 2.105469 C 24.679688 2.09375 24.625 2.074219 24.570312 2.046875 C 24.550781 2.039062 24.53125 2.023438 24.515625 2.007812 Z M 24.515625 2.007812 "/>
<path style=" stroke:none;fill-rule:nonzero;fill:rgb(20.392157%,28.627451%,32.156863%);fill-opacity:1;" d="M 24.527344 2.566406 C 24.527344 2.558594 24.617188 2.582031 24.761719 2.578125 C 25.144531 2.574219 25.496094 2.363281 25.675781 2.023438 C 25.746094 1.898438 25.765625 1.808594 25.773438 1.808594 C 25.773438 1.832031 25.769531 1.851562 25.765625 1.871094 C 25.75 1.929688 25.726562 1.984375 25.703125 2.035156 C 25.527344 2.394531 25.160156 2.617188 24.761719 2.605469 C 24.703125 2.605469 24.644531 2.597656 24.589844 2.585938 C 24.566406 2.582031 24.546875 2.574219 24.527344 2.566406 Z M 24.527344 2.566406 "/>
<path style=" stroke:none;fill-rule:nonzero;fill:rgb(90.980392%,51.764706%,35.294118%);fill-opacity:1;" d="M 26.453125 3.777344 C 26.449219 3.78125 26.445312 3.777344 26.441406 3.773438 C 26.4375 3.773438 26.433594 3.765625 26.433594 3.761719 C 26.433594 3.75 26.4375 3.742188 26.449219 3.738281 C 26.453125 3.738281 26.460938 3.738281 26.464844 3.742188 C 26.46875 3.746094 26.46875 3.75 26.46875 3.757812 C 26.472656 3.761719 26.46875 3.765625 26.46875 3.769531 C 26.464844 3.773438 26.460938 3.777344 26.453125 3.777344 Z M 26.453125 3.777344 "/>
<path style=" stroke:none;fill-rule:nonzero;fill:rgb(90.980392%,51.764706%,35.294118%);fill-opacity:1;" d="M 26.789062 3.71875 C 26.78125 3.71875 26.777344 3.71875 26.773438 3.714844 C 26.769531 3.710938 26.765625 3.703125 26.765625 3.699219 C 26.765625 3.683594 26.769531 3.671875 26.777344 3.671875 C 26.789062 3.667969 26.800781 3.679688 26.800781 3.691406 C 26.804688 3.703125 26.796875 3.714844 26.789062 3.71875 Z M 26.789062 3.71875 "/>
<path style=" stroke:none;fill-rule:nonzero;fill:rgb(90.980392%,51.764706%,35.294118%);fill-opacity:1;" d="M 27.007812 3.722656 C 26.996094 3.722656 26.988281 3.707031 26.988281 3.691406 C 26.988281 3.671875 26.992188 3.660156 27.003906 3.660156 C 27.011719 3.660156 27.023438 3.671875 27.023438 3.6875 C 27.023438 3.707031 27.019531 3.722656 27.007812 3.722656 Z M 27.007812 3.722656 "/>
<path style=" stroke:none;fill-rule:nonzero;fill:rgb(90.980392%,51.764706%,35.294118%);fill-opacity:1;" d="M 26.609375 3.992188 C 26.597656 3.992188 26.589844 3.988281 26.589844 3.980469 C 26.589844 3.972656 26.597656 3.96875 26.609375 3.96875 C 26.621094 3.96875 26.628906 3.972656 26.628906 3.980469 C 26.628906 3.988281 26.621094 3.992188 26.609375 3.992188 Z M 26.609375 3.992188 "/>
<path style=" stroke:none;fill-rule:nonzero;fill:rgb(90.980392%,51.764706%,35.294118%);fill-opacity:1;" d="M 26.910156 3.933594 C 26.90625 3.933594 26.902344 3.933594 26.898438 3.929688 C 26.894531 3.925781 26.894531 3.917969 26.894531 3.914062 C 26.894531 3.902344 26.898438 3.890625 26.910156 3.890625 C 26.921875 3.890625 26.929688 3.902344 26.929688 3.914062 C 26.933594 3.921875 26.921875 3.933594 26.910156 3.933594 Z M 26.910156 3.933594 "/>
<path style=" stroke:none;fill-rule:nonzero;fill:rgb(90.980392%,51.764706%,35.294118%);fill-opacity:1;" d="M 28.488281 3.8125 C 28.476562 3.8125 28.46875 3.804688 28.464844 3.792969 C 28.464844 3.78125 28.472656 3.769531 28.480469 3.769531 C 28.488281 3.769531 28.492188 3.769531 28.496094 3.773438 C 28.5 3.777344 28.503906 3.78125 28.503906 3.785156 C 28.503906 3.796875 28.496094 3.808594 28.488281 3.8125 Z M 28.488281 3.8125 "/>
<path style=" stroke:none;fill-rule:nonzero;fill:rgb(90.980392%,51.764706%,35.294118%);fill-opacity:1;" d="M 28.714844 3.796875 C 28.703125 3.796875 28.695312 3.789062 28.691406 3.773438 C 28.691406 3.761719 28.699219 3.75 28.710938 3.75 C 28.722656 3.753906 28.730469 3.761719 28.730469 3.773438 C 28.730469 3.785156 28.722656 3.796875 28.714844 3.796875 Z M 28.714844 3.796875 "/>
<path style=" stroke:none;fill-rule:nonzero;fill:rgb(90.980392%,51.764706%,35.294118%);fill-opacity:1;" d="M 28.289062 3.808594 C 28.28125 3.808594 28.269531 3.804688 28.269531 3.796875 C 28.269531 3.785156 28.273438 3.777344 28.285156 3.777344 C 28.292969 3.773438 28.296875 3.777344 28.300781 3.78125 C 28.304688 3.785156 28.308594 3.792969 28.304688 3.796875 C 28.300781 3.804688 28.296875 3.808594 28.289062 3.808594 Z M 28.289062 3.808594 "/>
<path style=" stroke:none;fill-rule:nonzero;fill:rgb(90.980392%,51.764706%,35.294118%);fill-opacity:1;" d="M 28.445312 4.039062 C 28.4375 4.042969 28.425781 4.035156 28.421875 4.023438 C 28.417969 4.019531 28.417969 4.015625 28.421875 4.007812 C 28.421875 4.003906 28.425781 4 28.429688 4 C 28.441406 3.992188 28.453125 4 28.457031 4.011719 C 28.460938 4.019531 28.457031 4.035156 28.445312 4.039062 Z M 28.445312 4.039062 "/>
<path style=" stroke:none;fill-rule:nonzero;fill:rgb(90.980392%,51.764706%,35.294118%);fill-opacity:1;" d="M 28.640625 4.007812 C 28.632812 4.007812 28.625 3.996094 28.628906 3.988281 C 28.632812 3.980469 28.640625 3.972656 28.652344 3.976562 C 28.660156 3.980469 28.664062 3.988281 28.664062 4 C 28.660156 4.007812 28.648438 4.011719 28.640625 4.007812 Z M 28.640625 4.007812 "/>
<path style=" stroke:none;fill-rule:nonzero;fill:rgb(65.098039%,4.313725%,12.54902%);fill-opacity:1;" d="M 23.785156 22.640625 L 22.976562 29.789062 L 17.449219 33.960938 L 19.324219 36.777344 L 27.3125 31.984375 L 28.480469 23.25 Z M 23.785156 22.640625 "/>
<path style=" stroke:none;fill-rule:nonzero;fill:rgb(78.823529%,78.823529%,78.823529%);fill-opacity:1;" d="M 21.882812 7.777344 L 16.964844 12.339844 C 16.722656 12.5625 16.570312 12.863281 16.523438 13.1875 L 15.769531 18.90625 L 17.8125 19.230469 L 18.914062 13.8125 L 23.546875 10.808594 Z M 21.882812 7.777344 "/>
<path style=" stroke:none;fill-rule:nonzero;fill:rgb(78.823529%,78.823529%,78.823529%);fill-opacity:1;" d="M 28.171875 8.332031 L 28.289062 8.082031 L 27.847656 7.296875 L 27.28125 8.636719 L 26.949219 8.023438 L 25.023438 6.429688 L 24.429688 7.058594 L 21.882812 7.777344 L 21.910156 7.847656 L 22.117188 11.765625 L 22.570312 15.9375 L 22.339844 18.0625 L 22.132812 18.378906 C 22.007812 18.574219 21.992188 18.816406 22.085938 19.027344 L 22.113281 19.09375 L 28.855469 19.992188 L 29.207031 19.132812 L 29.464844 9.386719 Z M 28.171875 8.332031 "/>
<path style=" stroke:none;fill-rule:nonzero;fill:rgb(85.490196%,3.137255%,12.54902%);fill-opacity:1;" d="M 37.347656 22.96875 C 36.988281 21.742188 35.933594 20.851562 34.664062 20.695312 L 28.886719 19.976562 L 22.117188 19.097656 C 21.90625 19.980469 21.90625 20.902344 22.117188 21.785156 C 22.425781 23.039062 24.035156 24 25.484375 24.097656 L 33.792969 24.640625 L 36.730469 32.210938 L 39.839844 31.378906 Z M 37.347656 22.96875 "/>
<path style=" stroke:none;fill-rule:nonzero;fill:rgb(20.392157%,28.627451%,32.156863%);fill-opacity:1;" d="M 33.835938 24.679688 C 33.800781 24.683594 33.765625 24.683594 33.730469 24.679688 L 33.429688 24.667969 C 33.167969 24.660156 32.789062 24.636719 32.320312 24.601562 C 31.382812 24.535156 30.09375 24.414062 28.660156 24.34375 C 27.4375 24.273438 26.21875 24.132812 25.015625 23.914062 C 24.554688 23.828125 24.183594 23.746094 23.925781 23.6875 C 23.796875 23.65625 23.699219 23.628906 23.632812 23.613281 C 23.597656 23.605469 23.566406 23.59375 23.535156 23.582031 C 23.570312 23.582031 23.605469 23.589844 23.640625 23.597656 L 23.933594 23.65625 C 24.191406 23.710938 24.566406 23.785156 25.027344 23.863281 C 26.234375 24.066406 27.449219 24.203125 28.667969 24.269531 C 30.101562 24.339844 31.390625 24.472656 32.328125 24.550781 C 32.789062 24.589844 33.164062 24.621094 33.433594 24.640625 L 33.734375 24.667969 C 33.769531 24.667969 33.804688 24.671875 33.835938 24.679688 Z M 33.835938 24.679688 "/>
<path style=" stroke:none;fill-rule:nonzero;fill:rgb(20.392157%,28.627451%,32.156863%);fill-opacity:1;" d="M 34.441406 23.597656 C 34.410156 23.808594 34.332031 24.011719 34.210938 24.1875 C 34.109375 24.375 33.960938 24.535156 33.785156 24.65625 C 33.769531 24.640625 33.96875 24.441406 34.148438 24.148438 C 34.324219 23.855469 34.417969 23.589844 34.441406 23.597656 Z M 34.441406 23.597656 "/>
<path style=" stroke:none;fill-rule:nonzero;fill:rgb(20.392157%,28.627451%,32.156863%);fill-opacity:1;" d="M 35.042969 24.226562 C 34.683594 24.5 34.242188 24.648438 33.789062 24.652344 C 33.785156 24.628906 34.082031 24.589844 34.425781 24.472656 C 34.773438 24.355469 35.035156 24.210938 35.042969 24.226562 Z M 35.042969 24.226562 "/>
<path style=" stroke:none;fill-rule:nonzero;fill:rgb(20.392157%,28.627451%,32.156863%);fill-opacity:1;" d="M 25.015625 19.496094 C 25.015625 19.476562 27.039062 19.710938 29.53125 20.023438 C 32.027344 20.332031 34.046875 20.597656 34.042969 20.617188 C 34.039062 20.636719 32.015625 20.402344 29.523438 20.09375 C 27.03125 19.785156 25.011719 19.515625 25.015625 19.496094 Z M 25.015625 19.496094 "/>
<path style=" stroke:none;fill-rule:nonzero;fill:rgb(10.980392%,14.901961%,16.470588%);fill-opacity:1;" d="M 23.472656 10.417969 C 23.542969 10.261719 23.59375 10.097656 23.621094 9.925781 C 23.644531 9.742188 23.644531 9.554688 23.625 9.371094 C 23.605469 9.144531 23.550781 8.925781 23.464844 8.714844 C 23.371094 8.507812 23.234375 8.324219 23.066406 8.175781 C 22.925781 8.054688 22.769531 7.960938 22.59375 7.894531 C 22.433594 7.839844 22.265625 7.800781 22.097656 7.773438 C 22.140625 7.765625 22.191406 7.765625 22.234375 7.773438 C 22.363281 7.78125 22.492188 7.808594 22.613281 7.847656 C 22.796875 7.90625 22.964844 8.003906 23.109375 8.128906 C 23.289062 8.28125 23.433594 8.472656 23.53125 8.6875 C 23.621094 8.90625 23.675781 9.132812 23.691406 9.367188 C 23.710938 9.558594 23.703125 9.75 23.671875 9.9375 C 23.648438 10.066406 23.609375 10.1875 23.554688 10.304688 C 23.535156 10.347656 23.507812 10.386719 23.472656 10.417969 Z M 23.472656 10.417969 "/>
<use xlink:href="#surface11" mask="url(#mask2)"/>
<path style=" stroke:none;fill-rule:nonzero;fill:rgb(10.980392%,14.901961%,16.470588%);fill-opacity:1;" d="M 18.066406 13.273438 C 18.242188 13.3125 18.40625 13.390625 18.546875 13.503906 C 18.703125 13.601562 18.832031 13.730469 18.925781 13.886719 C 18.910156 13.898438 18.746094 13.730469 18.507812 13.566406 C 18.269531 13.398438 18.054688 13.292969 18.066406 13.273438 Z M 18.066406 13.273438 "/>
<path style=" stroke:none;fill-rule:nonzero;fill:rgb(10.980392%,14.901961%,16.470588%);fill-opacity:1;" d="M 18.378906 12.441406 C 18.753906 12.804688 18.964844 13.300781 18.96875 13.824219 C 18.90625 13.578125 18.832031 13.335938 18.746094 13.101562 C 18.636719 12.875 18.511719 12.65625 18.378906 12.441406 Z M 18.378906 12.441406 "/>
<path style=" stroke:none;fill-rule:nonzero;fill:rgb(10.980392%,14.901961%,16.470588%);fill-opacity:1;" d="M 21.765625 15.21875 C 21.769531 15.238281 21.765625 15.253906 21.757812 15.257812 C 21.75 15.257812 21.742188 15.242188 21.738281 15.222656 C 21.734375 15.207031 21.738281 15.1875 21.746094 15.1875 C 21.753906 15.183594 21.761719 15.203125 21.765625 15.21875 Z M 21.765625 15.21875 "/>
<path style=" stroke:none;fill-rule:nonzero;fill:rgb(10.980392%,14.901961%,16.470588%);fill-opacity:1;" d="M 29.207031 19.128906 C 29.199219 19.101562 29.199219 19.074219 29.203125 19.042969 L 29.207031 18.800781 C 29.210938 18.578125 29.21875 18.277344 29.230469 17.910156 C 29.25 17.144531 29.277344 16.109375 29.304688 14.964844 C 29.335938 13.820312 29.363281 12.785156 29.378906 12.023438 C 29.394531 11.652344 29.402344 11.351562 29.410156 11.132812 L 29.421875 10.886719 C 29.417969 10.859375 29.421875 10.832031 29.429688 10.800781 C 29.433594 10.832031 29.433594 10.859375 29.433594 10.886719 L 29.433594 11.132812 L 29.429688 12.023438 C 29.421875 12.777344 29.40625 13.816406 29.378906 14.964844 C 29.347656 16.113281 29.3125 17.15625 29.28125 17.910156 C 29.261719 18.285156 29.246094 18.589844 29.234375 18.800781 L 29.214844 19.042969 C 29.214844 19.074219 29.210938 19.101562 29.207031 19.128906 Z M 29.207031 19.128906 "/>
<path style=" stroke:none;fill-rule:nonzero;fill:rgb(10.980392%,14.901961%,16.470588%);fill-opacity:1;" d="M 31.535156 14.160156 C 31.46875 13.746094 31.589844 13.324219 31.867188 13.007812 C 31.886719 13.019531 31.734375 13.246094 31.640625 13.566406 C 31.550781 13.886719 31.558594 14.160156 31.535156 14.160156 Z M 31.535156 14.160156 "/>
<path style=" stroke:none;fill-rule:nonzero;fill:rgb(10.980392%,14.901961%,16.470588%);fill-opacity:1;" d="M 31.917969 14.4375 C 31.707031 13.984375 31.6875 13.460938 31.867188 12.992188 C 31.835938 13.234375 31.820312 13.476562 31.816406 13.71875 C 31.839844 13.957031 31.871094 14.199219 31.917969 14.4375 Z M 31.917969 14.4375 "/>
<use xlink:href="#surface14" mask="url(#mask3)"/>
<path style=" stroke:none;fill-rule:nonzero;fill:rgb(10.980392%,14.901961%,16.470588%);fill-opacity:1;" d="M 26.953125 8.054688 C 26.960938 8.058594 26.878906 8.164062 26.746094 8.347656 C 26.613281 8.53125 26.4375 8.800781 26.195312 9.089844 L 26.167969 9.121094 L 26.140625 9.089844 L 25.71875 8.5625 C 25.375 8.140625 25.054688 7.769531 24.820312 7.5 L 24.546875 7.183594 C 24.480469 7.109375 24.449219 7.066406 24.453125 7.0625 C 24.496094 7.089844 24.535156 7.125 24.566406 7.164062 C 24.636719 7.234375 24.738281 7.339844 24.859375 7.46875 C 25.105469 7.726562 25.429688 8.09375 25.773438 8.515625 C 25.925781 8.703125 26.066406 8.882812 26.195312 9.046875 L 26.144531 9.046875 C 26.386719 8.765625 26.570312 8.5 26.710938 8.320312 C 26.78125 8.222656 26.863281 8.132812 26.953125 8.054688 Z M 26.953125 8.054688 "/>
<path style=" stroke:none;fill-rule:nonzero;fill:rgb(10.980392%,14.901961%,16.470588%);fill-opacity:1;" d="M 28.265625 8.15625 C 28.257812 8.210938 28.234375 8.265625 28.203125 8.316406 C 28.160156 8.414062 28.085938 8.546875 28.011719 8.707031 L 27.980469 8.765625 L 27.953125 8.710938 L 27.753906 8.335938 L 27.621094 8.082031 L 27.683594 8.082031 C 27.574219 8.304688 27.445312 8.523438 27.296875 8.726562 C 27.386719 8.492188 27.496094 8.265625 27.621094 8.050781 L 27.652344 7.988281 L 27.683594 8.050781 L 27.816406 8.300781 L 28.007812 8.675781 L 27.953125 8.679688 C 28.035156 8.515625 28.117188 8.386719 28.171875 8.296875 C 28.226562 8.203125 28.257812 8.152344 28.265625 8.15625 Z M 28.265625 8.15625 "/>
<path style=" stroke:none;fill-rule:nonzero;fill:rgb(10.980392%,14.901961%,16.470588%);fill-opacity:1;" d="M 27.289062 8.695312 C 27.195312 8.609375 27.125 8.496094 27.085938 8.375 C 27.027344 8.261719 26.980469 8.144531 26.949219 8.023438 C 27.042969 8.109375 27.113281 8.21875 27.152344 8.34375 C 27.210938 8.457031 27.257812 8.574219 27.289062 8.695312 Z M 27.289062 8.695312 "/>
<path style=" stroke:none;fill-rule:nonzero;fill:rgb(10.980392%,14.901961%,16.470588%);fill-opacity:1;" d="M 28.011719 18.65625 C 28.015625 18.648438 28.097656 18.6875 28.175781 18.800781 C 28.28125 18.953125 28.3125 19.144531 28.265625 19.324219 C 28.210938 19.5 28.078125 19.644531 27.90625 19.714844 C 27.839844 19.75 27.761719 19.761719 27.6875 19.746094 C 27.6875 19.734375 27.769531 19.726562 27.882812 19.667969 C 28.03125 19.59375 28.140625 19.460938 28.191406 19.304688 C 28.238281 19.144531 28.214844 18.972656 28.132812 18.828125 C 28.070312 18.714844 28 18.664062 28.011719 18.65625 Z M 28.011719 18.65625 "/>
<path style=" stroke:none;fill-rule:nonzero;fill:rgb(10.980392%,14.901961%,16.470588%);fill-opacity:1;" d="M 27.503906 8.847656 C 27.511719 8.878906 27.519531 8.914062 27.523438 8.945312 L 27.5625 9.230469 C 27.597656 9.472656 27.644531 9.832031 27.691406 10.273438 C 27.789062 11.15625 27.886719 12.378906 27.925781 13.734375 C 27.960938 15.089844 27.929688 16.320312 27.882812 17.203125 C 27.859375 17.648438 27.835938 18.007812 27.8125 18.253906 L 27.789062 18.539062 C 27.789062 18.574219 27.78125 18.605469 27.773438 18.636719 C 27.769531 18.605469 27.769531 18.574219 27.773438 18.539062 L 27.785156 18.253906 C 27.800781 18.007812 27.816406 17.648438 27.835938 17.207031 C 27.867188 16.320312 27.886719 15.09375 27.851562 13.738281 C 27.816406 12.386719 27.722656 11.164062 27.640625 10.28125 C 27.597656 9.839844 27.5625 9.484375 27.535156 9.234375 L 27.507812 8.953125 C 27.5 8.917969 27.5 8.882812 27.503906 8.847656 Z M 27.503906 8.847656 "/>
<path style=" stroke:none;fill-rule:nonzero;fill:rgb(10.980392%,14.901961%,16.470588%);fill-opacity:1;" d="M 28.59375 18.484375 C 28.496094 18.542969 28.386719 18.589844 28.273438 18.617188 C 28.003906 18.703125 27.722656 18.753906 27.441406 18.769531 C 27.160156 18.785156 26.878906 18.769531 26.601562 18.71875 C 26.484375 18.703125 26.371094 18.671875 26.261719 18.625 C 26.652344 18.683594 27.046875 18.707031 27.4375 18.699219 C 27.828125 18.660156 28.214844 18.589844 28.59375 18.484375 Z M 28.59375 18.484375 "/>
<path style=" stroke:none;fill-rule:nonzero;fill:rgb(10.980392%,14.901961%,16.470588%);fill-opacity:1;" d="M 23.980469 18.523438 C 23.40625 18.492188 22.84375 18.339844 22.328125 18.078125 C 22.339844 18.058594 22.695312 18.195312 23.148438 18.316406 C 23.601562 18.4375 23.980469 18.503906 23.980469 18.523438 Z M 23.980469 18.523438 "/>
<path style=" stroke:none;fill-rule:nonzero;fill:rgb(10.980392%,14.901961%,16.470588%);fill-opacity:1;" d="M 21.011719 17.242188 C 21.015625 17.261719 21.011719 17.28125 21 17.28125 C 20.992188 17.285156 20.984375 17.265625 20.980469 17.25 C 20.976562 17.230469 20.980469 17.210938 20.988281 17.210938 C 20.996094 17.207031 21.007812 17.222656 21.011719 17.242188 Z M 21.011719 17.242188 "/>
<path style=" stroke:none;fill-rule:nonzero;fill:rgb(85.098039%,1.568627%,12.156863%);fill-opacity:1;" d="M 65.074219 22.457031 C 64.617188 22.363281 64.171875 22.21875 63.746094 22.03125 L 64.308594 20.277344 C 64.6875 20.429688 65.082031 20.550781 65.480469 20.640625 C 65.945312 20.746094 66.417969 20.800781 66.894531 20.804688 C 67.40625 20.804688 67.777344 20.792969 68.007812 20.769531 C 68.238281 20.75 68.355469 20.664062 68.355469 20.515625 C 68.367188 20.316406 68.257812 20.128906 68.078125 20.039062 C 67.855469 19.917969 67.609375 19.835938 67.359375 19.796875 C 67.0625 19.738281 66.746094 19.675781 66.417969 19.613281 C 66.09375 19.546875 65.777344 19.441406 65.480469 19.300781 C 65.1875 19.167969 64.9375 18.957031 64.753906 18.691406 C 64.554688 18.367188 64.460938 17.988281 64.480469 17.609375 C 64.449219 16.90625 64.757812 16.226562 65.316406 15.792969 C 65.871094 15.359375 66.75 15.140625 67.949219 15.144531 C 68.421875 15.140625 68.894531 15.183594 69.355469 15.261719 C 69.75 15.324219 70.132812 15.429688 70.5 15.578125 L 70.003906 17.402344 C 69.652344 17.273438 69.292969 17.171875 68.921875 17.109375 C 68.558594 17.039062 68.191406 17.003906 67.820312 17.003906 C 67.445312 16.996094 67.070312 17.011719 66.699219 17.050781 C 66.472656 17.085938 66.359375 17.183594 66.359375 17.34375 C 66.351562 17.535156 66.464844 17.710938 66.640625 17.78125 C 66.871094 17.878906 67.117188 17.945312 67.363281 17.972656 C 67.65625 18.011719 67.96875 18.058594 68.296875 18.113281 C 68.617188 18.160156 68.929688 18.25 69.226562 18.382812 C 69.519531 18.507812 69.773438 18.714844 69.953125 18.976562 C 70.160156 19.308594 70.257812 19.699219 70.234375 20.089844 C 70.269531 20.640625 70.121094 21.183594 69.8125 21.640625 C 69.511719 22.019531 69.09375 22.289062 68.625 22.40625 C 68.039062 22.5625 67.4375 22.632812 66.828125 22.625 C 66.238281 22.632812 65.652344 22.578125 65.074219 22.457031 Z M 58.542969 21.894531 C 58.019531 21.34375 57.75 20.597656 57.792969 19.839844 C 57.773438 18.992188 57.929688 18.144531 58.253906 17.359375 C 58.539062 16.679688 59.03125 16.105469 59.65625 15.722656 C 60.378906 15.3125 61.199219 15.113281 62.023438 15.140625 C 62.414062 15.140625 62.800781 15.167969 63.1875 15.214844 C 63.535156 15.253906 63.882812 15.320312 64.21875 15.417969 L 63.558594 17.371094 C 63.296875 17.292969 63.03125 17.238281 62.761719 17.207031 C 62.492188 17.175781 62.226562 17.160156 61.957031 17.160156 C 61.621094 17.148438 61.292969 17.257812 61.03125 17.46875 C 60.769531 17.691406 60.574219 17.976562 60.460938 18.300781 C 60.328125 18.664062 60.261719 19.050781 60.265625 19.441406 C 60.25 19.757812 60.371094 20.0625 60.601562 20.285156 C 60.863281 20.511719 61.207031 20.625 61.554688 20.601562 C 61.800781 20.601562 62.050781 20.589844 62.296875 20.5625 C 62.53125 20.535156 62.800781 20.492188 63.117188 20.429688 L 63.273438 22.265625 C 62.894531 22.40625 62.496094 22.5 62.09375 22.542969 C 61.683594 22.59375 61.269531 22.621094 60.859375 22.621094 C 60.019531 22.691406 59.1875 22.429688 58.542969 21.894531 Z M 54.949219 22.441406 C 54.691406 22.328125 54.476562 22.144531 54.324219 21.910156 C 54.046875 22.132812 53.734375 22.308594 53.402344 22.433594 C 53.058594 22.5625 52.695312 22.625 52.328125 22.625 C 51.742188 22.644531 51.179688 22.40625 50.78125 21.980469 C 50.34375 21.425781 50.128906 20.726562 50.183594 20.023438 C 50.183594 18.394531 50.550781 17.175781 51.289062 16.363281 C 52.078125 15.523438 53.199219 15.078125 54.351562 15.140625 C 54.722656 15.140625 55.097656 15.164062 55.46875 15.207031 C 55.851562 15.253906 56.21875 15.308594 56.566406 15.386719 C 56.867188 15.445312 57.160156 15.527344 57.449219 15.628906 C 57.292969 16.625 57.167969 17.421875 57.070312 18.03125 C 56.972656 18.640625 56.902344 19.097656 56.855469 19.410156 C 56.808594 19.726562 56.773438 19.9375 56.753906 20.054688 C 56.742188 20.128906 56.734375 20.203125 56.730469 20.277344 C 56.730469 20.453125 56.800781 20.539062 56.953125 20.539062 L 57.058594 20.539062 C 57.09375 20.539062 57.128906 20.535156 57.160156 20.523438 L 57.03125 22.371094 C 56.859375 22.457031 56.675781 22.515625 56.488281 22.550781 C 56.269531 22.597656 56.046875 22.621094 55.824219 22.625 C 55.523438 22.628906 55.222656 22.566406 54.949219 22.441406 Z M 53.359375 17.398438 C 53.113281 17.664062 52.933594 17.980469 52.832031 18.328125 C 52.699219 18.753906 52.636719 19.199219 52.644531 19.644531 C 52.625 19.890625 52.699219 20.136719 52.847656 20.335938 C 52.976562 20.484375 53.164062 20.570312 53.363281 20.5625 C 53.527344 20.5625 53.6875 20.542969 53.84375 20.5 C 53.996094 20.460938 54.144531 20.402344 54.28125 20.328125 L 54.78125 17.160156 C 54.675781 17.125 54.566406 17.097656 54.457031 17.082031 C 54.339844 17.0625 54.226562 17.054688 54.109375 17.054688 C 53.824219 17.058594 53.550781 17.183594 53.363281 17.398438 Z M 43.0625 22.496094 L 44.546875 13.257812 L 47.03125 13.257812 L 45.898438 20.359375 L 49.617188 20.359375 L 49.261719 22.496094 Z M 60.613281 10.449219 C 60.039062 9.730469 59.757812 8.820312 59.824219 7.902344 C 59.820312 7.183594 59.90625 6.46875 60.082031 5.773438 C 60.238281 5.125 60.5 4.503906 60.855469 3.941406 C 61.179688 3.417969 61.625 2.980469 62.152344 2.660156 C 62.707031 2.339844 63.335938 2.179688 63.976562 2.195312 C 65.152344 2.195312 66.007812 2.476562 66.535156 3.046875 C 67.113281 3.765625 67.398438 4.675781 67.328125 5.597656 C 67.332031 6.316406 67.246094 7.035156 67.070312 7.734375 C 66.914062 8.382812 66.648438 9.003906 66.289062 9.5625 C 65.957031 10.082031 65.515625 10.519531 64.992188 10.84375 C 64.441406 11.167969 63.8125 11.332031 63.171875 11.316406 C 62 11.316406 61.148438 11.027344 60.617188 10.449219 Z M 63.332031 4.433594 C 63.125 4.644531 62.957031 4.890625 62.84375 5.160156 C 62.703125 5.480469 62.589844 5.808594 62.5 6.148438 C 62.414062 6.496094 62.347656 6.847656 62.300781 7.207031 C 62.261719 7.515625 62.242188 7.828125 62.238281 8.144531 C 62.210938 8.464844 62.292969 8.789062 62.472656 9.058594 C 62.652344 9.257812 62.914062 9.363281 63.183594 9.34375 C 63.421875 9.339844 63.652344 9.242188 63.816406 9.066406 C 64.023438 8.855469 64.191406 8.605469 64.304688 8.332031 C 64.445312 8.011719 64.558594 7.683594 64.648438 7.34375 C 64.738281 7 64.804688 6.652344 64.847656 6.296875 C 64.886719 5.988281 64.910156 5.675781 64.910156 5.359375 C 64.9375 5.035156 64.855469 4.714844 64.675781 4.441406 C 64.496094 4.242188 64.234375 4.136719 63.964844 4.15625 C 63.726562 4.160156 63.496094 4.257812 63.332031 4.433594 Z M 54.984375 11.179688 L 55.183594 9.910156 L 51.328125 9.910156 L 51.566406 8.320312 L 56.796875 2.308594 L 58.820312 2.320312 L 57.878906 8.140625 L 58.984375 8.140625 L 58.707031 9.910156 L 57.601562 9.910156 L 57.398438 11.175781 Z M 53.480469 8.144531 L 55.527344 8.144531 L 56.015625 5.246094 Z M 47.121094 11.179688 L 43.667969 8.253906 L 43.894531 6.824219 L 46.515625 6.824219 C 46.878906 6.847656 47.246094 6.769531 47.570312 6.605469 C 47.808594 6.46875 47.996094 6.257812 48.105469 6.003906 L 44.023438 6.003906 L 44.25 4.558594 L 48.179688 4.558594 C 48.105469 4.296875 47.929688 4.070312 47.6875 3.933594 C 47.425781 3.796875 47.128906 3.730469 46.832031 3.738281 L 44.390625 3.738281 L 44.601562 2.320312 L 51.847656 2.320312 L 51.621094 3.738281 L 49.84375 3.738281 C 50.074219 3.957031 50.230469 4.246094 50.296875 4.558594 L 51.492188 4.558594 L 51.269531 6.003906 L 50.261719 6.003906 C 50.105469 6.664062 49.714844 7.25 49.164062 7.648438 C 48.527344 8.082031 47.765625 8.300781 46.996094 8.269531 L 50.511719 11.175781 Z M 47.121094 11.179688 "/>
</g>
</svg>
