<?xml version="1.0" standalone="no"?>
<!DOCTYPE svg PUBLIC "-//W3C//DTD SVG 1.0//EN" "http://www.w3.org/TR/2001/REC-SVG-20010904/DTD/svg10.dtd">
<svg xmlns="http://www.w3.org/2000/svg" xmlns:xlink="http://www.w3.org/1999/xlink" id="body_1" width="82" height="65">

<g transform="matrix(0.640625 0 0 0.64356434 0 0)">
	<g transform="matrix(0.76369137 0 0 0.7619249 1607.5538 -643.6636)">
	</g>
    <path transform="matrix(0.76369137 0 0 0.7619249 1607.5538 -643.6636)"  d="M-1965.962 975.87C -1981.082 979.191 -1996.5381 976.08 -2011.686 974.57C -2021.659 973.578 -2031.2731 974.929 -2041.269 975.662C -2066.6812 977.526 -2094.8691 974.247 -2103 950.76196C -2109.774 931.19196 -2098.826 902.15497 -2075.231 890.662C -2067.07 886.687 -2058.762 885.903 -2050.654 886.719C -2045.786 887.209 -2040.354 889.076 -2035.112 887.11C -2029.5801 885.035 -2025.488 879.277 -2021.749 875.128C -2016.185 868.951 -2010.308 862.477 -2002.843 858.30096C -1985.72 848.72394 -1975.537 858.061 -1970.3931 873.412C -1967.8931 880.875 -1966.5641 888.653 -1964.5491 896.243C -1961.692 907.009 -1955.4951 914.828 -1948.514 923.49097C -1942.3 931.20795 -1936.483 940.23096 -1937.485 950.021C -1938.62 961.131 -1948.63 970.243 -1959.791 974.127C -1961.8114 974.8294 -1963.8722 975.4101 -1965.962 975.866" stroke="none" fill="#FFFFFF" fill-rule="nonzero" />
	<g transform="matrix(0.76369137 0 0 0.7619249 -65.40898 -23.407894)">
	</g>
    <path transform="matrix(0.76369137 0 0 0.7619249 -65.40898 -23.407894)"  d="M226.014 158.308C 226.014 158.975 204.81401 159.518 178.668 159.518C 152.52199 159.518 131.324 158.975 131.324 158.308C 131.324 157.64099 226.014 157.638 226.014 158.308z" stroke="none" fill="#670919" fill-rule="nonzero" />
	<g transform="matrix(0.76369137 0 0 0.7619249 0 0)">
	</g>
    <path transform="matrix(0.76369137 0 0 0.7619249 0 0)"  d="M51.507324 13.289917L137.34833 13.289917L137.34833 127.584915L51.507324 127.584915L51.507324 13.289917z" stroke="none" fill="#D9041F" fill-rule="nonzero" />
	<g transform="matrix(0.76369137 0 0 0.7619249 0 0)">
	</g>
    <path transform="matrix(0.76369137 0 0 0.7619249 0 0)"  d="M59.77639 16.121L129.76839 16.121L129.76839 117.792L59.77639 117.792L59.77639 16.121z" stroke="none" fill="#F4F3F3" fill-rule="nonzero" />
	<g transform="matrix(0.76369137 0 0 0.7619249 -60.159496 -64.36895)">
	</g>
    <path transform="matrix(0.76369137 0 0 0.7619249 -60.159496 -64.36895)"  d="M208.542 100.6C 208.563 140.245 209.84201 188.062 205.39001 198.647C 185.77402 200.558 162.807 201.172 138.54901 201.28601L138.54901 201.28601L147.77 100.90601L208.542 100.6z" stroke="none" fill="#DDDEDE" fill-rule="nonzero" />
	<g transform="matrix(0.76369137 0 0 0.7619249 -61.602104 -64.36743)">
	</g>
    <path transform="matrix(0.76369137 0 0 0.7619249 -61.602104 -64.36743)"  d="M204.145 195.447C 173.571 200.34001 153.13701 200.597 136.564 199.36601C 138.713 176.505 139.573 138.52402 140.43799 100.60601L140.43799 100.60601L177.28099 100.68801L210.624 102.88801C 211.11 142.244 211.163 178.6 204.145 195.447z" stroke="none" fill="#FFFEF5" fill-rule="nonzero" />
	<g transform="matrix(0.76369137 0 0 0.7619249 -53.05717 -70.35844)">
	</g>
    <path transform="matrix(0.76369137 0 0 0.7619249 -53.05717 -70.35844)"  d="M179.848 104.47L179.848 112.317L148.321 112.317L148.321 104.47C 148.31996 103.26751 148.79741 102.11401 149.648 101.264C 149.74905 101.162254 149.8559 101.06643 149.968 100.977C 150.77823 100.30324 151.79922 99.93519 152.853 99.937C 153.65567 99.93769 154.44809 99.75685 155.17099 99.408C 155.47641 99.260704 155.76764 99.08563 156.04099 98.884995C 156.96384 98.20197 157.64201 97.23975 157.97499 96.14099C 158.66135 93.88481 160.74171 92.34229 163.09999 92.34099L163.09999 92.34099L165.06699 92.34099C 167.42494 92.34187 169.50496 93.88473 170.18999 96.14099C 170.5237 97.23993 171.20256 98.202126 172.12599 98.884995C 172.39934 99.08564 172.69057 99.26071 172.99599 99.408C 173.71913 99.75719 174.51196 99.93805 175.31499 99.937C 177.81714 99.94086 179.84424 101.96886 179.84698 104.47099L179.84698 104.47099L179.848 104.47z" stroke="none" fill="#1C262A" fill-rule="nonzero" />
	<g transform="matrix(0.76369137 0 0 0.7619249 -54.011017 -64.36971)">
	</g>
    <path transform="matrix(0.76369137 0 0 0.7619249 -54.011017 -64.36971)"  d="M183.654 100.6L183.654 106.434L147.01 106.434L147.01 100.6L149.569 100.6L149.569 104.452995L181.1 104.452995L181.1 100.6L183.654 100.6z" stroke="none" fill="#DDDEDE" fill-rule="nonzero" />
	<g transform="matrix(0.76369137 0 0 0.7619249 -48.229115 -69.59804)">
	</g>
    <path transform="matrix(0.76369137 0 0 0.7619249 -48.229115 -69.59804)"  d="M160.558 96.05C 160.61607 97.19364 159.97191 98.25738 158.93156 98.735855C 157.89122 99.21434 156.66437 99.01111 155.83386 98.22273C 155.00337 97.43436 154.73662 96.21973 155.16035 95.15591C 155.58408 94.09208 156.61288 93.393486 157.758 93.392006C 159.26494 93.3534 160.51819 94.54308 160.558 96.05z" stroke="none" fill="#670919" fill-rule="nonzero" />
	<g transform="matrix(0.76369137 0 0 0.7619249 62.40641 26.56906)">
	</g>
    <path transform="matrix(0.76369137 0 0 0.7619249 62.40641 26.56906)"  d="M-2.952 7.119L-2.471 4.035L0.472 4.035L1.514 -2.554L-1.27 -1.512L-1.5699999 -4.856L4.137 -6.92L5.98 -6.92L4.218 4.035L6.861 4.035L6.361 7.119L-2.952 7.119zM14.872 7.3389997C 13.383733 7.4763556 11.90678 6.977984 10.806 5.967C 9.890167 4.8300533 9.43954 3.3881166 9.545 1.932C 9.541748 0.79762137 9.679811 -0.33275223 9.956 -1.433C 10.207562 -2.4597883 10.623606 -3.4391115 11.188001 -4.333C 11.706568 -5.160993 12.413002 -5.855094 13.25 -6.359C 14.130738 -6.8664937 15.133766 -7.122785 16.15 -7.1000004C 17.634657 -7.23683 19.108896 -6.746626 20.216 -5.748C 21.136253 -4.6133738 21.587757 -3.169776 21.477999 -1.7130003C 21.482052 -0.5719794 21.34399 0.56510246 21.067 1.6719997C 20.816711 2.6989868 20.396957 3.6770627 19.824999 4.566C 19.29838 5.3870263 18.593178 6.078555 17.762 6.5889997C 16.887283 7.103196 15.886373 7.3629484 14.872 7.339zM14.892 4.2149997C 15.273634 4.210486 15.637212 4.0517817 15.9 3.775C 16.228159 3.4398994 16.489782 3.0455976 16.671 2.6130002C 16.893246 2.1078095 17.074173 1.5854298 17.212 1.0510001C 17.355917 0.504832 17.462828 -0.050441027 17.532 -0.6109998C 17.595032 -1.1025414 17.628426 -1.5974467 17.632 -2.093C 17.67524 -2.6049576 17.544525 -3.1165345 17.261 -3.545C 16.975943 -3.8628345 16.559824 -4.0308323 16.134 -4C 15.751172 -3.9960337 15.38634 -3.8368936 15.123001 -3.559C 14.795286 -3.2244802 14.533401 -2.831314 14.351 -2.4C 14.126705 -1.8956186 13.945717 -1.3730615 13.809999 -0.83800006C 13.666798 -0.2892952 13.5599 0.2682414 13.49 0.831C 13.426969 1.3225417 13.393574 1.8174467 13.389999 2.313C 13.34676 2.8249576 13.477472 3.3365347 13.761 3.7649999C 14.047906 4.082146 14.465639 4.248353 14.892 4.215zM-6.5 26.665L-6.119 24.282001L-8.68 24.282001L-8.18 21.158L-5.637 21.158L-5.237 18.795002L-2.113 18.795002L-2.494 21.158L0.072 21.158L-0.428 24.282001L-2.992 24.282001L-3.3730001 26.665zM2.172 29.148L2.6529999 26.064001L5.6 26.064001L6.641 19.475L3.857 20.517L3.5570002 17.173L9.264 15.11L11.107 15.11L9.344 26.065L11.988 26.065L11.488 29.149zM20 29.369C 18.511837 29.50745 17.034521 29.010168 15.933 28C 15.01681 26.8632 14.565821 25.421247 14.671 23.965C 14.667746 22.830618 14.805808 21.700253 15.082 20.6C 15.333562 19.573212 15.749604 18.593891 16.314 17.7C 16.833218 16.872986 17.539978 16.179932 18.376999 15.677001C 19.257738 15.169508 20.260767 14.913218 21.276999 14.936001C 22.761656 14.799171 24.235893 15.289375 25.342999 16.288C 26.263252 17.422626 26.714756 18.866224 26.604998 20.323C 26.610352 21.461103 26.474312 22.595438 26.2 23.7C 25.949722 24.7292 25.52927 25.709356 24.956 26.6C 24.42938 27.421028 23.724178 28.112556 22.893 28.623001C 22.017 29.136343 21.015001 29.394722 20 29.369zM20.02 26.244999C 20.403074 26.23972 20.767584 26.079119 21.03 25.8C 21.35816 25.464897 21.619783 25.070597 21.801 24.637999C 22.023247 24.132805 22.204174 23.61043 22.342001 23.075998C 22.485914 22.52983 22.592827 21.974558 22.662 21.413998C 22.725033 20.922455 22.758427 20.42755 22.762001 19.931997C 22.805239 19.42004 22.674526 18.908464 22.391 18.479998C 22.104067 18.162191 21.685867 17.995577 21.259 18.028997C 20.876175 18.032963 20.511341 18.192104 20.248001 18.469997C 19.92137 18.802525 19.659866 19.193253 19.477001 19.621998C 19.252705 20.12638 19.071716 20.648937 18.936 21.183998C 18.792667 21.733688 18.685768 22.292229 18.616001 22.855999C 18.552969 23.347542 18.519575 23.842447 18.516 24.338C 18.472761 24.849957 18.603474 25.361532 18.887001 25.789999C 19.173162 26.109283 19.591473 26.27742 20.019 26.245z" stroke="none" fill="#6F6F6F" fill-rule="nonzero" />
	<g transform="matrix(0.76369137 0 0 0.7619249 61.13409 60.13868)">
	</g>
    <path transform="matrix(0.76369137 0 0 0.7619249 61.13409 60.13868)"  d="M1.812 -2.994L1.332 0.13L-6.459 0.13L-5.978 -2.994L1.812 -2.994zM1.112 1.632L0.631 4.756L-7.16 4.756L-6.679 1.632zM3.154 4.7C 3.9719043 4.249299 4.7610784 3.7483416 5.517 3.1999998C 6.2612476 2.663847 6.963293 2.071454 7.617 1.4279999C 8.188297 0.8756771 8.691841 0.2573266 9.117001 -0.41400015C 9.459169 -0.92158866 9.653408 -1.5143466 9.678 -2.1260002C 9.68434 -2.4450233 9.553204 -2.7513714 9.318001 -2.9670002C 9.008343 -3.2169018 8.614664 -3.3385844 8.218 -3.3070002C 7.7140245 -3.3010335 7.2140446 -3.216691 6.7360005 -3.0570002C 6.190167 -2.879815 5.655844 -2.6690903 5.1360006 -2.426L5.1360006 -2.426L4.516 -5.7C 5.2761207 -6.140748 6.0907164 -6.479967 6.939 -6.709C 7.816685 -6.963109 8.725286 -7.0946875 9.639 -7.1C 10.358753 -7.111047 11.072496 -6.9674797 11.732 -6.679C 12.326273 -6.420474 12.836217 -6.0006013 13.204 -5.467C 13.579903 -4.8866835 13.76873 -4.2050185 13.745001 -3.514C 13.75612 -2.5035481 13.507875 -1.5071309 13.024001 -0.6199999C 12.516677 0.28938627 11.882668 1.1220489 11.141001 1.8530002C 10.369667 2.627 9.556 3.3876667 8.7 4.135L8.7 4.135L13.486 4.135L12.986 7.1190004L2.794 7.1190004zM21.453999 7.344C 19.965729 7.4813557 18.488777 6.982984 17.387999 5.972C 16.471807 4.8351994 16.020819 3.3932483 16.126 1.9370003C 16.122744 0.80261505 16.260807 -0.32774603 16.536999 -1.4279997C 16.788563 -2.454788 17.204605 -3.4341109 17.769 -4.328C 18.28822 -5.1550145 18.994978 -5.8480697 19.831999 -6.351C 20.712736 -6.8584933 21.715765 -7.1147847 22.731998 -7.092C 24.216658 -7.22883 25.690897 -6.7386255 26.797998 -5.74C 27.71825 -4.6053734 28.169754 -3.1617756 28.059998 -1.7049999C 28.064049 -0.563979 27.92599 0.57310283 27.648998 1.6800001C 27.398712 2.7069871 26.978956 3.6850631 26.406998 4.5740004C 25.880379 5.3950267 25.175179 6.0865555 24.343998 6.597C 23.469917 7.1074996 22.470917 7.364435 21.459 7.339zM21.473999 4.22C 21.856827 4.2160335 22.22166 4.0568933 22.484999 3.7789998C 22.813158 3.4438992 23.074781 3.0495973 23.255999 2.6169999C 23.479473 2.1106071 23.661407 1.5868788 23.8 1.051C 23.943916 0.504832 24.050827 -0.050441027 24.119999 -0.61099994C 24.18303 -1.102542 24.216423 -1.5974461 24.22 -2.093C 24.263239 -2.6049576 24.132526 -3.1165345 23.848999 -3.545C 23.56372 -3.8631234 23.147165 -4.031149 22.721 -4C 22.338173 -3.9960337 21.97334 -3.8368936 21.710001 -3.559C 21.382286 -3.2244802 21.1204 -2.831314 20.938 -2.4C 20.714941 -1.8968129 20.534962 -1.3756082 20.4 -0.842C 20.256668 -0.29230404 20.149773 0.26622534 20.08 0.83000004C 20.016968 1.3215418 19.983574 1.8164468 19.98 2.312C 19.936762 2.8239577 20.067474 3.3355348 20.351 3.764C 20.63705 4.080646 21.053495 4.2471504 21.479 4.215z" stroke="none" fill="#D9041F" fill-rule="nonzero" />
	<g transform="matrix(0.76369137 0 0 0.7619249 51.34482 80.3122)">
	</g>
    <path transform="matrix(0.76369137 0 0 0.7619249 51.34482 80.3122)"  d="M0.066 1.915L2.861 -15.4L7.536 -15.4L5.409 -2.093L12.409 -2.093L11.741 1.914L0.066 1.915zM24.084 2.162C 23.517035 2.1676154 22.955664 2.0495396 22.439 1.816C 21.960392 1.605681 21.552471 1.2619869 21.264 0.826C 20.739254 1.2366238 20.155727 1.5659733 19.533 1.803C 18.884754 2.0460806 18.197302 2.1677737 17.505001 2.162C 16.406658 2.1987634 15.346538 1.7564683 14.6 0.95C 13.774422 -0.0835731 13.372299 -1.3921721 13.475 -2.711C 13.475 -5.761667 14.167667 -8.049667 15.553 -9.575C 17.04575 -11.14555 19.15249 -11.9819565 21.316 -11.863C 22.017775 -11.861256 22.718897 -11.819855 23.416 -11.739C 24.141335 -11.656334 24.829668 -11.545001 25.481 -11.405001C 26.046936 -11.288394 26.60476 -11.135409 27.151001 -10.9470005L27.151001 -10.9470005L26.434002 -6.4470005C 26.25267 -5.309001 26.116669 -4.4473343 26.026001 -3.8620005C 25.935333 -3.276667 25.873333 -2.8723335 25.84 -2.649C 25.807335 -2.4263334 25.791 -2.2903333 25.791 -2.241L25.791 -2.241L25.991001 -2.241C 26.058569 -2.2387676 26.126064 -2.2472048 26.191002 -2.266L26.191002 -2.266L25.944002 1.197C 25.616653 1.3500068 25.27173 1.4621818 24.917002 1.531C 24.658506 1.7655153 24.379753 1.9766703 24.084 2.162zM21.189999 -2.1380002L22.13 -8.074C 21.928549 -8.140689 21.721806 -8.1902 21.512 -8.222C 21.299229 -8.254698 21.084267 -8.27108 20.869 -8.271C 20.326077 -8.26432 19.810606 -8.031235 19.446999 -7.628C 18.987104 -7.130821 18.648594 -6.533894 18.457998 -5.884C 18.210318 -5.0892363 18.089502 -4.2603974 18.1 -3.428C 18.064377 -2.9624085 18.200636 -2.4999073 18.483 -2.128C 18.727186 -1.8443648 19.085855 -1.6854048 19.46 -1.695C 19.764154 -1.6964803 20.066778 -1.7381747 20.359999 -1.819C 20.647984 -1.8949494 20.926432 -2.0033092 21.19 -2.142zM33.558 2.162C 31.981518 2.2932992 30.416523 1.8002424 29.2 0.789C 28.215399 -0.24100566 27.704462 -1.6346653 27.79 -3.057C 27.754162 -4.650197 28.049034 -6.2335167 28.656 -7.707C 29.194984 -8.981551 30.120956 -10.054447 31.303 -10.774C 32.657463 -11.542315 34.19884 -11.9190035 35.755 -11.862C 36.486767 -11.861628 37.21782 -11.81621 37.944 -11.726001C 38.600597 -11.650902 39.250057 -11.522816 39.886 -11.343L39.886 -11.343L38.653 -7.683C 38.159454 -7.8277364 37.654705 -7.9310946 37.144 -7.992C 36.643116 -8.0502205 36.139267 -8.079269 35.635002 -8.079C 35.002968 -8.099624 34.38439 -7.89355 33.891003 -7.4980006C 33.40139 -7.082486 33.03021 -6.5450296 32.815002 -5.9400005C 32.561745 -5.255294 32.436005 -4.5299983 32.444004 -3.8000004C 32.41744 -3.206235 32.647263 -2.6296747 33.075005 -2.2170005C 33.5729 -1.7937522 34.21589 -1.5807374 34.868004 -1.6230005C 35.33569 -1.6213398 35.803104 -1.6460457 36.268005 -1.6970005C 36.704674 -1.7463338 37.22001 -1.8286672 37.814007 -1.9440005L37.814007 -1.9440005L38.114006 1.4939995C 37.395355 1.7551408 36.64805 1.929379 35.888004 2.0129995C 35.114662 2.1090355 34.33628 2.1587906 33.557 2.162zM39 1.049L40.064 -2.241C 40.776344 -1.9512796 41.51242 -1.7237644 42.264 -1.5609999C 43.139668 -1.3566628 44.035812 -1.2529898 44.935 -1.2519999C 45.89167 -1.2519999 46.588337 -1.2726666 47.025 -1.3139999C 47.46167 -1.3553333 47.68 -1.516 47.68 -1.7959999C 47.693584 -2.1680486 47.491493 -2.5145974 47.161 -2.6859999C 46.735477 -2.9113526 46.276154 -3.0660372 45.801 -3.1439998C 45.240334 -3.2480001 44.651 -3.3633335 44.033 -3.49C 43.42193 -3.6111083 42.82788 -3.8062134 42.264 -4.071C 41.71629 -4.3223896 41.24547 -4.7152014 40.9 -5.209C 40.523205 -5.8158154 40.342022 -6.5237813 40.381 -7.2370005C 40.32111 -8.558274 40.90699 -9.826256 41.952 -10.637001C 43.429073 -11.57069 45.169117 -12.000175 46.911 -11.861001C 47.798084 -11.862585 48.68368 -11.787977 49.558 -11.638001C 50.295727 -11.523119 51.0178 -11.323812 51.71 -11.044002L51.71 -11.044002L50.77 -7.6310015C 50.11097 -7.870546 49.43244 -8.052557 48.742 -8.175001C 48.056732 -8.30386 47.361267 -8.370795 46.664 -8.375001C 45.96254 -8.389034 45.260956 -8.355625 44.564003 -8.275001C 44.135338 -8.208334 43.921 -8.027 43.921 -7.7310004C 43.907032 -7.373617 44.12036 -7.046406 44.453003 -6.9150004C 44.886074 -6.7287 45.344402 -6.607715 45.813004 -6.556C 46.36567 -6.4820004 46.951004 -6.3953342 47.569004 -6.2960005C 48.17325 -6.2011404 48.763195 -6.0308084 49.325005 -5.7890005C 49.873688 -5.5527916 50.34494 -5.1671276 50.685005 -4.6760006C 51.073013 -4.0506053 51.25878 -3.320796 51.217007 -2.5860007C 51.281567 -1.5570095 51.00379 -0.53557765 50.427 0.319C 49.858482 1.0302119 49.071655 1.5344987 48.188 1.754C 47.086502 2.043151 45.950665 2.18042 44.812 2.162C 43.700085 2.178772 42.589622 2.0751696 41.5 1.853C 40.642113 1.668376 39.80468 1.3990583 39 1.049z" stroke="none" fill="#D9041F" fill-rule="nonzero" />
	<g transform="matrix(0.76369137 0 0 0.7619249 -70.13579 -54.19806)">
	</g>
    <path transform="matrix(0.76369137 0 0 0.7619249 -70.13579 -54.19806)"  d="M127.651 135.737C 127.627 135.73 127.76 135.33 127.821 134.657C 127.89513 133.78082 127.88139 132.89943 127.78 132.026C 127.687416 131.15047 127.52218 130.28415 127.285995 129.436C 127.102 128.78401 126.918 128.406 126.939995 128.397C 127.0003 128.47588 127.05005 128.56227 127.088 128.654C 127.20333 128.89795 127.30352 129.14874 127.388 129.40501C 127.65464 130.2513 127.8349 131.12242 127.926 132.00502C 128.0298 132.88866 128.0298 133.78139 127.926 134.66502C 127.89275 134.9331 127.83757 135.19798 127.761 135.45703C 127.73761 135.55504 127.70058 135.64929 127.651 135.737z" stroke="none" fill="#1C262A" fill-rule="nonzero" />
	<g transform="matrix(0.76369137 0 0 0.7619249 -69.6982 -66.80716)">
	</g>
    <path transform="matrix(0.76369137 0 0 0.7619249 -69.6982 -66.80716)"  d="M138.209 126.521C 138.6646 125.97788 139.05803 125.38554 139.382 124.755005C 139.70572 124.11765 139.80473 123.38966 139.66301 122.689C 139.563 122.289 139.363 121.911 139.3 121.5C 139.218 120.936 139.411 120.325 139.169 119.809C 138.789 119 137.655 118.951 136.92801 118.425995C 136.36401 118.019 136.04901 117.309 135.436 116.977C 134.87273 116.73059 134.24048 116.69128 133.651 116.866C 133.06708 117.043945 132.46133 117.1402 131.851 117.152C 131.42052 117.09498 130.99353 117.01418 130.57199 116.91C 130.14574 116.806465 129.69604 116.86979 129.31499 117.087006C 128.9355 117.32908 128.82289 117.83227 129.06299 118.213005C 128.69183 118.11519 128.29666 118.17743 127.97356 118.3846C 127.650444 118.59177 127.42898 118.9249 127.36299 119.303C 127.282074 120.08509 127.64483 120.84686 128.303 121.277C 128.95787 121.68896 129.7058 121.929665 130.478 121.977C 132.65819 122.28879 134.87639 121.77835 136.701 120.545" stroke="none" fill="#1C262A" fill-rule="nonzero" />
	<g transform="matrix(0.76369137 0 0 0.7619249 -69.1743 -66.127525)">
	</g>
    <path transform="matrix(0.76369137 0 0 0.7619249 -69.1743 -66.127525)"  d="M137.567 122.882L137.022 133.682C 136.97653 134.56349 136.5701 135.38736 135.89827 135.95985C 135.22646 136.53235 134.34856 136.80295 133.47101 136.70801C 131.75601 136.529 130.43102 136.27 130.52101 134.554C 130.56201 133.74 130.64001 131.831 130.64001 131.74901C 129.06984 131.51128 127.88977 130.19188 127.82802 128.60501C 127.79702 127.28501 127.959015 124.56001 128.12802 122.09601C 128.32207 119.44694 130.52484 117.39499 133.18102 117.38901L133.18102 117.38901L133.44502 117.38901C 136.3 117.543 137.785 120.04 137.567 122.882z" stroke="none" fill="#E8845A" fill-rule="nonzero" />
	<g transform="matrix(0.76369137 0 0 0.7619249 -67.91346 -60.182224)">
	</g>
    <path transform="matrix(0.76369137 0 0 0.7619249 -67.91346 -60.182224)"  d="M128.983 123.908C 130.24826 123.924805 131.49005 123.565636 132.551 122.876C 131.86678 124.17051 130.42456 124.87464 128.983 124.618L128.983 124.618L128.983 123.908z" stroke="none" fill="#F89F81" fill-rule="nonzero" />
	<g transform="matrix(0.76369137 0 0 0.7619249 -68.75198 -63.126293)">
	</g>
    <path transform="matrix(0.76369137 0 0 0.7619249 -68.75198 -63.126293)"  d="M128.211 120.513C 128.21504 120.724335 128.38281 120.89605 128.594 120.905C 128.69437 120.91128 128.79306 120.8772 128.86818 120.81035C 128.9433 120.74349 128.98859 120.64941 128.99399 120.548996C 128.99243 120.33697 128.82297 120.16439 128.611 120.159C 128.51077 120.151886 128.4119 120.185394 128.33665 120.25199C 128.26141 120.31858 128.21613 120.41265 128.211 120.513z" stroke="none" fill="#1C262A" fill-rule="nonzero" />
	<g transform="matrix(0.76369137 0 0 0.7619249 -68.76803 -63.60631)">
	</g>
    <path transform="matrix(0.76369137 0 0 0.7619249 -68.76803 -63.60631)"  d="M128.2 120.13C 128.248 120.181 128.54399 119.96 128.965 119.958C 129.386 119.956 129.69699 120.166 129.743 120.116C 129.765 120.091995 129.716 120 129.578 119.903C 129.39453 119.77807 129.17697 119.71277 128.955 119.716C 128.73615 119.71585 128.52303 119.78596 128.347 119.916C 128.22 120.016 128.179 120.108 128.2 120.13z" stroke="none" fill="#1C262A" fill-rule="nonzero" />
	<g transform="matrix(0.76369137 0 0 0.7619249 -66.963425 -63.03411)">
	</g>
    <path transform="matrix(0.76369137 0 0 0.7619249 -66.963425 -63.03411)"  d="M129.858 120.6C 129.86205 120.81133 130.02982 120.98305 130.241 120.992C 130.34135 120.99968 130.44054 120.96636 130.51591 120.89966C 130.5913 120.832954 130.63641 120.738556 130.64099 120.638C 130.64056 120.426315 130.47255 120.253 130.26099 120.246C 130.1602 120.23776 130.06038 120.2708 129.9844 120.33753C 129.90843 120.404274 129.86281 120.49899 129.858 120.6z" stroke="none" fill="#1C262A" fill-rule="nonzero" />
	<g transform="matrix(0.76369137 0 0 0.7619249 -66.90844 -63.58117)">
	</g>
    <path transform="matrix(0.76369137 0 0 0.7619249 -66.90844 -63.58117)"  d="M129.915 120.153C 129.963 120.204 130.25899 119.983 130.681 119.981C 131.10301 119.979004 131.415 120.189 131.461 120.136C 131.483 120.114 131.43199 120.022 131.296 119.925C 131.11188 119.79986 130.89362 119.73455 130.671 119.73801C 130.45221 119.73827 130.23921 119.808334 130.063 119.938C 129.934 120.037 129.89 120.129 129.915 120.153z" stroke="none" fill="#1C262A" fill-rule="nonzero" />
	<g transform="matrix(0.76369137 0 0 0.7619249 -68.060844 -63.56517)">
	</g>
    <path transform="matrix(0.76369137 0 0 0.7619249 -68.060844 -63.56517)"  d="M129.925 123.254C 129.70229 123.1855 129.47177 123.145515 129.239 123.134995C 129.13 123.12499 129.028 123.103 129.009 123.034996C 128.99907 122.92464 129.02353 122.8139 129.07901 122.717995C 129.17902 122.45599 129.279 122.185 129.389 121.898994C 129.67601 121.20468 129.90773 120.48879 130.082 119.757996C 129.73692 120.425644 129.4476 121.12068 129.217 121.836L129.217 121.836L128.91699 122.659996C 128.85153 122.79048 128.83351 122.939674 128.866 123.08199C 128.898 123.15893 128.9643 123.21634 129.045 123.23699C 129.10422 123.253586 129.1655 123.261665 129.227 123.260994C 129.45898 123.28908 129.69363 123.28673 129.925 123.254z" stroke="none" fill="#1C262A" fill-rule="nonzero" />
	<g transform="matrix(0.76369137 0 0 0.7619249 -67.61714 -61.872173)">
	</g>
    <path transform="matrix(0.76369137 0 0 0.7619249 -67.61714 -61.872173)"  d="M130.588 121.316C 130.52 121.316 130.523 121.769005 130.135 122.096C 129.747 122.423 129.258 122.375 129.256 122.438C 129.249 122.467 129.36499 122.525 129.571 122.53001C 129.83836 122.53186 130.09798 122.44025 130.305 122.271C 130.50264 122.10697 130.62854 121.87236 130.65599 121.617004C 130.671 121.427 130.62 121.314 130.588 121.316z" stroke="none" fill="#1C262A" fill-rule="nonzero" />
	<g transform="matrix(0.76369137 0 0 0.7619249 -64.93124 -62.804764)">
	</g>
    <path transform="matrix(0.76369137 0 0 0.7619249 -64.93124 -62.804764)"  d="M131.807 120.546C 131.85501 120.523994 133.68901 119.979 133.64801 121.846C 133.67273 122.323395 133.45317 122.78065 133.06516 123.059875C 132.67715 123.3391 132.17384 123.402054 131.729 123.227C 131.727 123.174 131.807 120.546 131.807 120.546z" stroke="none" fill="#E8845A" fill-rule="nonzero" />
	<g transform="matrix(0.76369137 0 0 0.7619249 -64.667755 -62.531235)">
	</g>
    <path transform="matrix(0.76369137 0 0 0.7619249 -64.667755 -62.531235)"  d="M131.973 122.176C 131.98001 122.176 132.00401 122.200005 132.06001 122.227005C 132.13599 122.26257 132.22289 122.26688 132.30202 122.239006C 132.55249 122.090675 132.70262 121.81799 132.69402 121.52701C 132.7019 121.366196 132.67389 121.20564 132.61201 121.05701C 132.57869 120.93734 132.48912 120.84142 132.37201 120.8C 132.29356 120.77647 132.20949 120.812195 132.17201 120.885C 132.14502 120.936005 132.158 120.975 132.14801 120.977005C 132.13802 120.97901 132.10701 120.94601 132.12401 120.868004C 132.13605 120.82212 132.16362 120.78184 132.20201 120.754005C 132.25423 120.7153 132.3199 120.699425 132.38402 120.71001C 132.53981 120.745384 132.66618 120.858894 132.71802 121.01001C 132.79298 121.17375 132.8273 121.35317 132.81802 121.53301C 132.82863 121.87506 132.63092 122.18942 132.31802 122.32801C 132.21474 122.35653 132.10408 122.33587 132.01802 122.27201C 131.976 122.222 131.966 122.181 131.973 122.176z" stroke="none" fill="#F89F81" fill-rule="nonzero" />
	<g transform="matrix(0.76369137 0 0 0.7619249 -69.063576 -66.32791)">
	</g>
    <path transform="matrix(0.76369137 0 0 0.7619249 -69.063576 -66.32791)"  d="M127.925 119.818C 128.10901 120.547 129.667 121.118004 130.912 120.988C 131.82462 120.80744 132.6765 120.398346 133.388 119.798996C 133.897 119.506 133.897 119.506 134.623 119.56899C 135.209 119.621994 135.565 120.28099 135.929 120.745995C 135.56041 122.1956 135.64061 123.72295 136.159 125.12599C 136.1846 125.290054 136.26288 125.44133 136.382 125.55699C 136.63998 125.68848 136.95506 125.61697 137.131 125.38699C 137.41333 125.03756 137.58716 124.61309 137.631 124.16599C 137.8164 123.16271 137.79907 122.13247 137.58 121.135994C 137.3588 120.1323 136.84764 119.21569 136.11 118.49999C 135.15082 117.63321 133.8943 117.16972 132.602 117.20599C 131.31877 117.25156 130.0824 117.69972 129.06801 118.48699C 128.58363 118.82871 128.19215 119.28584 127.92901 119.81699" stroke="none" fill="#1C262A" fill-rule="nonzero" />
	<g transform="matrix(0.76369137 0 0 0.7619249 -65.78963 -28.387856)">
	</g>
    <path transform="matrix(0.76369137 0 0 0.7619249 -65.78963 -28.387856)"  d="M131.432 155.085L134.567 160.13101C 134.567 160.13101 130.49 165.01201 130.979 166.001L130.979 166.001L140.979 160.274L136.418 152.212L131.432 155.085z" stroke="none" fill="#C9C9C9" fill-rule="nonzero" />
	<g transform="matrix(0.76369137 0 0 0.7619249 -63.03804 -25.836926)">
	</g>
    <path transform="matrix(0.76369137 0 0 0.7619249 -63.03804 -25.836926)"  d="M133.807 154.579C 134.04092 154.52464 134.27794 154.65654 134.35501 154.88399C 134.41766 155.1175 134.28548 155.35895 134.05501 155.43199C 133.80634 155.48685 133.55615 155.34604 133.47401 155.105C 133.43436 154.85583 133.59935 154.62007 133.84702 154.57199" stroke="none" fill="#D9D9D8" fill-rule="nonzero" />
	<g transform="matrix(0.76369137 0 0 0.7619249 -64.250786 -24.93633)">
	</g>
    <path transform="matrix(0.76369137 0 0 0.7619249 -64.250786 -24.93633)"  d="M132.359 155.643C 132.388 155.69101 132.64499 155.573 132.974 155.59201C 133.30301 155.61102 133.551 155.74501 133.58499 155.699C 133.61899 155.653 132.323 155.6 132.359 155.643z" stroke="none" fill="#1C262A" fill-rule="nonzero" />
	<g transform="matrix(0.76369137 0 0 0.7619249 -64.608185 -24.414415)">
	</g>
    <path transform="matrix(0.76369137 0 0 0.7619249 -64.608185 -24.414415)"  d="M132.027 155.991C 132.04399 156.04399 132.303 156.008 132.58699 156.119C 132.87099 156.23001 133.04498 156.419 133.08699 156.39C 133.129 156.361 132 155.945 132.027 155.991z" stroke="none" fill="#1C262A" fill-rule="nonzero" />
	<g transform="matrix(0.76369137 0 0 0.7619249 -64.9404 -23.939728)">
	</g>
    <path transform="matrix(0.76369137 0 0 0.7619249 -64.9404 -23.939728)"  d="M132.585 156.965C 132.636 156.95 132.563 156.665 132.285 156.47299C 132.007 156.28099 131.718 156.301 131.72101 156.35199C 131.72401 156.40298 132.534 156.99 132.585 156.965z" stroke="none" fill="#1C262A" fill-rule="nonzero" />
	<g transform="matrix(0.76369137 0 0 0.7619249 -64.51655 -25.63959)">
	</g>
    <path transform="matrix(0.76369137 0 0 0.7619249 -64.51655 -25.63959)"  d="M132.119 155.337C 132.16501 155.369 132.352 155.175 132.63701 155.037C 132.92201 154.899 133.18901 154.863 133.192 154.804C 133.19499 154.745 132.075 155.313 132.119 155.337z" stroke="none" fill="#1C262A" fill-rule="nonzero" />
	<g transform="matrix(0.76369137 0 0 0.7619249 -63.03804 -25.836926)">
	</g>
    <path transform="matrix(0.76369137 0 0 0.7619249 -63.03804 -25.836926)"  d="M133.807 154.579C 134.04092 154.52464 134.27794 154.65654 134.35501 154.88399C 134.41766 155.1175 134.28548 155.35895 134.05501 155.43199C 133.80634 155.48685 133.55615 155.34604 133.47401 155.105C 133.43436 154.85583 133.59935 154.62007 133.84702 154.57199" stroke="none" fill="#D9D9D8" fill-rule="nonzero" />
	<g transform="matrix(0.76369137 0 0 0.7619249 -64.250786 -24.93633)">
	</g>
    <path transform="matrix(0.76369137 0 0 0.7619249 -64.250786 -24.93633)"  d="M132.359 155.643C 132.388 155.69101 132.64499 155.573 132.974 155.59201C 133.30301 155.61102 133.551 155.74501 133.58499 155.699C 133.61899 155.653 132.323 155.6 132.359 155.643z" stroke="none" fill="#1C262A" fill-rule="nonzero" />
	<g transform="matrix(0.76369137 0 0 0.7619249 -64.608185 -24.414415)">
	</g>
    <path transform="matrix(0.76369137 0 0 0.7619249 -64.608185 -24.414415)"  d="M132.027 155.991C 132.04399 156.04399 132.303 156.008 132.58699 156.119C 132.87099 156.23001 133.04498 156.419 133.08699 156.39C 133.129 156.361 132 155.945 132.027 155.991z" stroke="none" fill="#1C262A" fill-rule="nonzero" />
	<g transform="matrix(0.76369137 0 0 0.7619249 -64.9404 -23.939728)">
	</g>
    <path transform="matrix(0.76369137 0 0 0.7619249 -64.9404 -23.939728)"  d="M132.585 156.965C 132.636 156.95 132.563 156.665 132.285 156.47299C 132.007 156.28099 131.718 156.301 131.72101 156.35199C 131.72401 156.40298 132.534 156.99 132.585 156.965z" stroke="none" fill="#1C262A" fill-rule="nonzero" />
	<g transform="matrix(0.76369137 0 0 0.7619249 -64.51655 -25.63959)">
	</g>
    <path transform="matrix(0.76369137 0 0 0.7619249 -64.51655 -25.63959)"  d="M132.119 155.337C 132.16501 155.369 132.352 155.175 132.63701 155.037C 132.92201 154.899 133.18901 154.863 133.192 154.804C 133.19499 154.745 132.075 155.313 132.119 155.337z" stroke="none" fill="#1C262A" fill-rule="nonzero" />
	<g transform="matrix(0.76369137 0 0 0.7619249 -68.30827 -26.446474)">
	</g>
    <path transform="matrix(0.76369137 0 0 0.7619249 -68.30827 -26.446474)"  d="M134.24 154.139L134.57701 160.069C 134.57701 160.069 128.66402 162.404 128.62001 163.506L128.62001 163.506L140.141 163.26399L139.993 154L134.24 154.139z" stroke="none" fill="#C9C9C9" fill-rule="nonzero" />
	<g transform="matrix(0.76369137 0 0 0.7619249 -64.29279 -23.997644)">
	</g>
    <path transform="matrix(0.76369137 0 0 0.7619249 -64.29279 -23.997644)"  d="M132.872 156.28C 133.10306 156.34547 133.24812 156.57404 133.209 156.811C 133.1516 157.04422 132.92212 157.19208 132.686 157.14801C 132.44058 157.08018 132.28719 156.83664 132.332 156.58601C 132.41493 156.34773 132.67249 156.21873 132.913 156.29501" stroke="none" fill="#D9D9D8" fill-rule="nonzero" />
	<g transform="matrix(0.76369137 0 0 0.7619249 -65.720894 -23.782015)">
	</g>
    <path transform="matrix(0.76369137 0 0 0.7619249 -65.720894 -23.782015)"  d="M131 156.516C 131 156.574 131.283 156.59401 131.564 156.768C 131.84499 156.942 131.998 157.177 132.04799 157.153C 132.09798 157.129 130.988 156.465 131 156.516z" stroke="none" fill="#1C262A" fill-rule="nonzero" />
	<g transform="matrix(0.76369137 0 0 0.7619249 -66.25853 -23.532864)">
	</g>
    <path transform="matrix(0.76369137 0 0 0.7619249 -66.25853 -23.532864)"  d="M130.507 156.715C 130.49501 156.771 130.742 156.86 130.938 157.095C 131.134 157.33 131.195 157.58 131.25 157.575C 131.305 157.56999 130.507 156.662 130.507 156.715z" stroke="none" fill="#1C262A" fill-rule="nonzero" />
	<g transform="matrix(0.76369137 0 0 0.7619249 -66.76257 -23.298958)">
	</g>
    <path transform="matrix(0.76369137 0 0 0.7619249 -66.76257 -23.298958)"  d="M130.511 157.868C 130.564 157.87999 130.63701 157.597 130.48401 157.291C 130.33101 156.985 130.067 156.869 130.046 156.918C 130.02501 156.967 130.456 157.863 130.511 157.868z" stroke="none" fill="#1C262A" fill-rule="nonzero" />
	<g transform="matrix(0.76369137 0 0 0.7619249 -65.68883 -24.461657)">
	</g>
    <path transform="matrix(0.76369137 0 0 0.7619249 -65.68883 -24.461657)"  d="M131.033 156.049C 131.057 156.09999 131.31401 156.01799 131.63301 156.032C 131.95201 156.046 132.20201 156.14099 132.23302 156.093C 132.26402 156.04501 131 156 131.033 156.049z" stroke="none" fill="#1C262A" fill-rule="nonzero" />
	<g transform="matrix(0.76369137 0 0 0.7619249 -64.29279 -23.997644)">
	</g>
    <path transform="matrix(0.76369137 0 0 0.7619249 -64.29279 -23.997644)"  d="M132.872 156.28C 133.10306 156.34547 133.24812 156.57404 133.209 156.811C 133.1516 157.04422 132.92212 157.19208 132.686 157.14801C 132.44058 157.08018 132.28719 156.83664 132.332 156.58601C 132.41493 156.34773 132.67249 156.21873 132.913 156.29501" stroke="none" fill="#C9C9C9" fill-rule="nonzero" />
	<g transform="matrix(0.76369137 0 0 0.7619249 -65.720894 -23.782015)">
	</g>
    <path transform="matrix(0.76369137 0 0 0.7619249 -65.720894 -23.782015)"  d="M131 156.516C 131 156.574 131.283 156.59401 131.564 156.768C 131.84499 156.942 131.998 157.177 132.04799 157.153C 132.09798 157.129 130.988 156.465 131 156.516z" stroke="none" fill="#1C262A" fill-rule="nonzero" />
	<g transform="matrix(0.76369137 0 0 0.7619249 -66.25853 -23.532864)">
	</g>
    <path transform="matrix(0.76369137 0 0 0.7619249 -66.25853 -23.532864)"  d="M130.507 156.715C 130.49501 156.771 130.742 156.86 130.938 157.095C 131.134 157.33 131.195 157.58 131.25 157.575C 131.305 157.56999 130.507 156.662 130.507 156.715z" stroke="none" fill="#1C262A" fill-rule="nonzero" />
	<g transform="matrix(0.76369137 0 0 0.7619249 -66.76257 -23.298958)">
	</g>
    <path transform="matrix(0.76369137 0 0 0.7619249 -66.76257 -23.298958)"  d="M130.511 157.868C 130.564 157.87999 130.63701 157.597 130.48401 157.291C 130.33101 156.985 130.067 156.869 130.046 156.918C 130.02501 156.967 130.456 157.863 130.511 157.868z" stroke="none" fill="#1C262A" fill-rule="nonzero" />
	<g transform="matrix(0.76369137 0 0 0.7619249 -65.68883 -24.461657)">
	</g>
    <path transform="matrix(0.76369137 0 0 0.7619249 -65.68883 -24.461657)"  d="M131.033 156.049C 131.057 156.09999 131.31401 156.01799 131.63301 156.032C 131.95201 156.046 132.20201 156.14099 132.23302 156.093C 132.26402 156.04501 131 156 131.033 156.049z" stroke="none" fill="#1C262A" fill-rule="nonzero" />
	<g transform="matrix(0.76369137 0 0 0.7619249 -70.61691 -44.39742)">
	</g>
    <path transform="matrix(0.76369137 0 0 0.7619249 -70.61691 -44.39742)"  d="M126.495 137.44C 126.495 137.44 127.929 157.117 128.404 158.864L128.404 158.864L134.291 155.974L126.486 137.115L126.486 118.91501L126.495 137.44z" stroke="none" fill="#670919" fill-rule="nonzero" />
	<g transform="matrix(0.76369137 0 0 0.7619249 -69.22394 -44.571903)">
	</g>
    <path transform="matrix(0.76369137 0 0 0.7619249 -69.22394 -44.571903)"  d="M140.323 139.876C 140.323 139.876 141.038 143.132 140.72299 143.60901C 140.38466 144.24876 140.09225 144.91177 139.84799 145.593L139.84799 145.593L140.325 160.283L141.754 181.88301L134.894 181.88301L131.951 162.83801C 131.3523 161.81166 130.87285 160.72026 130.522 159.585C 130.12201 158.076 127.78001 143.069 127.78001 143.069L127.78001 143.069L127.78001 137.284L140.323 139.876z" stroke="none" fill="#A60B20" fill-rule="nonzero" />
	<g transform="matrix(0.76369137 0 0 0.7619249 -69.56302 -43.640068)">
	</g>
    <path transform="matrix(0.76369137 0 0 0.7619249 -69.56302 -43.640068)"  d="M127.465 138.139C 127.464554 138.17624 127.4679 138.21344 127.475 138.25L127.475 138.25L127.520996 138.575L127.71 139.825C 127.88 140.915 128.124 142.482 128.427 144.413C 128.73001 146.344 129.105 148.657 129.51201 151.213C 129.72 152.492 129.92601 153.836 130.16602 155.229C 130.39516 156.67195 130.75256 158.0916 131.23401 159.47101C 131.84727 160.78732 132.34904 162.15282 132.73401 163.55301C 133.03401 164.92902 133.23401 166.27602 133.434 167.55301C 133.822 170.11601 134.134 172.42902 134.40001 174.37201C 134.66602 176.315 134.88 177.88701 135.042 178.97202C 135.12401 179.51501 135.19 179.93402 135.242 180.22002L135.242 180.22002L135.30301 180.54202C 135.30844 180.57915 135.31747 180.61566 135.33 180.65102C 135.32875 180.61377 135.32474 180.57668 135.31801 180.54002L135.31801 180.54002L135.272 180.21503C 135.231 179.92203 135.172 179.50003 135.1 178.96503C 134.957 177.87003 134.75401 176.29802 134.5 174.36003C 134.24599 172.42204 133.945 170.09903 133.563 167.53403C 133.363 166.25302 133.16301 164.90602 132.863 163.52002C 132.47806 162.11302 131.9739 160.7414 131.356 159.42001C 130.87738 158.0493 130.52165 156.63875 130.293 155.20502C 130.051 153.81702 129.842 152.47002 129.632 151.19101C 129.213 148.63501 128.832 146.33202 128.518 144.391C 128.20401 142.45 127.934006 140.90001 127.753006 139.81001L127.753006 139.81001L127.54001 138.56702L127.47901 138.24202C 127.47661 138.20743 127.471924 138.173 127.465 138.139z" stroke="none" fill="#A60B20" fill-rule="nonzero" />
	<g transform="matrix(0.76369137 0 0 0.7619249 -63.30457 -29.807322)">
	</g>
    <path transform="matrix(0.76369137 0 0 0.7619249 -63.30457 -29.807322)"  d="M133.233 150.9C 133.2214 151.05077 133.2214 151.20222 133.233 151.353C 133.243 151.646 133.26201 152.068 133.291 152.591C 133.352 153.63501 133.453 155.074 133.574 156.66301C 133.695 158.25201 133.79901 159.69301 133.867 160.73502C 133.899 161.23502 133.92801 161.65302 133.947 161.96802C 133.94908 162.12016 133.96515 162.2718 133.99501 162.42102C 134.00987 162.27048 134.01222 162.11896 134.00201 161.96802C 134.00201 161.67502 133.98701 161.25102 133.96602 160.73001C 133.92502 159.68301 133.83801 158.242 133.71602 156.65302C 133.59402 155.06403 133.47601 153.65302 133.39102 152.58301C 133.34702 152.08301 133.31403 151.66501 133.29102 151.35C 133.28355 151.19872 133.26416 151.04825 133.233 150.9z" stroke="none" fill="#344952" fill-rule="nonzero" />
	<g transform="matrix(0.76369137 0 0 0.7619249 -71.30424 -58.747513)">
	</g>
    <path transform="matrix(0.76369137 0 0 0.7619249 -71.30424 -58.747513)"  d="M133.309 124.2L132.49301 124.756996C 132.49301 124.756996 129.264 131.957 128.72101 134.301L128.72101 134.301L130.63501 134.456L130.63501 130.614L133.309 124.2z" stroke="none" fill="#344952" fill-rule="nonzero" />
	<g transform="matrix(0.76369137 0 0 0.7619249 -70.86282 -59.250385)">
	</g>
    <path transform="matrix(0.76369137 0 0 0.7619249 -70.86282 -59.250385)"  d="M132.675 125.31C 131.34422 128.07765 130.25485 130.95499 129.419 133.91C 128.932 136.279 126.267006 158.134 126.267006 158.134L126.267006 158.134L133.951 157.761L138.55101 130.785L139.537 123.73801C 139.537 123.73801 135.005 126.49501 133.965 126.338005C 133.37372 126.27043 132.87285 125.87129 132.675 125.31z" stroke="none" fill="#DA0820" fill-rule="nonzero" />
	<g transform="matrix(0.76369137 0 0 0.7619249 -68.74282 -59.77078)">
	</g>
    <path transform="matrix(0.76369137 0 0 0.7619249 -68.74282 -59.77078)"  d="M142.219 128.249L137.329 124.41699L137.14299 123.25399L131.12698 126.89599L128.21999 162.23799L140.71999 162.23799L139.28299 147.771L141.93298 132.236L142.219 128.249z" stroke="none" fill="#C9C9C9" fill-rule="nonzero" />
	<g transform="matrix(0.76369137 0 0 0.7619249 -67.43232 -59.251152)">
	</g>
    <path transform="matrix(0.76369137 0 0 0.7619249 -67.43232 -59.251152)"  d="M129.428 126.153C 129.44456 126.26883 129.47374 126.3825 129.515 126.492L129.515 126.492L129.806 127.392L129.906 127.692C 129.93016 127.81654 129.99194 127.93068 130.08301 128.019C 130.21698 128.08542 130.3785 128.05795 130.483 127.951L130.483 127.951L130.788 127.711L132.137 126.635C 133.08899 125.867004 133.937 125.155 134.53699 124.622C 134.83699 124.358 135.07698 124.138 135.23698 123.982C 135.32733 123.90801 135.40947 123.82453 135.48198 123.733C 135.38123 123.792206 135.28703 123.86193 135.20097 123.941L135.20097 123.941L134.46898 124.547005C 133.85098 125.05801 132.99397 125.756004 132.04198 126.524C 131.56697 126.907005 131.11398 127.273 130.69998 127.609C 130.49998 127.752 130.29099 128.009 130.13799 127.921C 130.06798 127.875 130.03798 127.756 129.99998 127.655L129.99998 127.655L129.89099 127.354996C 129.76 127.001 129.64899 126.702995 129.55899 126.465996C 129.52574 126.3576 129.48187 126.25276 129.428 126.153z" stroke="none" fill="#C9C9C9" fill-rule="nonzero" />
	<g transform="matrix(0.76369137 0 0 0.7619249 -71.21259 -55.894104)">
	</g>
    <path transform="matrix(0.76369137 0 0 0.7619249 -71.21259 -55.894104)"  d="M129.872 126.832C 129.8704 126.85821 129.86536 126.884094 129.857 126.909004L129.857 126.909004L129.799 127.132C 129.75099 127.332 129.65799 127.609 129.571 127.982C 129.48401 128.35501 129.38 128.811 129.271 129.34601C 128.813 132.046 128.321 135.79701 127.854 139.94601C 127.38699 144.09502 127.010994 147.86702 126.737 150.59302C 126.599 151.94702 126.487 153.04701 126.409996 153.82002L126.409996 153.82002L126.31 154.69702L126.283 154.92502C 126.281 154.9515 126.27597 154.97768 126.268 155.00302C 126.264786 154.97644 126.264786 154.94958 126.268 154.92302L126.268 154.92302L126.283 154.69502L126.351 153.81602C 126.419 153.04103 126.513 151.94102 126.631996 150.58403C 126.881 147.85403 127.238 144.08403 127.71 139.93002C 128.182 135.77602 128.684 132.03003 129.168 129.33002C 129.27899 128.65202 129.415 128.04602 129.519 127.513016C 129.623 126.98001 129.752 126.527016 129.839 126.152016L129.839 126.152016L129.90901 125.93401C 130.15698 125.94424 130.34972 126.15355 130.3395 126.40152C 130.32927 126.64949 130.11996 126.842224 129.872 126.832z" stroke="none" fill="#C9C9C9" fill-rule="nonzero" />
	<g transform="matrix(0.76369137 0 0 0.7619249 -70.61615 -52.611736)">
	</g>
    <path transform="matrix(0.76369137 0 0 0.7619249 -70.61615 -52.611736)"  d="M128.537 135.367C 129.85353 136.24905 131.35713 136.8129 132.929 137.014C 137.7252 137.9071 142.63945 137.96698 147.456 137.19101C 146.1763 136.2907 144.72087 135.67084 143.185 135.37201C 140.707 134.70535 138.229 134.04335 135.75099 133.38602C 134.63559 133.06398 133.50237 132.80754 132.357 132.61801C 131.13899 132.44101 130.67099 130.45001 129.53699 129.94402C 128.51852 129.73589 127.48878 130.24583 127.03699 131.18202C 125.448 133.873 127.778 134.793 128.537 135.367z" stroke="none" fill="#344952" fill-rule="nonzero" fill-opacity="0.10980392" />
	<g transform="matrix(0.76369137 0 0 0.7619249 -65.60481 -58.0374)">
	</g>
    <path transform="matrix(0.76369137 0 0 0.7619249 -65.60481 -58.0374)"  d="M131.489 128.206C 131.63936 126.949356 132.40392 125.849396 133.52939 125.27053C 134.65486 124.69166 135.99431 124.70945 137.104 125.31799C 138.47643 126.08468 139.52078 127.32716 140.04001 128.81099C 141.80101 133.368 145.34001 140.41699 144.67401 141.92099C 144.00801 143.42499 140.47401 144.69899 140.47401 144.69899L140.47401 144.69899L137.19601 139.09898L136.10802 139.26599L131.10802 130.734C 131.10802 130.734 131.32 129.7 131.489 128.206z" stroke="none" fill="#C9C9C9" fill-rule="nonzero" />
	<g transform="matrix(0.76369137 0 0 0.7619249 -62.924248 -52.54926)">
	</g>
    <path transform="matrix(0.76369137 0 0 0.7619249 -62.924248 -52.54926)"  d="M135.465 130C 135.32018 129.92384 135.15485 129.89583 134.993 129.92C 134.59343 129.93813 134.21814 130.11688 133.95229 130.41571C 133.68642 130.71452 133.55252 131.10805 133.581 131.507C 133.57584 131.67094 133.6235 131.83221 133.717 131.96701C 133.739 131.96 133.678 131.78801 133.683 131.50401C 133.68105 130.74524 134.24925 130.10602 135.003 130.01901C 135.281 129.983 135.46 130.024 135.465 130z" stroke="none" fill="#030504" fill-rule="nonzero" />
	<g transform="matrix(0.76369137 0 0 0.7619249 -65.28482 -58.046543)">
	</g>
    <path transform="matrix(0.76369137 0 0 0.7619249 -65.28482 -58.046543)"  d="M131.407 128.475C 131.43399 128.48201 131.494 128.03401 131.773 127.37501C 131.9368 126.99121 132.14848 126.629684 132.403 126.29901C 132.7129 125.89782 133.10196 125.5646 133.546 125.320015C 134.00107 125.09507 134.50139 124.97674 135.009 124.974014C 135.42397 124.96136 135.83817 125.017105 136.235 125.139015C 136.6011 125.259186 136.9455 125.43747 137.255 125.667015C 137.255 125.667015 137.24 125.640015 137.20201 125.60201C 137.149 125.545006 137.09074 125.4931 137.02802 125.447014C 136.79974 125.27185 136.54346 125.136604 136.27002 125.04701C 135.86394 124.90848 135.43706 124.84082 135.00803 124.847015C 134.47873 124.84151 133.95572 124.961815 133.48203 125.19801C 133.01945 125.451515 132.61646 125.800995 132.30002 126.223015C 132.04291 126.56467 131.83488 126.94064 131.68202 127.34001C 131.5766 127.606384 131.49722 127.88234 131.44502 128.16402C 131.41624 128.26508 131.40343 128.37 131.407 128.475z" stroke="none" fill="#030504" fill-rule="nonzero" />
	<g transform="matrix(0.76369137 0 0 0.7619249 -67.82562 -51.663902)">
	</g>
    <path transform="matrix(0.76369137 0 0 0.7619249 -67.82562 -51.663902)"  d="M140.105 130.735L129.555 130.80501L129.06299 134.16501C 129.06299 134.16501 137.273 136.115 142.96298 135.61101L142.96298 135.61101L140.105 130.735z" stroke="none" fill="#E8845A" fill-rule="nonzero" />
	<g transform="matrix(0.76369137 0 0 0.7619249 -70.00902 -53.21061)">
	</g>
    <path transform="matrix(0.76369137 0 0 0.7619249 -70.00902 -53.21061)"  d="M128.458 129.308C 128.458 129.308 130.469 129.487 130.76399 129.545C 131.29822 129.83055 131.80357 130.16711 132.273 130.55L132.273 130.55L132.842 133.266L131.92099 136.195C 131.2925 136.09053 130.68333 135.89197 130.11398 135.606C 129.3008 134.94598 128.6012 134.1572 128.04298 133.271C 128.04298 133.271 127.24298 133.3 127.18498 133.181C 127.18498 133.181 126.97898 132.411 127.27498 132.205L127.27498 132.205L127.65998 132.144C 127.65998 132.144 127.30398 131.17 127.98498 131.17C 127.986 130.345 127.662 129.427 128.458 129.308z" stroke="none" fill="#E8845A" fill-rule="nonzero" />
	<g transform="matrix(0.76369137 0 0 0.7619249 -69.56912 -52.825073)">
	</g>
    <path transform="matrix(0.76369137 0 0 0.7619249 -69.56912 -52.825073)"  d="M127.459 129.762C 127.459 129.806 128.019 129.77199 128.702 129.81999C 129.385 129.868 129.93 129.97699 129.94 129.93599C 129.5512 129.7713 129.1342 129.68335 128.712 129.67699C 128.29274 129.62549 127.86749 129.65434 127.459 129.762z" stroke="none" fill="#DFDFDE" fill-rule="nonzero" />
	<g transform="matrix(0.76369137 0 0 0.7619249 -69.80282 -52.361065)">
	</g>
    <path transform="matrix(0.76369137 0 0 0.7619249 -69.80282 -52.361065)"  d="M127.244 130.192C 127.360725 130.2183 127.48066 130.2274 127.600006 130.219L127.600006 130.219L128.45801 130.26999C 128.86453 130.31369 129.27502 130.30394 129.679 130.24098C 129.28183 130.14404 128.87372 130.09933 128.465 130.10799C 128.17628 130.08978 127.8867 130.08978 127.598 130.10799C 127.375 130.124 127.239 130.17 127.244 130.192z" stroke="none" fill="#DFDFDE" fill-rule="nonzero" />
	<g transform="matrix(0.76369137 0 0 0.7619249 -69.93036 -52.00067)">
	</g>
    <path transform="matrix(0.76369137 0 0 0.7619249 -69.93036 -52.00067)"  d="M128.937 130.583C 128.6526 130.43004 128.32446 130.37888 128.007 130.43799C 127.6844 130.44806 127.37466 130.5668 127.128006 130.775C 127.147 130.814 127.523 130.627 128.022 130.575C 128.521 130.523 128.925 130.624 128.937 130.583z" stroke="none" fill="#DFDFDE" fill-rule="nonzero" />
</g>
</svg>