<?xml version="1.0" encoding="UTF-8"?>
<svg xmlns="http://www.w3.org/2000/svg" xmlns:xlink="http://www.w3.org/1999/xlink" width="96pt" height="80pt" viewBox="0 0 96 80" version="1.1">
<defs>
<filter id="alpha" filterUnits="objectBoundingBox" x="0%" y="0%" width="100%" height="100%">
  <feColorMatrix type="matrix" in="SourceGraphic" values="0 0 0 0 1 0 0 0 0 1 0 0 0 0 1 0 0 0 1 0"/>
</filter>
<mask id="mask0">
  <g filter="url(#alpha)">
<rect x="0" y="0" width="96" height="80" style="fill:rgb(0%,0%,0%);fill-opacity:0.529412;stroke:none;"/>
  </g>
</mask>
<clipPath id="clip1">
  <rect x="0" y="0" width="96" height="80"/>
</clipPath>
<g id="surface5" clip-path="url(#clip1)">
<path style=" stroke:none;fill-rule:nonzero;fill:rgb(16.470588%,16.470588%,16.470588%);fill-opacity:1;" d="M 31.386719 59.464844 L 31.386719 58.660156 L 69.671875 58.660156 L 69.671875 59.464844 Z M 31.386719 54.0625 L 31.386719 53.253906 L 69.671875 53.253906 L 69.671875 54.0625 Z M 31.386719 49.300781 L 31.386719 48.496094 L 69.671875 48.496094 L 69.671875 49.300781 Z M 31.386719 49.300781 "/>
</g>
</defs>
<g id="surface1">
<path style=" stroke:none;fill-rule:nonzero;fill:rgb(100%,100%,100%);fill-opacity:1;" d="M 79.4375 78.863281 C 70.796875 80.777344 61.964844 78.984375 53.308594 78.117188 C 47.613281 77.546875 42.117188 78.324219 36.40625 78.746094 C 21.882812 79.816406 5.777344 77.929688 1.128906 64.414062 C -2.738281 53.152344 3.515625 36.4375 17 29.824219 C 21.664062 27.535156 26.410156 27.085938 31.042969 27.554688 C 33.824219 27.835938 36.929688 28.910156 39.925781 27.78125 C 43.085938 26.585938 45.421875 23.273438 47.558594 20.882812 C 50.738281 17.328125 54.097656 13.601562 58.363281 11.199219 C 68.148438 5.6875 73.96875 11.0625 76.90625 19.894531 C 78.335938 24.191406 79.09375 28.667969 80.246094 33.035156 C 81.878906 39.234375 85.417969 43.734375 89.410156 48.71875 C 92.960938 53.160156 96.285156 58.351562 95.710938 63.988281 C 95.0625 70.382812 89.34375 75.625 82.964844 77.863281 C 81.808594 78.265625 80.632812 78.601562 79.4375 78.863281 "/>
<path style="fill:none;stroke-width:1;stroke-linecap:round;stroke-linejoin:miter;stroke:rgb(85.490196%,3.137255%,12.54902%);stroke-opacity:1;stroke-miterlimit:10;" d="M 0.00142188 0.00270312 L 122.67232 0.00270312 " transform="matrix(0.571429,0,0,0.57554,15.632,73.967194)"/>
<path style=" stroke:none;fill-rule:nonzero;fill:rgb(40.392157%,3.529412%,9.803922%);fill-opacity:1;" d="M 77.734375 73.429688 C 77.734375 73.816406 65.621094 74.128906 50.679688 74.128906 C 35.738281 74.128906 23.625 73.816406 23.625 73.429688 C 23.625 73.046875 35.742188 72.734375 50.679688 72.734375 C 65.621094 72.734375 77.734375 73.046875 77.734375 73.429688 Z M 77.734375 73.429688 "/>
<path style=" stroke:none;fill-rule:nonzero;fill:rgb(85.098039%,1.568627%,12.156863%);fill-opacity:1;" d="M 26.960938 7.648438 L 76.011719 7.648438 L 76.011719 73.429688 L 26.960938 73.429688 Z M 26.960938 7.648438 "/>
<path style=" stroke:none;fill-rule:nonzero;fill:rgb(95.686275%,95.294118%,95.294118%);fill-opacity:1;" d="M 29.457031 9.277344 L 73.910156 9.277344 L 73.910156 71.269531 L 29.457031 71.269531 Z M 29.457031 9.277344 "/>
<path style=" stroke:none;fill-rule:nonzero;fill:rgb(86.666667%,87.058824%,87.058824%);fill-opacity:1;" d="M 73.898438 9.277344 C 73.910156 33.464844 74.722656 62.632812 71.898438 69.09375 C 59.4375 70.257812 44.859375 70.632812 29.457031 70.703125 L 35.3125 9.464844 Z M 73.898438 9.277344 "/>
<path style=" stroke:none;fill-rule:nonzero;fill:rgb(100%,99.607843%,96.078431%);fill-opacity:1;" d="M 69.914062 67.183594 C 50.609375 70.171875 37.707031 70.328125 27.242188 69.574219 C 28.597656 55.617188 29.140625 32.429688 29.6875 9.28125 L 52.953125 9.332031 L 74.007812 10.675781 C 74.3125 34.703125 74.347656 56.898438 69.914062 67.183594 Z M 69.914062 67.183594 "/>
<path style=" stroke:none;fill-rule:nonzero;fill:rgb(10.980392%,14.901961%,16.470588%);fill-opacity:1;" d="M 60.597656 6.980469 L 60.597656 11.496094 L 42.582031 11.496094 L 42.582031 6.980469 C 42.582031 6.289062 42.855469 5.625 43.339844 5.132812 C 43.398438 5.074219 43.457031 5.019531 43.523438 4.96875 C 43.984375 4.582031 44.570312 4.371094 45.171875 4.371094 C 45.628906 4.371094 46.082031 4.265625 46.496094 4.066406 C 46.671875 3.980469 46.835938 3.878906 46.992188 3.765625 C 47.519531 3.371094 47.90625 2.816406 48.097656 2.1875 C 48.492188 0.886719 49.679688 0 51.027344 0 L 52.152344 0 C 53.5 0 54.6875 0.886719 55.078125 2.1875 C 55.269531 2.820312 55.65625 3.371094 56.183594 3.765625 C 56.339844 3.878906 56.507812 3.980469 56.683594 4.066406 C 57.09375 4.265625 57.546875 4.371094 58.007812 4.371094 C 59.4375 4.371094 60.59375 5.539062 60.597656 6.980469 Z M 60.597656 6.980469 "/>
<path style=" stroke:none;fill-rule:nonzero;fill:rgb(86.666667%,87.058824%,87.058824%);fill-opacity:1;" d="M 62.058594 9.277344 L 62.058594 12.632812 L 41.117188 12.632812 L 41.117188 9.277344 L 42.582031 9.277344 L 42.582031 11.492188 L 60.597656 11.492188 L 60.597656 9.277344 Z M 62.058594 9.277344 "/>
<path style=" stroke:none;fill-rule:nonzero;fill:rgb(40.392157%,3.529412%,9.803922%);fill-opacity:1;" d="M 53.1875 2.707031 C 53.21875 3.367188 52.851562 3.976562 52.257812 4.253906 C 51.664062 4.527344 50.960938 4.414062 50.488281 3.957031 C 50.011719 3.503906 49.859375 2.804688 50.101562 2.191406 C 50.34375 1.582031 50.933594 1.179688 51.585938 1.179688 C 52.449219 1.15625 53.164062 1.839844 53.1875 2.707031 Z M 53.1875 2.707031 "/>
<path style=" stroke:none;fill-rule:nonzero;fill:rgb(20%,20%,20%);fill-opacity:1;" d="M 31.515625 19.628906 C 31.449219 18.917969 31.664062 18.207031 32.109375 17.648438 C 32.589844 17.214844 33.226562 17 33.871094 17.046875 C 34.144531 17.046875 34.417969 17.0625 34.6875 17.101562 C 34.914062 17.136719 35.140625 17.1875 35.363281 17.257812 L 35.128906 18.1875 C 34.914062 18.140625 34.71875 18.105469 34.535156 18.082031 C 34.351562 18.054688 34.167969 18.042969 33.980469 18.042969 C 33.730469 18.03125 33.476562 18.085938 33.25 18.191406 C 33.054688 18.300781 32.90625 18.476562 32.835938 18.6875 C 32.738281 18.988281 32.691406 19.304688 32.703125 19.621094 C 32.664062 20.019531 32.769531 20.421875 33 20.75 C 33.261719 20.984375 33.605469 21.101562 33.953125 21.070312 C 34.171875 21.066406 34.386719 21.050781 34.601562 21.019531 C 34.8125 20.992188 35.023438 20.949219 35.230469 20.894531 L 35.4375 21.820312 C 35.195312 21.894531 34.953125 21.949219 34.707031 21.992188 C 34.390625 22.039062 34.074219 22.0625 33.757812 22.058594 C 33.332031 22.070312 32.910156 21.992188 32.515625 21.820312 C 32.183594 21.660156 31.917969 21.386719 31.769531 21.046875 C 31.582031 20.597656 31.496094 20.113281 31.515625 19.628906 Z M 35.9375 21.988281 L 35.9375 16.839844 L 37.070312 16.839844 L 37.070312 18.5 C 37.242188 18.382812 37.433594 18.289062 37.628906 18.222656 C 37.816406 18.160156 38.011719 18.128906 38.207031 18.128906 C 38.507812 18.109375 38.804688 18.214844 39.027344 18.417969 C 39.222656 18.640625 39.324219 18.933594 39.304688 19.230469 L 39.304688 21.984375 L 38.167969 21.984375 L 38.167969 19.59375 C 38.179688 19.457031 38.136719 19.316406 38.050781 19.210938 C 37.960938 19.128906 37.84375 19.085938 37.722656 19.09375 C 37.613281 19.09375 37.503906 19.109375 37.398438 19.144531 C 37.292969 19.179688 37.183594 19.222656 37.070312 19.273438 L 37.070312 21.984375 Z M 39.804688 20.089844 C 39.792969 19.730469 39.851562 19.375 39.964844 19.039062 C 40.066406 18.753906 40.261719 18.515625 40.523438 18.367188 C 40.863281 18.195312 41.238281 18.117188 41.617188 18.136719 C 41.996094 18.113281 42.378906 18.195312 42.71875 18.367188 C 42.976562 18.515625 43.175781 18.753906 43.277344 19.039062 C 43.394531 19.375 43.449219 19.730469 43.441406 20.085938 C 43.449219 20.453125 43.390625 20.8125 43.269531 21.15625 C 43.164062 21.441406 42.960938 21.679688 42.699219 21.828125 C 42.363281 21.996094 41.992188 22.074219 41.621094 22.058594 C 41.25 22.074219 40.882812 21.996094 40.550781 21.828125 C 40.289062 21.679688 40.085938 21.441406 39.980469 21.15625 C 39.855469 20.8125 39.792969 20.453125 39.804688 20.085938 Z M 40.960938 20.089844 C 40.9375 20.386719 40.992188 20.683594 41.113281 20.953125 C 41.230469 21.113281 41.421875 21.199219 41.617188 21.183594 C 41.816406 21.199219 42.007812 21.113281 42.121094 20.953125 C 42.246094 20.683594 42.300781 20.386719 42.273438 20.089844 C 42.296875 19.796875 42.25 19.503906 42.132812 19.238281 C 42.015625 19.070312 41.820312 18.984375 41.617188 19.007812 C 41.417969 18.984375 41.222656 19.070312 41.105469 19.238281 C 40.988281 19.503906 40.941406 19.796875 40.960938 20.085938 Z M 43.8125 20.089844 C 43.804688 19.730469 43.859375 19.375 43.976562 19.039062 C 44.078125 18.753906 44.277344 18.515625 44.535156 18.367188 C 44.875 18.195312 45.25 18.117188 45.628906 18.136719 C 46.011719 18.117188 46.390625 18.195312 46.730469 18.367188 C 46.992188 18.515625 47.191406 18.753906 47.289062 19.039062 C 47.40625 19.375 47.460938 19.730469 47.453125 20.089844 C 47.460938 20.453125 47.402344 20.8125 47.28125 21.15625 C 47.175781 21.441406 46.972656 21.679688 46.710938 21.828125 C 46.375 21.996094 46.003906 22.074219 45.632812 22.058594 C 45.261719 22.074219 44.894531 21.996094 44.5625 21.828125 C 44.300781 21.679688 44.097656 21.441406 43.992188 21.15625 C 43.867188 20.8125 43.804688 20.453125 43.8125 20.085938 Z M 44.972656 20.089844 C 44.949219 20.386719 45 20.683594 45.125 20.953125 C 45.242188 21.113281 45.433594 21.199219 45.628906 21.183594 C 45.828125 21.199219 46.019531 21.113281 46.132812 20.953125 C 46.257812 20.683594 46.3125 20.386719 46.285156 20.089844 C 46.308594 19.796875 46.261719 19.503906 46.144531 19.238281 C 46.027344 19.070312 45.832031 18.984375 45.628906 19.007812 C 45.429688 18.984375 45.234375 19.070312 45.117188 19.238281 C 45 19.503906 44.953125 19.796875 44.972656 20.085938 Z M 47.730469 21.839844 L 47.855469 21.019531 C 47.984375 21.0625 48.113281 21.097656 48.246094 21.121094 C 48.398438 21.152344 48.550781 21.175781 48.703125 21.195312 C 48.84375 21.210938 48.988281 21.222656 49.128906 21.222656 C 49.480469 21.222656 49.652344 21.121094 49.652344 20.914062 C 49.652344 20.789062 49.570312 20.703125 49.398438 20.652344 C 49.226562 20.601562 49.003906 20.539062 48.722656 20.472656 C 48.457031 20.425781 48.210938 20.296875 48.019531 20.101562 C 47.855469 19.902344 47.769531 19.648438 47.78125 19.386719 C 47.78125 18.550781 48.304688 18.132812 49.34375 18.132812 C 49.5625 18.132812 49.78125 18.152344 50 18.1875 C 50.1875 18.214844 50.371094 18.265625 50.550781 18.328125 L 50.414062 19.164062 C 50.253906 19.113281 50.09375 19.070312 49.929688 19.042969 C 49.738281 19.011719 49.539062 18.996094 49.34375 18.996094 C 49.011719 18.996094 48.847656 19.09375 48.847656 19.285156 C 48.847656 19.398438 48.929688 19.496094 49.039062 19.515625 C 49.167969 19.554688 49.355469 19.601562 49.605469 19.65625 C 49.808594 19.699219 50.007812 19.761719 50.195312 19.847656 C 50.363281 19.925781 50.503906 20.046875 50.601562 20.199219 C 50.710938 20.382812 50.761719 20.59375 50.75 20.804688 C 50.765625 21.070312 50.6875 21.332031 50.527344 21.542969 C 50.371094 21.730469 50.164062 21.867188 49.933594 21.9375 C 49.664062 22.019531 49.386719 22.058594 49.109375 22.054688 C 48.871094 22.054688 48.632812 22.039062 48.394531 22.003906 C 48.167969 21.96875 47.945312 21.914062 47.730469 21.839844 Z M 52.878906 22.058594 C 52.386719 22.089844 51.902344 21.929688 51.519531 21.617188 C 51.160156 21.226562 50.984375 20.699219 51.039062 20.171875 C 51.019531 19.757812 51.101562 19.347656 51.28125 18.976562 C 51.429688 18.695312 51.667969 18.46875 51.957031 18.332031 C 52.257812 18.195312 52.589844 18.128906 52.921875 18.132812 C 53.367188 18.09375 53.808594 18.242188 54.140625 18.542969 C 54.4375 18.921875 54.574219 19.398438 54.53125 19.878906 C 54.53125 19.992188 54.527344 20.117188 54.519531 20.261719 L 53.921875 20.3125 C 53.679688 20.335938 53.414062 20.355469 53.121094 20.371094 C 52.828125 20.390625 52.527344 20.398438 52.214844 20.402344 C 52.207031 20.433594 52.207031 20.464844 52.207031 20.492188 C 52.191406 20.6875 52.269531 20.878906 52.417969 21.003906 C 52.617188 21.128906 52.855469 21.1875 53.089844 21.167969 C 53.296875 21.164062 53.503906 21.148438 53.710938 21.121094 C 53.929688 21.089844 54.152344 21.050781 54.371094 21 L 54.503906 21.820312 C 54.253906 21.898438 54 21.957031 53.742188 21.996094 C 53.457031 22.039062 53.167969 22.058594 52.878906 22.054688 Z M 52.210938 19.726562 C 52.460938 19.722656 52.695312 19.714844 52.914062 19.703125 C 53.136719 19.691406 53.300781 19.683594 53.40625 19.675781 C 53.417969 19.472656 53.367188 19.269531 53.261719 19.097656 C 53.15625 18.980469 53.007812 18.921875 52.851562 18.933594 C 52.699219 18.933594 52.550781 18.988281 52.4375 19.09375 C 52.289062 19.269531 52.210938 19.496094 52.210938 19.726562 Z M 58.078125 21.984375 L 58.078125 20.28125 L 56.414062 17.128906 L 57.730469 17.105469 L 58.667969 19.554688 L 59.59375 17.105469 L 60.898438 17.128906 L 59.246094 20.28125 L 59.246094 21.984375 Z M 60.359375 20.085938 C 60.351562 19.730469 60.40625 19.375 60.523438 19.039062 C 60.625 18.753906 60.824219 18.515625 61.082031 18.367188 C 61.421875 18.195312 61.796875 18.117188 62.175781 18.136719 C 62.558594 18.113281 62.9375 18.195312 63.277344 18.367188 C 63.539062 18.515625 63.734375 18.753906 63.835938 19.039062 C 63.953125 19.375 64.007812 19.730469 64 20.085938 C 64.007812 20.453125 63.949219 20.8125 63.824219 21.15625 C 63.71875 21.441406 63.515625 21.679688 63.253906 21.828125 C 62.917969 21.996094 62.546875 22.074219 62.175781 22.058594 C 61.804688 22.074219 61.4375 21.996094 61.105469 21.828125 C 60.84375 21.679688 60.640625 21.441406 60.535156 21.15625 C 60.410156 20.8125 60.351562 20.453125 60.359375 20.085938 Z M 61.519531 20.085938 C 61.492188 20.382812 61.546875 20.679688 61.671875 20.949219 C 61.785156 21.113281 61.976562 21.199219 62.175781 21.179688 C 62.371094 21.199219 62.5625 21.113281 62.679688 20.949219 C 62.800781 20.679688 62.855469 20.382812 62.832031 20.085938 C 62.851562 19.796875 62.804688 19.503906 62.6875 19.234375 C 62.570312 19.070312 62.375 18.980469 62.175781 19.003906 C 61.972656 18.980469 61.777344 19.070312 61.660156 19.234375 C 61.542969 19.503906 61.496094 19.796875 61.519531 20.085938 Z M 65.597656 22.054688 C 65.304688 22.070312 65.019531 21.96875 64.792969 21.777344 C 64.574219 21.546875 64.460938 21.234375 64.488281 20.914062 L 64.488281 18.203125 L 65.621094 18.203125 L 65.621094 20.644531 C 65.609375 20.773438 65.652344 20.898438 65.738281 20.996094 C 65.824219 21.074219 65.941406 21.117188 66.0625 21.109375 C 66.167969 21.109375 66.269531 21.09375 66.371094 21.0625 C 66.480469 21.023438 66.585938 20.980469 66.691406 20.929688 L 66.691406 18.203125 L 67.824219 18.203125 L 67.824219 20.8125 C 67.816406 20.886719 67.832031 20.964844 67.871094 21.03125 C 67.902344 21.070312 67.953125 21.089844 68.003906 21.085938 C 68.054688 21.089844 68.101562 21.074219 68.148438 21.054688 L 68.246094 21.875 C 68.144531 21.929688 68.039062 21.972656 67.925781 22.003906 C 67.796875 22.039062 67.660156 22.054688 67.527344 22.054688 C 67.378906 22.0625 67.230469 22.027344 67.097656 21.953125 C 66.984375 21.886719 66.894531 21.789062 66.828125 21.675781 C 66.640625 21.789062 66.445312 21.882812 66.238281 21.957031 C 66.03125 22.023438 65.816406 22.058594 65.597656 22.054688 Z M 69.597656 18.203125 L 69.597656 18.640625 C 69.753906 18.488281 69.925781 18.359375 70.113281 18.25 C 70.277344 18.167969 70.457031 18.128906 70.640625 18.132812 C 70.71875 18.132812 70.792969 18.140625 70.871094 18.148438 C 70.957031 18.164062 71.039062 18.183594 71.121094 18.207031 L 70.941406 19.238281 C 70.785156 19.195312 70.625 19.175781 70.464844 19.175781 C 70.339844 19.175781 70.21875 19.195312 70.101562 19.234375 C 69.957031 19.285156 69.820312 19.355469 69.699219 19.445312 L 69.699219 21.984375 L 68.574219 21.984375 L 68.574219 18.203125 Z M 35.246094 24.941406 L 35.03125 25.847656 C 34.890625 25.800781 34.742188 25.761719 34.597656 25.734375 C 34.425781 25.703125 34.253906 25.675781 34.082031 25.660156 C 33.90625 25.644531 33.738281 25.636719 33.582031 25.636719 C 33.367188 25.625 33.15625 25.667969 32.964844 25.761719 C 32.824219 25.828125 32.734375 25.972656 32.738281 26.128906 C 32.738281 26.214844 32.773438 26.300781 32.835938 26.359375 C 32.941406 26.449219 33.066406 26.515625 33.199219 26.554688 C 33.378906 26.617188 33.644531 26.695312 33.996094 26.785156 C 34.304688 26.859375 34.601562 26.972656 34.882812 27.121094 C 35.074219 27.222656 35.230469 27.375 35.335938 27.566406 C 35.425781 27.761719 35.472656 27.976562 35.464844 28.195312 C 35.480469 28.636719 35.273438 29.050781 34.914062 29.300781 C 34.429688 29.601562 33.863281 29.742188 33.296875 29.703125 C 33.113281 29.703125 32.910156 29.695312 32.691406 29.671875 C 32.464844 29.652344 32.242188 29.617188 32.019531 29.574219 C 31.804688 29.527344 31.59375 29.46875 31.386719 29.394531 L 31.609375 28.496094 C 31.90625 28.59375 32.210938 28.667969 32.523438 28.71875 C 32.800781 28.765625 33.082031 28.792969 33.363281 28.792969 C 33.597656 28.8125 33.832031 28.765625 34.042969 28.65625 C 34.171875 28.578125 34.253906 28.4375 34.253906 28.289062 C 34.25 28.1875 34.199219 28.09375 34.113281 28.042969 C 33.96875 27.957031 33.8125 27.886719 33.652344 27.84375 C 33.433594 27.773438 33.140625 27.683594 32.765625 27.578125 C 32.5 27.503906 32.242188 27.390625 32.007812 27.238281 C 31.84375 27.125 31.710938 26.96875 31.625 26.789062 C 31.546875 26.597656 31.511719 26.390625 31.515625 26.1875 C 31.511719 25.917969 31.589844 25.652344 31.734375 25.425781 C 31.902344 25.183594 32.136719 24.996094 32.410156 24.894531 C 32.78125 24.75 33.175781 24.683594 33.574219 24.699219 C 33.785156 24.699219 34 24.710938 34.210938 24.734375 C 34.421875 24.753906 34.617188 24.785156 34.796875 24.824219 C 34.949219 24.851562 35.097656 24.890625 35.246094 24.941406 Z M 36.984375 29.707031 C 36.691406 29.71875 36.402344 29.621094 36.179688 29.425781 C 35.957031 29.199219 35.847656 28.882812 35.871094 28.5625 L 35.871094 25.851562 L 37.007812 25.851562 L 37.007812 28.292969 C 36.996094 28.421875 37.039062 28.546875 37.125 28.644531 C 37.210938 28.722656 37.328125 28.765625 37.449219 28.757812 C 37.550781 28.757812 37.65625 28.742188 37.753906 28.710938 C 37.867188 28.671875 37.972656 28.628906 38.078125 28.578125 L 38.078125 25.851562 L 39.207031 25.851562 L 39.207031 28.460938 C 39.199219 28.535156 39.21875 28.613281 39.257812 28.679688 C 39.289062 28.71875 39.339844 28.738281 39.386719 28.738281 C 39.4375 28.738281 39.488281 28.726562 39.535156 28.703125 L 39.628906 29.523438 C 39.53125 29.578125 39.421875 29.621094 39.3125 29.652344 C 39.183594 29.6875 39.046875 29.707031 38.914062 29.703125 C 38.761719 29.710938 38.617188 29.675781 38.484375 29.605469 C 38.371094 29.535156 38.28125 29.4375 38.214844 29.324219 C 38.027344 29.4375 37.832031 29.53125 37.625 29.605469 C 37.417969 29.671875 37.203125 29.707031 36.984375 29.707031 Z M 39.960938 29.636719 L 39.960938 25.851562 L 40.984375 25.851562 L 40.984375 26.179688 C 41.328125 25.9375 41.730469 25.804688 42.148438 25.789062 C 42.332031 25.78125 42.511719 25.820312 42.679688 25.898438 C 42.8125 25.96875 42.925781 26.078125 43 26.214844 C 43.203125 26.085938 43.417969 25.976562 43.640625 25.890625 C 43.84375 25.816406 44.0625 25.78125 44.277344 25.78125 C 44.5625 25.761719 44.84375 25.875 45.039062 26.089844 C 45.210938 26.308594 45.300781 26.585938 45.289062 26.867188 L 45.289062 29.636719 L 44.160156 29.636719 L 44.160156 27.242188 C 44.164062 27.117188 44.132812 26.992188 44.070312 26.886719 C 43.996094 26.785156 43.875 26.730469 43.753906 26.742188 C 43.648438 26.742188 43.546875 26.761719 43.449219 26.800781 C 43.355469 26.835938 43.261719 26.878906 43.171875 26.925781 C 43.179688 26.964844 43.1875 27.003906 43.1875 27.042969 C 43.191406 27.078125 43.191406 27.117188 43.191406 27.15625 L 43.191406 29.640625 L 42.0625 29.640625 L 42.0625 27.242188 C 42.066406 27.121094 42.03125 26.996094 41.96875 26.894531 C 41.894531 26.792969 41.769531 26.738281 41.644531 26.75 C 41.550781 26.75 41.457031 26.765625 41.367188 26.800781 C 41.273438 26.832031 41.183594 26.875 41.09375 26.925781 L 41.09375 29.636719 Z M 47.820312 29.636719 L 47.820312 24.769531 L 48.984375 24.769531 L 48.984375 29.636719 Z M 49.648438 29.636719 L 49.648438 25.851562 L 50.667969 25.851562 L 50.667969 26.179688 C 50.867188 26.058594 51.078125 25.957031 51.296875 25.878906 C 51.5 25.8125 51.707031 25.78125 51.921875 25.78125 C 52.222656 25.757812 52.523438 25.867188 52.746094 26.078125 C 52.933594 26.296875 53.03125 26.578125 53.019531 26.867188 L 53.019531 29.636719 L 51.886719 29.636719 L 51.886719 27.242188 C 51.898438 27.105469 51.855469 26.964844 51.769531 26.859375 C 51.679688 26.773438 51.558594 26.726562 51.4375 26.734375 C 51.328125 26.734375 51.21875 26.753906 51.113281 26.789062 C 51 26.828125 50.890625 26.871094 50.78125 26.925781 L 50.78125 29.636719 Z M 53.464844 29.488281 L 53.589844 28.667969 C 53.71875 28.710938 53.851562 28.746094 53.984375 28.769531 C 54.136719 28.800781 54.289062 28.824219 54.441406 28.84375 C 54.582031 28.859375 54.722656 28.871094 54.867188 28.871094 C 55.214844 28.871094 55.390625 28.769531 55.390625 28.5625 C 55.390625 28.4375 55.304688 28.351562 55.136719 28.300781 C 54.964844 28.25 54.742188 28.1875 54.460938 28.121094 C 54.195312 28.074219 53.949219 27.945312 53.761719 27.75 C 53.59375 27.550781 53.507812 27.296875 53.523438 27.035156 C 53.523438 26.199219 54.042969 25.785156 55.082031 25.785156 C 55.304688 25.78125 55.523438 25.800781 55.738281 25.835938 C 55.925781 25.867188 56.113281 25.914062 56.292969 25.980469 L 56.152344 26.8125 C 55.996094 26.761719 55.832031 26.722656 55.671875 26.691406 C 55.476562 26.660156 55.28125 26.644531 55.082031 26.644531 C 54.753906 26.644531 54.585938 26.742188 54.585938 26.933594 C 54.585938 27.046875 54.667969 27.144531 54.78125 27.164062 C 54.90625 27.203125 55.097656 27.25 55.347656 27.308594 C 55.550781 27.347656 55.746094 27.410156 55.9375 27.5 C 56.101562 27.574219 56.242188 27.695312 56.34375 27.847656 C 56.449219 28.03125 56.5 28.242188 56.492188 28.453125 C 56.507812 28.71875 56.425781 28.980469 56.265625 29.195312 C 56.109375 29.382812 55.902344 29.519531 55.671875 29.589844 C 55.402344 29.667969 55.125 29.710938 54.847656 29.707031 C 54.609375 29.707031 54.371094 29.6875 54.132812 29.652344 C 53.90625 29.617188 53.683594 29.5625 53.46875 29.488281 Z M 58.007812 29.707031 C 57.714844 29.71875 57.429688 29.621094 57.207031 29.425781 C 56.984375 29.199219 56.871094 28.882812 56.898438 28.5625 L 56.898438 25.851562 L 58.03125 25.851562 L 58.03125 28.292969 C 58.019531 28.421875 58.0625 28.546875 58.148438 28.644531 C 58.238281 28.722656 58.355469 28.765625 58.472656 28.757812 C 58.578125 28.757812 58.679688 28.742188 58.78125 28.710938 C 58.890625 28.671875 58.996094 28.628906 59.101562 28.578125 L 59.101562 25.851562 L 60.234375 25.851562 L 60.234375 28.460938 C 60.226562 28.535156 60.242188 28.613281 60.28125 28.679688 C 60.316406 28.71875 60.363281 28.738281 60.414062 28.738281 C 60.464844 28.738281 60.515625 28.726562 60.558594 28.703125 L 60.65625 29.523438 C 60.554688 29.578125 60.449219 29.621094 60.339844 29.652344 C 60.207031 29.6875 60.074219 29.707031 59.9375 29.703125 C 59.789062 29.710938 59.640625 29.675781 59.511719 29.605469 C 59.398438 29.535156 59.304688 29.4375 59.242188 29.324219 C 59.054688 29.4375 58.855469 29.53125 58.652344 29.605469 C 58.445312 29.671875 58.226562 29.707031 58.007812 29.707031 Z M 62.007812 25.851562 L 62.007812 26.289062 C 62.164062 26.140625 62.335938 26.007812 62.523438 25.902344 C 62.6875 25.820312 62.867188 25.777344 63.050781 25.78125 C 63.128906 25.785156 63.203125 25.789062 63.28125 25.800781 C 63.367188 25.8125 63.449219 25.832031 63.53125 25.859375 L 63.351562 26.886719 C 63.199219 26.847656 63.039062 26.824219 62.875 26.824219 C 62.753906 26.824219 62.628906 26.84375 62.511719 26.882812 C 62.367188 26.929688 62.234375 27.003906 62.109375 27.09375 L 62.109375 29.632812 L 60.984375 29.632812 L 60.984375 25.851562 Z M 65.394531 29.707031 C 64.902344 29.738281 64.414062 29.578125 64.03125 29.265625 C 63.675781 28.875 63.5 28.347656 63.550781 27.820312 C 63.53125 27.410156 63.617188 27 63.792969 26.628906 C 63.941406 26.34375 64.179688 26.117188 64.464844 25.980469 C 64.769531 25.84375 65.101562 25.777344 65.433594 25.785156 C 65.878906 25.746094 66.320312 25.894531 66.652344 26.195312 C 66.945312 26.574219 67.085938 27.050781 67.042969 27.527344 C 67.042969 27.640625 67.039062 27.769531 67.027344 27.910156 L 66.429688 27.964844 C 66.1875 27.984375 65.921875 28.003906 65.628906 28.023438 C 65.339844 28.039062 65.035156 28.050781 64.722656 28.054688 C 64.71875 28.082031 64.714844 28.113281 64.714844 28.144531 C 64.699219 28.339844 64.777344 28.527344 64.925781 28.65625 C 65.128906 28.78125 65.363281 28.835938 65.601562 28.816406 C 65.808594 28.816406 66.015625 28.800781 66.222656 28.773438 C 66.441406 28.742188 66.664062 28.703125 66.882812 28.652344 L 67.015625 29.472656 C 66.769531 29.550781 66.515625 29.609375 66.257812 29.648438 C 65.96875 29.6875 65.679688 29.707031 65.390625 29.707031 Z M 64.722656 27.375 C 64.972656 27.371094 65.207031 27.363281 65.429688 27.351562 C 65.648438 27.339844 65.8125 27.332031 65.917969 27.328125 C 65.929688 27.125 65.878906 26.921875 65.773438 26.746094 C 65.671875 26.628906 65.519531 26.570312 65.367188 26.582031 C 65.210938 26.582031 65.066406 26.640625 64.953125 26.742188 C 64.804688 26.917969 64.722656 27.144531 64.722656 27.375 Z M 69.9375 29.644531 L 69.804688 29.355469 C 69.46875 29.578125 69.074219 29.699219 68.671875 29.699219 C 68.292969 29.714844 67.933594 29.53125 67.722656 29.214844 C 67.472656 28.789062 67.359375 28.300781 67.386719 27.808594 C 67.34375 27.261719 67.503906 26.71875 67.832031 26.277344 C 68.191406 25.917969 68.691406 25.734375 69.199219 25.777344 C 69.398438 25.777344 69.59375 25.792969 69.792969 25.828125 L 69.792969 24.488281 L 70.929688 24.488281 L 70.929688 29.644531 Z M 69.792969 28.566406 L 69.792969 26.6875 C 69.703125 26.660156 69.613281 26.640625 69.523438 26.628906 C 69.441406 26.617188 69.355469 26.613281 69.273438 26.613281 C 69.066406 26.59375 68.863281 26.6875 68.738281 26.851562 C 68.601562 27.113281 68.542969 27.410156 68.566406 27.703125 C 68.546875 27.980469 68.597656 28.261719 68.710938 28.515625 C 68.789062 28.667969 68.949219 28.765625 69.121094 28.761719 C 69.355469 28.75 69.585938 28.683594 69.789062 28.566406 Z M 69.792969 28.566406 "/>
<path style=" stroke:none;fill-rule:nonzero;fill:rgb(100%,100%,100%);fill-opacity:1;" d="M 31.648438 33.839844 L 71.332031 33.839844 C 71.960938 33.839844 72.472656 34.355469 72.472656 34.992188 L 72.472656 42.636719 C 72.472656 43.269531 71.960938 43.785156 71.332031 43.785156 L 31.648438 43.785156 C 31.019531 43.785156 30.507812 43.269531 30.507812 42.636719 L 30.507812 34.992188 C 30.507812 34.355469 31.019531 33.839844 31.648438 33.839844 Z M 31.648438 33.839844 "/>
<path style="fill:none;stroke-width:0.5;stroke-linecap:butt;stroke-linejoin:miter;stroke:rgb(75.686275%,75.686275%,75.686275%);stroke-opacity:1;stroke-miterlimit:4;" d="M 1.998766 0.250852 L 71.445055 0.250852 C 72.408922 0.250852 73.195055 1.031369 73.195055 2.001926 L 73.195055 15.284299 C 73.195055 16.248068 72.408922 17.028586 71.445055 17.028586 L 1.998766 17.028586 C 1.034898 17.028586 0.248766 16.248068 0.248766 15.284299 L 0.248766 2.001926 C 0.248766 1.031369 1.034898 0.250852 1.998766 0.250852 Z M 1.998766 0.250852 " transform="matrix(0.571429,0,0,0.57554,30.506286,33.84)"/>
<path style=" stroke:none;fill-rule:nonzero;fill:rgb(40%,40%,40%);fill-opacity:1;" d="M 65.089844 38.476562 L 66.769531 40.167969 L 68.453125 38.476562 Z M 65.089844 38.476562 "/>
<path style=" stroke:none;fill-rule:nonzero;fill:rgb(20%,20%,20%);fill-opacity:1;" d="M 32.292969 41.667969 L 32.292969 40.632812 L 33.730469 40.632812 L 33.730469 37.605469 L 32.429688 38.148438 L 32.160156 37.050781 L 34.367188 36.183594 L 35.019531 36.183594 L 35.019531 40.636719 L 36.230469 40.636719 L 36.230469 41.671875 Z M 36.789062 38.929688 C 36.765625 38.351562 36.859375 37.773438 37.070312 37.234375 C 37.226562 36.859375 37.507812 36.554688 37.863281 36.367188 C 38.242188 36.191406 38.652344 36.101562 39.066406 36.113281 C 39.484375 36.101562 39.898438 36.191406 40.277344 36.371094 C 40.632812 36.558594 40.914062 36.867188 41.066406 37.242188 C 41.273438 37.78125 41.367188 38.355469 41.34375 38.929688 C 41.367188 39.503906 41.269531 40.078125 41.054688 40.613281 C 40.898438 40.988281 40.617188 41.300781 40.257812 41.488281 C 39.886719 41.667969 39.476562 41.757812 39.066406 41.746094 C 38.652344 41.757812 38.242188 41.667969 37.867188 41.488281 C 37.511719 41.300781 37.230469 40.988281 37.074219 40.613281 C 36.863281 40.078125 36.765625 39.503906 36.789062 38.929688 Z M 38.097656 38.96875 C 38.082031 39.347656 38.125 39.726562 38.222656 40.09375 C 38.277344 40.300781 38.398438 40.480469 38.570312 40.605469 C 38.878906 40.78125 39.257812 40.78125 39.566406 40.605469 C 39.734375 40.480469 39.859375 40.300781 39.90625 40.09375 C 40.003906 39.726562 40.046875 39.347656 40.03125 38.96875 C 40.039062 38.648438 40.011719 38.324219 39.957031 38.007812 C 39.925781 37.808594 39.859375 37.621094 39.757812 37.449219 C 39.683594 37.332031 39.578125 37.242188 39.449219 37.191406 C 39.328125 37.144531 39.199219 37.121094 39.070312 37.125 C 38.9375 37.121094 38.808594 37.144531 38.683594 37.191406 C 38.558594 37.242188 38.449219 37.335938 38.378906 37.453125 C 38.273438 37.625 38.203125 37.8125 38.171875 38.011719 C 38.117188 38.328125 38.089844 38.648438 38.097656 38.96875 Z M 44.039062 41.667969 L 44.039062 36.191406 L 45.359375 36.191406 L 45.359375 40.511719 L 47.800781 40.511719 L 47.800781 41.667969 Z M 48.207031 40.488281 C 48.1875 40.1875 48.289062 39.890625 48.492188 39.667969 C 48.738281 39.457031 49.035156 39.320312 49.351562 39.269531 C 49.832031 39.175781 50.320312 39.113281 50.8125 39.085938 L 50.8125 38.929688 C 50.816406 38.761719 50.726562 38.605469 50.578125 38.523438 C 50.378906 38.417969 50.15625 38.371094 49.933594 38.382812 C 49.742188 38.382812 49.554688 38.398438 49.367188 38.425781 C 49.121094 38.460938 48.878906 38.515625 48.644531 38.59375 L 48.433594 37.597656 C 48.691406 37.515625 48.957031 37.453125 49.230469 37.40625 C 49.488281 37.359375 49.753906 37.335938 50.019531 37.332031 C 50.53125 37.292969 51.042969 37.433594 51.460938 37.738281 C 51.78125 38.042969 51.953125 38.476562 51.921875 38.921875 L 51.921875 40.246094 C 51.910156 40.367188 51.933594 40.484375 51.992188 40.589844 C 52.035156 40.648438 52.101562 40.679688 52.171875 40.675781 C 52.199219 40.675781 52.226562 40.675781 52.257812 40.667969 C 52.285156 40.664062 52.316406 40.65625 52.34375 40.644531 L 52.421875 41.566406 C 52.324219 41.621094 52.222656 41.664062 52.117188 41.695312 C 51.988281 41.730469 51.855469 41.75 51.71875 41.746094 C 51.535156 41.753906 51.347656 41.707031 51.1875 41.609375 C 51.042969 41.5 50.941406 41.34375 50.898438 41.167969 C 50.695312 41.335938 50.472656 41.472656 50.234375 41.578125 C 49.957031 41.695312 49.652344 41.753906 49.351562 41.746094 C 49.027344 41.765625 48.714844 41.632812 48.503906 41.390625 C 48.300781 41.132812 48.195312 40.8125 48.207031 40.488281 Z M 49.320312 40.394531 C 49.304688 40.542969 49.351562 40.6875 49.453125 40.800781 C 49.542969 40.886719 49.667969 40.929688 49.792969 40.925781 C 49.972656 40.921875 50.148438 40.890625 50.316406 40.828125 C 50.5 40.765625 50.667969 40.664062 50.8125 40.535156 L 50.8125 39.742188 C 50.496094 39.757812 50.226562 39.78125 50.003906 39.8125 C 49.824219 39.832031 49.648438 39.890625 49.496094 39.988281 C 49.371094 40.085938 49.304688 40.238281 49.316406 40.394531 Z M 56.476562 41.746094 C 56.347656 41.75 56.21875 41.730469 56.09375 41.691406 C 55.941406 41.636719 55.796875 41.558594 55.664062 41.460938 C 55.449219 41.300781 55.242188 41.132812 55.046875 40.953125 L 53.941406 39.964844 L 53.941406 41.667969 L 52.886719 41.667969 L 52.886719 35.878906 L 53.941406 35.878906 L 53.941406 38.367188 L 54.507812 38.890625 C 54.75 38.667969 54.972656 38.425781 55.179688 38.167969 C 55.371094 37.921875 55.511719 37.640625 55.589844 37.339844 L 56.6875 37.417969 C 56.609375 37.679688 56.492188 37.925781 56.34375 38.152344 C 56.183594 38.402344 56.003906 38.640625 55.8125 38.867188 C 55.613281 39.101562 55.410156 39.324219 55.203125 39.53125 L 55.292969 39.617188 C 55.558594 39.863281 55.773438 40.054688 55.941406 40.1875 C 56.066406 40.292969 56.207031 40.386719 56.355469 40.464844 C 56.453125 40.511719 56.554688 40.539062 56.664062 40.542969 C 56.675781 40.542969 56.6875 40.542969 56.703125 40.539062 C 56.71875 40.535156 56.738281 40.535156 56.757812 40.535156 L 56.773438 41.722656 C 56.675781 41.738281 56.574219 41.746094 56.476562 41.746094 Z M 57.238281 41.667969 L 57.238281 35.878906 L 58.511719 35.878906 L 58.511719 37.746094 C 58.707031 37.617188 58.921875 37.511719 59.144531 37.433594 C 59.355469 37.367188 59.574219 37.332031 59.792969 37.332031 C 60.132812 37.308594 60.464844 37.425781 60.714844 37.65625 C 60.9375 37.90625 61.050781 38.234375 61.03125 38.570312 L 61.03125 41.667969 L 59.746094 41.667969 L 59.746094 38.976562 C 59.761719 38.820312 59.714844 38.667969 59.613281 38.546875 C 59.515625 38.453125 59.382812 38.40625 59.25 38.414062 C 59.125 38.414062 59.003906 38.433594 58.882812 38.472656 C 58.765625 38.507812 58.640625 38.558594 58.511719 38.617188 L 58.511719 41.667969 Z M 57.238281 41.667969 "/>
<use xlink:href="#surface5" mask="url(#mask0)"/>
<path style=" stroke:none;fill-rule:nonzero;fill:rgb(90.980392%,51.764706%,35.294118%);fill-opacity:1;" d="M 70.023438 67.03125 L 69.539062 66.226562 C 69.539062 66.226562 67.863281 66.839844 65.300781 64.988281 L 58.050781 60.058594 C 57.808594 59.90625 57.59375 59.707031 57.421875 59.472656 C 57.101562 58.945312 57.097656 58.285156 57.40625 57.753906 C 57.773438 57.332031 58.347656 57.15625 58.882812 57.308594 C 59.398438 57.410156 59.878906 57.636719 60.289062 57.96875 L 62.074219 59.0625 L 62.863281 59.488281 L 58.921875 52.933594 L 55.398438 47.03125 C 55.179688 46.671875 55.054688 46.257812 55.039062 45.835938 L 55.039062 45.800781 C 55.035156 45.339844 55.261719 44.910156 55.640625 44.652344 C 55.742188 44.582031 55.851562 44.519531 55.964844 44.464844 C 56.328125 44.296875 56.746094 44.304688 57.101562 44.488281 C 57.410156 44.648438 57.667969 44.890625 57.847656 45.1875 L 60.222656 49.128906 L 64.667969 56.640625 C 64.667969 56.640625 63.066406 53.878906 62.972656 53.347656 C 62.972656 53.347656 62.742188 51.972656 63.691406 51.535156 C 64.261719 51.1875 64.984375 51.226562 65.507812 51.636719 C 65.507812 51.636719 65.914062 51.785156 66.820312 53.371094 L 67.691406 54.832031 C 67.136719 53.972656 66.640625 53.074219 66.207031 52.148438 C 66.058594 51.5 66.347656 50.832031 66.914062 50.492188 C 67.460938 50.21875 68.113281 50.285156 68.59375 50.664062 C 68.59375 50.664062 68.746094 50.632812 69.210938 51.40625 L 70.210938 52.980469 C 69.828125 52.421875 69.496094 51.832031 69.214844 51.214844 C 69.214844 51.214844 69.042969 50.1875 69.628906 49.832031 C 69.960938 49.46875 70.492188 49.371094 70.925781 49.597656 C 70.925781 49.597656 71.445312 49.613281 72.003906 50.628906 L 74.640625 55.390625 C 74.640625 55.390625 76.738281 59.484375 76.171875 62.125 L 76.667969 62.976562 Z M 70.023438 67.03125 "/>
<path style=" stroke:none;fill-rule:nonzero;fill:rgb(94.509804%,94.509804%,94.901961%);fill-opacity:1;" d="M 57.972656 58.160156 C 57.972656 58.160156 57.292969 58.238281 57.429688 58.871094 C 57.445312 59.15625 57.617188 59.410156 57.875 59.527344 L 59.210938 60.414062 C 59.332031 60.496094 59.484375 60.527344 59.625 60.492188 C 59.769531 60.460938 59.894531 60.371094 59.96875 60.242188 L 59.980469 60.222656 C 60.105469 59.9375 60.097656 59.613281 59.957031 59.339844 C 59.957031 59.339844 59.875 59.050781 59.265625 58.714844 C 58.863281 58.46875 58.425781 58.28125 57.972656 58.160156 Z M 57.972656 58.160156 "/>
<path style=" stroke:none;fill-rule:nonzero;fill:rgb(85.490196%,3.137255%,12.54902%);fill-opacity:1;" d="M 71.328125 71.964844 L 71.34375 71.953125 L 76.292969 68.9375 L 80.597656 66.316406 L 84.683594 73.84375 L 81.21875 73.917969 L 72.523438 73.917969 Z M 71.328125 71.964844 "/>
<path style=" stroke:none;fill-rule:nonzero;fill:rgb(40.392157%,3.529412%,9.803922%);fill-opacity:1;" d="M 79.285156 73.917969 L 72.523438 73.917969 L 71.34375 71.953125 L 76.292969 68.9375 Z M 79.285156 73.917969 "/>
<path style=" stroke:none;fill-rule:nonzero;fill:rgb(65.098039%,4.313725%,12.54902%);fill-opacity:1;" d="M 68.5625 67.628906 L 78.066406 61.835938 C 78.3125 61.6875 78.628906 61.765625 78.777344 62.011719 L 81.027344 65.761719 C 81.175781 66.007812 81.097656 66.328125 80.855469 66.476562 L 71.347656 72.269531 C 71.105469 72.417969 70.785156 72.339844 70.636719 72.09375 L 68.386719 68.34375 C 68.238281 68.097656 68.316406 67.777344 68.5625 67.628906 Z M 68.5625 67.628906 "/>
<path style=" stroke:none;fill-rule:nonzero;fill:rgb(94.509804%,94.509804%,94.901961%);fill-opacity:1;" d="M 57.917969 46.207031 L 56.085938 47.28125 L 55.53125 46.28125 C 55.363281 45.839844 55.535156 45.339844 55.9375 45.097656 C 56.308594 44.847656 56.785156 44.832031 57.167969 45.058594 C 57.375 45.25 57.539062 45.484375 57.648438 45.746094 Z M 57.917969 46.207031 "/>
<path style=" stroke:none;fill-rule:nonzero;fill:rgb(86.27451%,61.568627%,46.27451%);fill-opacity:1;" d="M 22.800781 43.339844 C 21.628906 45.699219 19.949219 47.761719 17.886719 49.386719 L 17.996094 43.40625 Z M 22.800781 43.339844 "/>
<path style=" stroke:none;fill-rule:nonzero;fill:rgb(90.980392%,51.764706%,35.294118%);fill-opacity:1;" d="M 14.703125 50.101562 L 16.097656 43.941406 C 16.199219 43.605469 16.339844 43.277344 16.511719 42.96875 C 16.808594 42.445312 17.28125 42.046875 17.84375 41.84375 L 25.25 39.160156 L 23.429688 43.066406 L 19.671875 44.226562 C 19.671875 44.226562 19.167969 44.386719 19.226562 45.546875 L 19.15625 48.621094 C 19.125 49.699219 19.789062 50.675781 20.796875 51.042969 C 20.976562 51.109375 21.164062 51.148438 21.359375 51.15625 L 18.109375 55.582031 L 15.660156 52.949219 C 15.660156 52.949219 14.363281 51.691406 14.703125 50.101562 Z M 14.703125 50.101562 "/>
<path style=" stroke:none;fill-rule:nonzero;fill:rgb(40.392157%,3.529412%,9.803922%);fill-opacity:1;" d="M 18.363281 74.128906 L 18.351562 63.125 L 22.886719 63.121094 L 28.097656 63.113281 L 28.117188 63.113281 L 28.121094 74.128906 Z M 18.363281 74.128906 "/>
<path style=" stroke:none;fill-rule:nonzero;fill:rgb(85.490196%,3.137255%,12.54902%);fill-opacity:1;" d="M 22.890625 63.117188 L 28.105469 63.117188 L 28.105469 74.128906 L 22.890625 74.128906 Z M 22.890625 63.117188 "/>
<path style=" stroke:none;fill-rule:nonzero;fill:rgb(90.980392%,51.764706%,35.294118%);fill-opacity:1;" d="M 23.378906 49.097656 C 23.789062 48.003906 23.992188 46.84375 23.976562 45.671875 L 23.882812 42.667969 C 23.914062 42.050781 24.273438 41.496094 24.824219 41.21875 C 24.867188 41.195312 24.914062 41.179688 24.960938 41.167969 C 25.632812 40.992188 26.347656 41.152344 26.882812 41.601562 C 26.960938 41.675781 27.023438 41.765625 27.0625 41.871094 C 27.234375 42.410156 27.308594 42.980469 27.28125 43.546875 L 27.601562 51.722656 C 27.589844 52.886719 27.449219 54.046875 27.179688 55.179688 C 27.175781 55.203125 27.167969 55.222656 27.164062 55.246094 C 27.039062 55.925781 26.859375 56.59375 26.625 57.246094 C 26.585938 57.339844 26.5625 57.4375 26.5625 57.539062 L 26.558594 58.773438 C 26.558594 58.792969 26.542969 58.808594 26.523438 58.808594 L 20.003906 58.808594 L 20.003906 58.085938 C 20.003906 57.914062 19.941406 57.742188 19.828125 57.613281 L 18.097656 55.597656 L 21.121094 51.480469 C 21.191406 51.386719 21.273438 51.265625 21.347656 51.171875 C 21.410156 51.082031 22.308594 51.726562 23.378906 49.097656 Z M 23.378906 49.097656 "/>
<path style=" stroke:none;fill-rule:nonzero;fill:rgb(94.509804%,94.509804%,94.901961%);fill-opacity:1;" d="M 26.832031 43.941406 L 24.429688 43.894531 L 24.480469 42.59375 C 24.578125 42.066406 25.035156 41.683594 25.566406 41.6875 C 26.070312 41.664062 26.542969 41.933594 26.78125 42.382812 C 26.871094 42.691406 26.890625 43.015625 26.84375 43.332031 Z M 26.832031 43.941406 "/>
<path style=" stroke:none;fill-rule:nonzero;fill:rgb(65.098039%,4.313725%,12.54902%);fill-opacity:1;" d="M 18.277344 58.484375 L 28.183594 58.472656 C 28.46875 58.472656 28.703125 58.707031 28.703125 58.992188 L 28.707031 62.839844 C 28.707031 63.125 28.476562 63.359375 28.191406 63.359375 L 18.28125 63.371094 C 17.996094 63.371094 17.765625 63.136719 17.765625 62.851562 L 17.761719 59.003906 C 17.761719 58.71875 17.992188 58.484375 18.277344 58.484375 Z M 18.277344 58.484375 "/>
<path style=" stroke:none;fill-rule:nonzero;fill:rgb(85.098039%,1.568627%,12.156863%);fill-opacity:1;" d="M 31.574219 64.523438 C 31.574219 64.839844 31.699219 65.144531 31.921875 65.371094 C 32.148438 65.59375 32.449219 65.722656 32.765625 65.722656 L 33.835938 65.722656 L 34.632812 65.714844 C 34.5 65.613281 34.316406 65.472656 34.214844 65.375 C 33.867188 65.078125 33.65625 64.648438 33.625 64.191406 C 33.601562 63.875 33.757812 63.574219 34.027344 63.410156 C 34.371094 63.207031 34.808594 63.289062 35.058594 63.605469 L 35.144531 63.714844 L 35.199219 63.640625 C 35.378906 63.398438 35.675781 63.273438 35.972656 63.316406 C 36.269531 63.359375 36.515625 63.5625 36.621094 63.84375 C 36.71875 64.121094 36.699219 64.425781 36.5625 64.6875 C 36.4375 64.957031 36.230469 65.179688 35.976562 65.328125 C 35.609375 65.558594 35.230469 65.769531 34.859375 66 C 34.695312 66.09375 34.542969 66.203125 34.382812 66.304688 C 34.175781 66.429688 34.035156 66.636719 33.992188 66.875 C 33.960938 67.027344 33.972656 67.183594 34.015625 67.332031 C 34.058594 67.449219 34.121094 67.554688 34.199219 67.652344 L 34.207031 67.664062 C 34.234375 67.691406 34.257812 67.722656 34.285156 67.75 C 34.625 68.09375 35.136719 68.195312 35.582031 68.011719 C 36.027344 67.824219 36.316406 67.386719 36.316406 66.902344 L 36.316406 65.820312 C 36.316406 65.765625 36.363281 65.722656 36.417969 65.71875 L 37.488281 65.71875 C 38.136719 65.707031 38.652344 65.171875 38.652344 64.519531 C 38.652344 63.867188 38.136719 63.335938 37.488281 63.320312 L 36.417969 63.320312 C 36.390625 63.320312 36.363281 63.3125 36.347656 63.292969 C 36.328125 63.273438 36.316406 63.25 36.316406 63.222656 L 36.316406 62.144531 C 36.304688 61.492188 35.773438 60.96875 35.125 60.96875 C 34.480469 60.96875 33.949219 61.492188 33.9375 62.144531 L 33.9375 63.222656 C 33.9375 63.25 33.925781 63.273438 33.90625 63.292969 C 33.886719 63.3125 33.863281 63.320312 33.835938 63.320312 L 32.765625 63.320312 C 32.109375 63.324219 31.578125 63.859375 31.574219 64.519531 Z M 31.574219 64.523438 "/>
</g>
</svg>
