<svg xmlns="http://www.w3.org/2000/svg" width="70" height="45.163" viewBox="0 0 70 45.163">
  <g id="Group_14883" data-name="Group 14883" transform="translate(-2085 -304.477)">
    <ellipse id="Ellipse_1378" data-name="Ellipse 1378" cx="35" cy="4.5" rx="35" ry="4.5" transform="translate(2085 340.64)" fill="#f5f5f5"/>
    <g id="Group_5364" data-name="Group 5364" transform="translate(6187.291 -760.446)">
      <path id="Path_21219" data-name="Path 21219" d="M-4048.345,1103.73c.335,0,.622,0,.909,0a.945.945,0,0,1,.954.858.924.924,0,0,1-.823.981,2.187,2.187,0,0,1-.344.015h-38.481c-.63,0-.955-.184-1.108-.626a.917.917,0,0,1,.826-1.225c.308-.016.617,0,.967,0v-.428q0-9,0-18a1.834,1.834,0,0,1,1.375-1.913,2.883,2.883,0,0,1,.785-.076q4.232-.008,8.463,0h.5v-10.886a1.918,1.918,0,0,1,2.1-2.1c1.14,0,2.28-.01,3.42.006.268,0,.367-.093.455-.337a7.2,7.2,0,0,1,6.083-5,7.351,7.351,0,0,1,7.962,4.971.436.436,0,0,0,.495.365c1.266-.01,2.534-.021,3.8.027a1.8,1.8,0,0,1,1.661,1.728c.008.137,0,.276,0,.414v31.228Zm-24.087-31.525v31.505h5.538v-.462q0-6.079,0-12.159a3.425,3.425,0,0,1,.072-.821,1.855,1.855,0,0,1,1.945-1.383q3.489-.007,6.978,0a1.922,1.922,0,0,1,2.151,2.153q0,6.132,0,12.263v.41h5.517v-31.5h-3.679a7.315,7.315,0,0,1-2.177,5.222,7.184,7.184,0,0,1-5.249,2.172,7.129,7.129,0,0,1-4.627-1.63,7.346,7.346,0,0,1-2.789-5.769Zm-11.132,12.994v18.507h9.225V1085.2Zm25.926,18.52v-12.956H-4065v12.956Zm-3.7-25.966a5.6,5.6,0,0,0,5.588-5.815,5.542,5.542,0,0,0-5.59-5.318,5.482,5.482,0,0,0-5.566,5.163A5.573,5.573,0,0,0-4061.334,1077.753Z" fill="#e21f26"/>
      <path id="Path_21220" data-name="Path 21220" d="M-4049.89,1093.622c1.52,0,3.039-.005,4.559,0a.907.907,0,0,1,.946,1.187.861.861,0,0,1-.77.643,1.868,1.868,0,0,1-.207.01q-4.542,0-9.084,0a.907.907,0,0,1-1.016-.85.894.894,0,0,1,.944-.988c1.152-.01,2.3,0,3.454,0Z" transform="translate(-11.418 -10.295)" fill="#e21f26"/>
      <path id="Path_21221" data-name="Path 21221" d="M-4075.84,1104.141c-.6,0-1.2,0-1.8,0a.905.905,0,0,1-.976-.927.914.914,0,0,1,.979-.931q1.8-.008,3.591,0a.912.912,0,0,1,.976.934.9.9,0,0,1-.979.923C-4074.643,1104.144-4075.241,1104.141-4075.84,1104.141Z" transform="translate(-3.114 -13.402)" fill="#e21f26"/>
      <path id="Path_21222" data-name="Path 21222" d="M-4075.861,1111.367c-.6,0-1.2,0-1.8,0a.894.894,0,0,1-.954-.874.9.9,0,0,1,.931-.977q1.847-.022,3.694,0a.9.9,0,0,1,.921.954.894.894,0,0,1-.966.9C-4074.641,1111.37-4075.251,1111.367-4075.861,1111.367Z" transform="translate(-3.114 -15.994)" fill="#e21f26"/>
      <path id="Path_21223" data-name="Path 21223" d="M-4075.857,1118.6c-.6,0-1.2,0-1.795,0a.892.892,0,0,1-.958-.868.894.894,0,0,1,.928-.975c.851-.021,1.7-.007,2.554-.007.356,0,.714-.007,1.07,0a.916.916,0,0,1,.994.95.9.9,0,0,1-1,.9C-4074.661,1118.605-4075.259,1118.6-4075.857,1118.6Z" transform="translate(-3.114 -18.592)" fill="#e21f26"/>
      <path id="Path_21224" data-name="Path 21224" d="M-4049.792,1073.254c0-.609,0-1.17,0-1.732a.918.918,0,0,1,.9-1.038.93.93,0,0,1,.95,1.032c.009.563,0,1.126,0,1.738.626,0,1.232-.008,1.839,0a.929.929,0,0,1,.883,1.244.937.937,0,0,1-.906.616c-.585,0-1.171,0-1.814,0,0,.231,0,.444,0,.657-.006.437.012.876-.029,1.309a.876.876,0,0,1-.981.8.886.886,0,0,1-.833-.889c-.013-.608,0-1.216,0-1.879-.63,0-1.234.005-1.838,0a.933.933,0,0,1-.958-.925.938.938,0,0,1,.95-.934C-4051.04,1073.248-4050.442,1073.254-4049.792,1073.254Z" transform="translate(-12.451 -1.995)" fill="#e21f26"/>
    </g>
  </g>
</svg>
