<svg xmlns="http://www.w3.org/2000/svg" width="70" height="45" viewBox="0 0 70 45">
  <g id="Group_161542" data-name="Group 161542" transform="translate(-5307 -405)">
    <ellipse id="Ellipse_1620" data-name="Ellipse 1620" cx="35" cy="4.5" rx="35" ry="4.5" transform="translate(5307 441)" fill="#f5f5f5"/>
    <g id="Group_161538" data-name="Group 161538" transform="translate(5030.6 -43.805)">
      <g id="Group_161535" data-name="Group 161535" transform="translate(292.401 472.424)">
        <g id="Group_161534" data-name="Group 161534">
          <path id="Path_30429" data-name="Path 30429" d="M326.847,467.718l-.008-.023c-.69-1.642-2.307-2.248-4.22-1.583l-5.216,1.469a3.452,3.452,0,0,0-2.119-2.122l-.019-.008-5.735-1.982a5.885,5.885,0,0,0-4.773-2.235,5.972,5.972,0,0,0-4.676,2.856H293.15a.755.755,0,0,0-.749.762v9.609a.754.754,0,0,0,.749.762H297.6a.754.754,0,0,0,.749-.762V473.8h2.088a.755.755,0,0,0,.749-.762v-.22a5.256,5.256,0,0,1,2.736,1,44.479,44.479,0,0,0,4.5,2.337l.032.015a6.64,6.64,0,0,0,2.409.462,5.9,5.9,0,0,0,2.482-.54l11.53-4.2.061-.025A3.266,3.266,0,0,0,326.847,467.718ZM296.853,473.7H293.9v-8.085h2.955Zm2.837-1.419h-1.34v-6.666h1.34Zm24.649-1.811-11.526,4.2-.034.013-.029.013a4.783,4.783,0,0,1-3.73.065,43.152,43.152,0,0,1-4.348-2.261,6.679,6.679,0,0,0-3.485-1.207v-6.138a4.624,4.624,0,0,1,3.57-2.4,4.308,4.308,0,0,1,3.667,1.752.747.747,0,0,0,.4.323l5.951,2.056A1.712,1.712,0,0,1,316,468.91a1.479,1.479,0,0,1-.694.891,1.432,1.432,0,0,1-1.1.133l-6.71-2.164a.746.746,0,0,0-.941.5.763.763,0,0,0,.488.956l6.721,2.168.021.006a2.894,2.894,0,0,0,2.248-.266,2.969,2.969,0,0,0,1.4-1.805c.017-.061.032-.124.046-.184l5.623-1.587c.813-.281,1.879-.384,2.352.73C325.949,469.59,324.672,470.308,324.339,470.47Z" transform="translate(-292.401 -461.235)" fill="#d9041f"/>
        </g>
      </g>
      <g id="Group_161537" data-name="Group 161537" transform="translate(294.625 448.805)">
        <g id="Group_161536" data-name="Group 161536">
          <path id="Path_30430" data-name="Path 30430" d="M328.941,451.385h-4.452a.755.755,0,0,0-.749.762v.659h-2.088a.754.754,0,0,0-.749.762v.218a5.239,5.239,0,0,1-2.736-1,45.3,45.3,0,0,0-4.5-2.337l-.032-.013a6.258,6.258,0,0,0-4.889.078l-3.014,1.1-2.541-2.586a.741.741,0,0,0-1.058,0l-8.34,8.488a.765.765,0,0,0,0,1.077l14.249,14.5a.8.8,0,0,0,1.06,0l7.612-7.749c.2.017.4.027.618.027a5.975,5.975,0,0,0,4.676-2.854h6.932a.755.755,0,0,0,.749-.762v-9.611A.755.755,0,0,0,328.941,451.385Zm-26.279-.741,1.708,1.737a3.208,3.208,0,0,1-3.415,0Zm-5.573,9.147-1.706-1.737,1.706-1.739a3.37,3.37,0,0,1,0,3.475Zm11.485,11.688-1.706-1.737a3.215,3.215,0,0,1,3.413,0Zm2.786-2.835a4.692,4.692,0,0,0-5.571,0l-7.62-7.755a4.913,4.913,0,0,0,0-5.67l1.708-1.741a4.687,4.687,0,0,0,5.571,0l1.621,1.649a2.965,2.965,0,0,0-2.229,1.661,4.248,4.248,0,0,0-2.24,1.2,4.405,4.405,0,0,0,0,6.145,4.224,4.224,0,0,0,6.037,0,4.362,4.362,0,0,0,1.112-1.967l2.527.872a4.94,4.94,0,0,0,.794,3.863Zm-4.553-7.492.019.006,1.5.519a2.811,2.811,0,0,1-.745,1.38,2.738,2.738,0,0,1-3.918,0,2.858,2.858,0,0,1,0-3.988,2.758,2.758,0,0,1,.9-.614A3.361,3.361,0,0,0,306.806,461.152Zm7.342,4.654a3.384,3.384,0,0,1-.479-1.585,5.775,5.775,0,0,0,1.321.728Zm6.755-4.351a4.624,4.624,0,0,1-3.57,2.4,5.6,5.6,0,0,1-.781-.055l0,0a4.279,4.279,0,0,1-2.774-1.545c-.015-.023-.08-.11-.089-.124a.745.745,0,0,0-.412-.35l-5.955-2.056a1.714,1.714,0,0,1-1.222-2.018v0a1.472,1.472,0,0,1,.694-.887,1.427,1.427,0,0,1,1.1-.135l6.708,2.164a.747.747,0,0,0,.941-.5.766.766,0,0,0-.486-.958l-5.338-1.72-.046-.047,0,0L306.9,452.8l2.375-.865.025-.011.01,0,.03-.013a4.77,4.77,0,0,1,3.728-.065,43.034,43.034,0,0,1,4.348,2.259,6.662,6.662,0,0,0,3.485,1.207ZM323.74,461H322.4v-6.666h1.34Zm4.452,0h-2.955v-8.085h2.955Z" transform="translate(-293.571 -448.805)" fill="#d9041f"/>
        </g>
      </g>
    </g>
  </g>
</svg>
