<svg xmlns="http://www.w3.org/2000/svg" width="31.716" height="42.942" viewBox="0 0 31.716 42.942">
  <g id="Group_215109" data-name="Group 215109" transform="translate(-5420.825 -605.824)">
    <rect id="Rectangle_13293" data-name="Rectangle 13293" width="30.365" height="41.591" rx="3.968" transform="translate(5421.5 606.5)" fill="none" stroke="#d8001c" stroke-miterlimit="10" stroke-width="1.351"/>
    <path id="Path_28737" data-name="Path 28737" d="M56.365,906.474q5.124,0,10.249,0c.16,0,.364-.031.468.052.162.129.355.346.351.52a.869.869,0,0,1-.349.559.979.979,0,0,1-.544.076q-10.168,0-20.336,0c-.054,0-.107,0-.161,0-.5-.01-.776-.238-.765-.63s.268-.58.759-.58Q51.2,906.472,56.365,906.474Z" transform="translate(5380.724 -262.47)" fill="#d8001c"/>
    <path id="Path_114718" data-name="Path 114718" d="M-12.7,0V-7.12h.98l1.54,4.29h.02V-7.12h1.02V0h-.96l-1.56-4.28h-.02V0Zm4.42-5.44a1.819,1.819,0,0,1,.15-.76,1.606,1.606,0,0,1,.4-.55,1.691,1.691,0,0,1,.545-.32,1.8,1.8,0,0,1,.615-.11,1.8,1.8,0,0,1,.615.11,1.813,1.813,0,0,1,.555.32,1.674,1.674,0,0,1,.39.55,1.819,1.819,0,0,1,.15.76v3.76a1.8,1.8,0,0,1-.15.77,1.589,1.589,0,0,1-.39.53,1.715,1.715,0,0,1-.555.33,1.8,1.8,0,0,1-.615.11A1.8,1.8,0,0,1-7.18-.05a1.6,1.6,0,0,1-.545-.33,1.527,1.527,0,0,1-.4-.53,1.8,1.8,0,0,1-.15-.77Zm1.02,3.76a.678.678,0,0,0,.2.545.723.723,0,0,0,.485.175.723.723,0,0,0,.485-.175.678.678,0,0,0,.205-.545V-5.44a.678.678,0,0,0-.205-.545.723.723,0,0,0-.485-.175.723.723,0,0,0-.485.175.678.678,0,0,0-.2.545Zm8.4-.35v.44a1.585,1.585,0,0,1-.125.625A1.729,1.729,0,0,1,.675-.44,1.663,1.663,0,0,1,.16-.075,1.508,1.508,0,0,1-.475.06a2.284,2.284,0,0,1-.59-.08A1.4,1.4,0,0,1-1.6-.3,1.548,1.548,0,0,1-2-.815a1.823,1.823,0,0,1-.155-.805V-5.54a1.734,1.734,0,0,1,.12-.65,1.53,1.53,0,0,1,.34-.52,1.581,1.581,0,0,1,.525-.345A1.764,1.764,0,0,1-.495-7.18a1.547,1.547,0,0,1,1.17.47,1.67,1.67,0,0,1,.345.545,1.841,1.841,0,0,1,.125.685v.4H.125v-.34a.826.826,0,0,0-.17-.52A.551.551,0,0,0-.5-6.16a.518.518,0,0,0-.5.235,1.259,1.259,0,0,0-.125.595v3.64A.943.943,0,0,0-1-1.17a.532.532,0,0,0,.485.21A.741.741,0,0,0-.3-1,.641.641,0,0,0-.085-1.11a.61.61,0,0,0,.15-.22.891.891,0,0,0,.06-.35v-.35Zm.77-3.41a1.819,1.819,0,0,1,.15-.76,1.606,1.606,0,0,1,.4-.55,1.691,1.691,0,0,1,.545-.32,1.8,1.8,0,0,1,.615-.11,1.8,1.8,0,0,1,.615.11,1.813,1.813,0,0,1,.555.32,1.674,1.674,0,0,1,.39.55,1.819,1.819,0,0,1,.15.76v3.76a1.8,1.8,0,0,1-.15.77,1.589,1.589,0,0,1-.39.53,1.715,1.715,0,0,1-.555.33,1.8,1.8,0,0,1-.615.11A1.8,1.8,0,0,1,3.01-.05a1.6,1.6,0,0,1-.545-.33,1.527,1.527,0,0,1-.4-.53,1.8,1.8,0,0,1-.15-.77Zm1.02,3.76a.678.678,0,0,0,.2.545.723.723,0,0,0,.485.175.723.723,0,0,0,.485-.175.678.678,0,0,0,.205-.545V-5.44a.678.678,0,0,0-.205-.545.723.723,0,0,0-.485-.175.723.723,0,0,0-.485.175.678.678,0,0,0-.2.545Zm6.6-3.39H8.515V-5.3A1.089,1.089,0,0,0,8.35-5.9a.61.61,0,0,0-.555-.255.642.642,0,0,0-.34.08.671.671,0,0,0-.21.2.846.846,0,0,0-.11.3,1.926,1.926,0,0,0-.03.345,3.381,3.381,0,0,0,.015.35.664.664,0,0,0,.075.25.556.556,0,0,0,.175.19,1.608,1.608,0,0,0,.315.16l.78.31a1.934,1.934,0,0,1,.55.3,1.319,1.319,0,0,1,.33.405,1.893,1.893,0,0,1,.15.545,5.393,5.393,0,0,1,.04.7,3.665,3.665,0,0,1-.09.835,1.759,1.759,0,0,1-.29.655A1.439,1.439,0,0,1,8.6-.1a1.94,1.94,0,0,1-.83.16,1.816,1.816,0,0,1-.69-.13,1.641,1.641,0,0,1-.55-.36A1.752,1.752,0,0,1,6.17-.965a1.625,1.625,0,0,1-.135-.665v-.38h1.02v.32a.833.833,0,0,0,.165.5.643.643,0,0,0,.555.225.9.9,0,0,0,.405-.075A.538.538,0,0,0,8.4-1.25a.79.79,0,0,0,.1-.335q.015-.195.015-.435a4.31,4.31,0,0,0-.02-.46.792.792,0,0,0-.08-.29.562.562,0,0,0-.185-.18,2.371,2.371,0,0,0-.305-.15l-.73-.3a1.617,1.617,0,0,1-.885-.715A2.46,2.46,0,0,1,6.085-5.23a2.587,2.587,0,0,1,.11-.76,1.729,1.729,0,0,1,.33-.62,1.512,1.512,0,0,1,.535-.415,1.786,1.786,0,0,1,.775-.155,1.692,1.692,0,0,1,.695.14,1.79,1.79,0,0,1,.545.37,1.545,1.545,0,0,1,.46,1.1ZM10.965,0V-6.16H9.785v-.96h3.38v.96h-1.18V0Z" transform="translate(5436.695 641)" fill="#d8001c"/>
    <path id="Path_114717" data-name="Path 114717" d="M-7.872-13.132a4.167,4.167,0,0,1,.335-1.715,4.013,4.013,0,0,1,.9-1.286,3.862,3.862,0,0,1,1.3-.817A4.283,4.283,0,0,1-3.8-17.232a4.283,4.283,0,0,1,1.541.281,3.862,3.862,0,0,1,1.3.817,4.013,4.013,0,0,1,.9,1.286,4.167,4.167,0,0,1,.335,1.715v11.2A4.167,4.167,0,0,1-.061-.217a4.013,4.013,0,0,1-.9,1.286,3.862,3.862,0,0,1-1.3.817A4.283,4.283,0,0,1-3.8,2.168,4.283,4.283,0,0,1-5.34,1.887a3.862,3.862,0,0,1-1.3-.817,4.013,4.013,0,0,1-.9-1.286,4.167,4.167,0,0,1-.335-1.715Zm2.733,11.2a1.351,1.351,0,0,0,.375.978A1.282,1.282,0,0,0-3.8-.565a1.282,1.282,0,0,0,.965-.389,1.351,1.351,0,0,0,.375-.978v-11.2a1.351,1.351,0,0,0-.375-.978A1.282,1.282,0,0,0-3.8-14.5a1.282,1.282,0,0,0-.965.389,1.351,1.351,0,0,0-.375.978ZM3.7-12.864a.643.643,0,0,0,.469-.2.674.674,0,0,0,.2-.5v-1.367a.674.674,0,0,0-.2-.5.643.643,0,0,0-.469-.2.643.643,0,0,0-.469.2.674.674,0,0,0-.2.5v1.367a.674.674,0,0,0,.2.5A.643.643,0,0,0,3.7-12.864Zm0,1.608a2.369,2.369,0,0,1-1.661-.563,1.9,1.9,0,0,1-.616-1.474v-1.742a2.12,2.12,0,0,1,.616-1.608,2.3,2.3,0,0,1,1.661-.59,2.3,2.3,0,0,1,1.661.59,2.12,2.12,0,0,1,.616,1.608v1.742a1.9,1.9,0,0,1-.616,1.474A2.369,2.369,0,0,1,3.7-11.257ZM7.428-.136a.674.674,0,0,0,.2.5.643.643,0,0,0,.469.2.643.643,0,0,0,.469-.2.674.674,0,0,0,.2-.5V-1.5a.674.674,0,0,0-.2-.5A.643.643,0,0,0,8.1-2.2a.643.643,0,0,0-.469.2.674.674,0,0,0-.2.5Zm.67,2.3a2.369,2.369,0,0,1-1.661-.563A1.9,1.9,0,0,1,5.821.132V-1.61a2.12,2.12,0,0,1,.616-1.608A2.3,2.3,0,0,1,8.1-3.807a2.3,2.3,0,0,1,1.661.59,2.12,2.12,0,0,1,.616,1.608V.132A1.9,1.9,0,0,1,9.76,1.606,2.369,2.369,0,0,1,8.1,2.168ZM1.748,2.008,8.286-17.071h1.769L3.516,2.008Z" transform="translate(5435.872 628.712)" fill="#d8001c"/>
  </g>
</svg>
