<svg xmlns="http://www.w3.org/2000/svg" width="70" height="46" viewBox="0 0 70 46">
  <g id="Group_161543" data-name="Group 161543" transform="translate(-5106 -404)">
    <g id="Group_161540" data-name="Group 161540">
      <ellipse id="Ellipse_1620" data-name="Ellipse 1620" cx="35" cy="4.5" rx="35" ry="4.5" transform="translate(5106 441)" fill="#f5f5f5"/>
      <g id="Group_161529" data-name="Group 161529" transform="translate(4904.754 -45.669)">
        <path id="Path_30425" data-name="Path 30425" d="M256.182,468.086a19.681,19.681,0,0,0-18.662-18.417l-1.7.006a19.7,19.7,0,0,0-18.564,19.346c0,.024-.012.044-.012.068a.476.476,0,0,0,.01.052c0,.14-.01.279-.008.419a19.491,19.491,0,1,0,38.979.255m-6.547,12.075-2.317-2.267a.84.84,0,0,0-1.2.024.874.874,0,0,0,.024,1.222l2.271,2.223a17.551,17.551,0,0,1-10.765,4.462l-.012-2.98a.849.849,0,1,0-1.7.006l.01,2.984a17.534,17.534,0,0,1-10.851-4.37l1.832-1.938a.876.876,0,0,0-.024-1.222.837.837,0,0,0-1.2.024l-1.84,1.946a18.187,18.187,0,0,1-4.946-12.057l3.377-.012a.865.865,0,0,0-.006-1.73l-3.329.012a18.194,18.194,0,0,1,3.907-10.115l2.454,2.4a.837.837,0,0,0,1.2-.026.876.876,0,0,0-.022-1.222l-2.5-2.444a17.59,17.59,0,0,1,11.82-5.391l.01,2.905a.849.849,0,1,0,1.7,0l-.01-2.9a17.532,17.532,0,0,1,10.953,4.529l-2.171,2.3a.874.874,0,0,0,.024,1.222.839.839,0,0,0,1.2-.024l2.165-2.291a18.189,18.189,0,0,1,4.731,10.937l-3.254.012a.864.864,0,0,0,.006,1.728l3.3-.012A18.2,18.2,0,0,1,249.681,481.891Z" transform="translate(0 0)" fill="#d9041f"/>
        <path id="Path_30426" data-name="Path 30426" d="M227.081,459.4" transform="translate(9.897 9.799)" fill="#d9041f" opacity="0.14"/>
        <text id="_1_MINUTE" data-name="1
MINUTE" transform="translate(236.81 468.002) rotate(-0.205)" fill="#e51427" font-size="11" font-family="HelveticaNeueLTCom-MdCn, Helvetica Neue LT Com" font-weight="500" letter-spacing="-0.02em"><tspan x="-2.64" y="0">1</tspan><tspan font-size="8"><tspan x="-11.596" y="6">MINUTE</tspan></tspan></text>
      </g>
    </g>
  </g>
</svg>
