<svg xmlns="http://www.w3.org/2000/svg" xmlns:xlink="http://www.w3.org/1999/xlink" width="70" height="46" viewBox="0 0 70 46">
  <defs>
    <clipPath id="clip-path">
      <path id="Clip_2" data-name="Clip 2" d="M0,0H40.8V40.8H0Z" fill="#d82b1b"/>
    </clipPath>
  </defs>
  <g id="Group_161560" data-name="Group 161560" transform="translate(-510 -554)">
    <ellipse id="Ellipse_1379" data-name="Ellipse 1379" cx="35" cy="4.5" rx="35" ry="4.5" transform="translate(510 591)" fill="#f5f5f5"/>
    <g id="happy-customer" transform="translate(525 553.926)">
      <g id="Group_3" data-name="Group 3" transform="translate(0 0.074)">
        <g id="Group_3-2" data-name="Group 3" clip-path="url(#clip-path)">
          <path id="Fill_1" data-name="Fill 1" d="M20.446,40.8h-.071A20.412,20.412,0,0,1,12.466,1.608,20.038,20.038,0,0,1,20.359,0h.071a20.4,20.4,0,0,1,.016,40.8ZM20.36,2.887a17.555,17.555,0,0,0-17.474,17.5A17.292,17.292,0,0,0,7.974,32.717a17.475,17.475,0,0,0,12.439,5.2h.032a17.062,17.062,0,0,0,6.749-1.386,17.827,17.827,0,0,0,9.324-9.322,17.163,17.163,0,0,0,1.4-6.76A17.618,17.618,0,0,0,20.45,2.887Z" transform="translate(0 0)" fill="#d82b1b"/>
        </g>
      </g>
      <path id="Fill_4" data-name="Fill 4" d="M10.625,7.521A13.069,13.069,0,0,1,.4,2.532,1.483,1.483,0,0,1,.59.325,1.528,1.528,0,0,1,2.8.7a9.548,9.548,0,0,0,7.786,3.724,9.15,9.15,0,0,0,5.828-2.5c.477-.427.91-.906,1.36-1.365a1.421,1.421,0,0,1,2.149-.11,1.532,1.532,0,0,1,.027,2.226,13.822,13.822,0,0,1-6.3,4.233,27.971,27.971,0,0,1-3.02.61" transform="translate(10.24 25.009)" fill="#d82b1b"/>
      <path id="Fill_6" data-name="Fill 6" d="M5.372,2.674A2.686,2.686,0,1,1,2.7,0,2.682,2.682,0,0,1,5.372,2.674" transform="translate(10.448 13.56)" fill="#d82b1b"/>
      <path id="Fill_8" data-name="Fill 8" d="M5.372,2.667A2.686,2.686,0,0,1,2.683,5.372,2.713,2.713,0,0,1,0,2.7a2.686,2.686,0,0,1,5.372-.034" transform="translate(25.076 13.56)" fill="#d82b1b"/>
    </g>
  </g>
</svg>
