<svg xmlns="http://www.w3.org/2000/svg" width="60.139" height="60.139" viewBox="0 0 60.139 60.139">
  <g id="Group_20922" data-name="Group 20922" transform="translate(-6046 -494)">
    <circle id="Ellipse_1565" data-name="Ellipse 1565" cx="30.07" cy="30.07" r="30.07" transform="translate(6046 494)" fill="#f6f6f6"/>
    <g id="Group_20910" data-name="Group 20910" transform="translate(6021.989 -1637.909)">
      <g id="Group_20909" data-name="Group 20909" transform="translate(38.101 2147)">
        <path id="Path_28730" data-name="Path 28730" d="M67.313,2156.767H63.1a.462.462,0,0,0,0,.924h4.217a1.386,1.386,0,0,1,1.385,1.385v18.492a.03.03,0,0,1-.031.03H63.528v-1.846h2.358a.957.957,0,0,0,.955-.95l.011-2.273a.961.961,0,0,0-.955-.958H63.528v-1.821h2.358a.956.956,0,0,0,.955-.949l.011-2.274a.962.962,0,0,0-.955-.958H63.528v-1.846h2.358a.957.957,0,0,0,.955-.95l.011-2.273a.963.963,0,0,0-.955-.959H63.528v-4.78a2.312,2.312,0,0,0-2.309-2.309H59.753a5.91,5.91,0,0,0-11.784,0h-1.5a2.312,2.312,0,0,0-2.309,2.309v2.01H40.41a2.311,2.311,0,0,0-2.309,2.309v18.492a.954.954,0,0,0,.954.954H68.667a.955.955,0,0,0,.955-.954v-18.492a2.311,2.311,0,0,0-2.309-2.309Zm-3.785,3.694H65.9a.03.03,0,0,1,.022.009.031.031,0,0,1,.009.022l-.011,2.273a.031.031,0,0,1-.03.031H63.528Zm0,6.03H65.9a.03.03,0,0,1,.031.031l-.011,2.273a.03.03,0,0,1-.03.031H63.528Zm0,6H65.9a.029.029,0,0,1,.022.01.03.03,0,0,1,.009.021l-.011,2.274a.03.03,0,0,1-.03.03H63.528Zm-19.363,2.335H41.836a.031.031,0,0,1-.031-.03l-.01-2.273a.03.03,0,0,1,.009-.022.028.028,0,0,1,.021-.01h2.34Zm0-6H41.836a.031.031,0,0,1-.031-.03l-.01-2.273a.03.03,0,0,1,.009-.022.029.029,0,0,1,.021-.009h2.34Zm0-6.028H41.836a.032.032,0,0,1-.031-.031l-.01-2.273a.031.031,0,0,1,.009-.022.029.029,0,0,1,.021-.009h2.34Zm0-3.259h-2.34a.961.961,0,0,0-.954.959l.011,2.273a.956.956,0,0,0,.954.949h2.329v1.847h-2.34a.96.96,0,0,0-.954.959l.011,2.273a.955.955,0,0,0,.954.949h2.329v1.821h-2.34a.96.96,0,0,0-.954.958l.011,2.274a.956.956,0,0,0,.954.949h2.329v1.846h-5.11a.031.031,0,0,1-.031-.03v-18.492a1.387,1.387,0,0,1,1.386-1.385h3.755Zm9.7-11.613a4.987,4.987,0,1,1-4.987,4.987A4.992,4.992,0,0,1,53.862,2147.924Zm4.126,29.674H54.323v-8.13h3.665Zm-9.176-9.054v-.924h10.1v.924Zm13.793,9.054H58.911v-8.13a.849.849,0,0,0,.924-.832v-1.108A.833.833,0,0,0,59,2166.7H48.72a.833.833,0,0,0-.831.831v1.108a.843.843,0,0,0,.924.832v5.874a.461.461,0,1,0,.923,0v-5.874H53.4v8.13H49.735v-2.706a.461.461,0,1,0-.923,0v2.706H45.089v-22.841a1.386,1.386,0,0,1,1.385-1.385h1.5a5.91,5.91,0,0,0,11.784,0h1.466a1.387,1.387,0,0,1,1.386,1.385Zm-10.591-3.13a.462.462,0,0,0,.462-.462v-.945a.462.462,0,0,0-.924,0V2174A.462.462,0,0,0,52.014,2174.467Zm-.03-13.8H47.9a.956.956,0,0,0-.955.95l-.01,2.273a.96.96,0,0,0,.954.958h4.092a.955.955,0,0,0,.954-.954v-2.273a.955.955,0,0,0-.954-.955Zm.03,3.228a.031.031,0,0,1-.03.031H47.892c-.012,0-.033-.02-.031-.031l.011-2.274a.031.031,0,0,1,.031-.03h4.082a.03.03,0,0,1,.03.03Zm3.694,10.572a.462.462,0,0,0,.462-.462v-.945a.462.462,0,0,0-.924,0V2174A.462.462,0,0,0,55.708,2174.467Zm4.108-13.8H55.739a.955.955,0,0,0-.955.954v2.274a.955.955,0,0,0,.955.954h4.067a.957.957,0,0,0,.955-.95l.01-2.274A.96.96,0,0,0,59.816,2160.667Zm.02,3.228a.031.031,0,0,1-.031.031H55.739a.031.031,0,0,1-.031-.031v-2.274a.031.031,0,0,1,.031-.03h4.077a.029.029,0,0,1,.021.009.03.03,0,0,1,.009.022Z" transform="translate(-38.101 -2147)" fill="#d9041f"/>
      </g>
      <path id="Path_28731" data-name="Path 28731" d="M54.107,2154.463v1.705a.768.768,0,0,0,.768.767H55.9a.768.768,0,0,0,.768-.767v-1.705h1.705a.768.768,0,0,0,.768-.768v-1.023a.768.768,0,0,0-.768-.767H56.665V2150.2a.769.769,0,0,0-.768-.768H54.874a.769.769,0,0,0-.768.768v1.705H52.4a.768.768,0,0,0-.768.767v1.023a.768.768,0,0,0,.768.768Z" transform="translate(-1.525 -0.274)" fill="#d9041f"/>
    </g>
  </g>
</svg>
