<svg xmlns="http://www.w3.org/2000/svg" xmlns:xlink="http://www.w3.org/1999/xlink" width="160.198" height="135.234" viewBox="0 0 160.198 135.234">
  <defs>
    <linearGradient id="linear-gradient" x1="0.421" y1="0.437" x2="1" y2="0.435" gradientUnits="objectBoundingBox">
      <stop offset="0" stop-color="#c61b20"/>
      <stop offset="1" stop-color="#d0272d"/>
    </linearGradient>
    <linearGradient id="linear-gradient-2" x1="1.063" y1="0.537" x2="0.278" y2="0.537" gradientUnits="objectBoundingBox">
      <stop offset="0" stop-color="#faa584"/>
      <stop offset="0.453" stop-color="#f04837"/>
      <stop offset="1" stop-color="#b52025"/>
    </linearGradient>
  </defs>
  <g id="Group_203955" data-name="Group 203955" transform="translate(-5196.857 -1916.468)">
    <g id="Group_203954" data-name="Group 203954" transform="translate(5196.857 1916.468)">
      <g id="Group_203953" data-name="Group 203953">
        <path id="Path_28387" data-name="Path 28387" d="M1944.421,2461.037s42.268-.408,48.318,2.185c-.986,3.079-57.07,13.44-57.07,13.44Z" transform="translate(-1834.318 -2406.71)" fill="#b32024"/>
        <path id="Path_107289" data-name="Path 107289" d="M23.964,0l89.421.263h30.795L158.03,1.769l-8.249,22.195a23.964,23.964,0,0,1-23.964,23.964H23.964A23.964,23.964,0,0,1,23.964,0Z" transform="translate(0 54.5)" fill="url(#linear-gradient)"/>
        <path id="Rectangle_13304" data-name="Rectangle 13304" d="M22.8,0H60.53a0,0,0,0,1,0,0V45.592a0,0,0,0,1,0,0H22.8A22.8,22.8,0,0,1,0,22.8v0A22.8,22.8,0,0,1,22.8,0Z" transform="translate(112.963) rotate(90)" fill="#c61b20"/>
        <path id="Rectangle_20257" data-name="Rectangle 20257" d="M22.8,0H60.53a0,0,0,0,1,0,0V45.592a0,0,0,0,1,0,0H22.8A22.8,22.8,0,0,1,0,22.8v0A22.8,22.8,0,0,1,22.8,0Z" transform="translate(67.37 121.06) rotate(-90)" fill="#c61b20"/>
        <path id="Union_92" data-name="Union 92" d="M27.582,46.887a6.641,6.641,0,0,1-3.1-.384C9.407,41.115,2.626,29.955.591,22.343S1.586,3.85,12.6.619a12.126,12.126,0,0,1,12.848,3.3A30.789,30.789,0,0,1,28,6.952a30.835,30.835,0,0,1,2.555-3.035A12.127,12.127,0,0,1,43.405.619C54.419,3.85,57.448,14.731,55.414,22.343S46.6,41.115,31.526,46.5a8.035,8.035,0,0,1-2.707.5A6.507,6.507,0,0,1,27.582,46.887Z" transform="translate(61.536 55.023)" fill="#fff"/>
        <path id="Path_28701" data-name="Path 28701" d="M1958.559,2463.813c-2.638,1.726-18.313,2.547-29.617,2.97s-21.881,8.024-20.962,21.3,14.506,21.789,26.038,21.517,19.608.213,25.881,0C1960.317,2500.664,1961.2,2462.087,1958.559,2463.813Z" transform="translate(-1800.184 -2407.376)" fill="url(#linear-gradient-2)"/>
        <g id="Group_20834" data-name="Group 20834" transform="translate(120.43 64.881)">
          <g id="Path_18646" data-name="Path 18646" transform="translate(-196.945 -429.984)" fill="#c32328" stroke-linecap="round" stroke-linejoin="round">
            <path d="M 211.2900848388672 462.7816772460938 C 211.2899780273438 462.7816772460938 211.2899322509766 462.7816772460938 211.2898101806641 462.7816772460938 C 210.3371124267578 462.7816162109375 209.4268035888672 462.4515075683594 208.7265777587891 461.8521423339844 L 199.4983520507812 453.9498291015625 C 197.5578918457031 452.2881469726562 196.4449615478516 449.9332885742188 196.4449615478516 447.489013671875 L 196.4449615478516 436.3573913574219 C 196.4449615478516 434.9284973144531 197.6902313232422 433.7660217285156 199.2208557128906 433.7660217285156 L 200.8281555175781 433.7660217285156 C 204.1072387695312 433.7660217285156 207.2905120849609 432.5234069824219 209.5617523193359 430.3568115234375 L 209.6604766845703 430.2626953125 C 210.1866912841797 429.7608032226562 210.8913116455078 429.4843139648438 211.6444396972656 429.4843139648438 C 212.3821105957031 429.4843139648438 213.07666015625 429.7512512207031 213.6001586914062 430.2359619140625 L 213.8569488525391 430.4737548828125 C 214.9877014160156 431.521240234375 216.3134765625 432.3403625488281 217.7975006103516 432.9084167480469 C 219.2841644287109 433.4774780273438 220.85498046875 433.7660217285156 222.4663238525391 433.7660217285156 L 224.0203552246094 433.7660217285156 C 225.5509643554688 433.7660217285156 226.7962036132812 434.9284973144531 226.7962036132812 436.3573913574219 L 226.7962036132812 447.4707946777344 C 226.7962036132812 450.0281372070312 225.5963287353516 452.4549865722656 223.5042419433594 454.1290893554688 L 213.7577667236328 461.930419921875 C 213.0717620849609 462.4793701171875 212.1953887939453 462.7816772460938 211.2900848388672 462.7816772460938 Z" stroke="none"/>
            <path d="M 211.6444244384766 429.9843139648438 C 211.0483551025391 429.9843139648438 210.4526977539062 430.1980285644531 210.0054626464844 430.6246032714844 L 209.9068603515625 430.7185974121094 C 207.5305023193359 432.9854736328125 204.2531585693359 434.2660217285156 200.8281555175781 434.2660217285156 L 199.2208557128906 434.2660217285156 C 197.9637908935547 434.2660217285156 196.9449615478516 435.2021789550781 196.9449615478516 436.3573913574219 L 196.9449615478516 447.489013671875 C 196.9449615478516 449.7952575683594 197.9873809814453 451.9976806640625 199.8235626220703 453.5700378417969 L 209.0517120361328 461.4722900390625 C 210.2814025878906 462.5248718261719 212.1777801513672 462.5543823242188 213.4453125 461.5400695800781 L 223.1918334960938 453.7386779785156 C 225.1645202636719 452.1601257324219 226.2962036132812 449.8744812011719 226.2962036132812 447.4707946777344 L 226.2962036132812 436.3573913574219 C 226.2962036132812 435.2021789550781 225.27734375 434.2660217285156 224.0203552246094 434.2660217285156 L 222.4663238525391 434.2660217285156 C 219.1052093505859 434.2660217285156 215.8836364746094 433.0327758789062 213.5172119140625 430.8406066894531 L 213.2604675292969 430.6028442382812 C 212.8148193359375 430.1902160644531 212.2294158935547 429.9843139648438 211.6444244384766 429.9843139648438 M 211.6444396972656 428.9843139648438 C 212.5084381103516 428.9843139648438 213.3236389160156 429.2985229492188 213.9398498535156 429.8690490722656 L 214.1966857910156 430.1069030761719 C 215.2804870605469 431.1109008789062 216.5520629882812 431.8963317871094 217.9762420654297 432.4414672851562 C 219.4056396484375 432.9885864257812 220.9163208007812 433.2660217285156 222.4663238525391 433.2660217285156 L 224.0203552246094 433.2660217285156 C 225.82666015625 433.2660217285156 227.2962036132812 434.6528015136719 227.2962036132812 436.3573913574219 L 227.2962036132812 447.4707946777344 C 227.2962036132812 450.1808166503906 226.0279388427734 452.7499694824219 223.8166198730469 454.5194702148438 L 214.0702209472656 462.3207702636719 C 213.2958374023438 462.9404602050781 212.3084411621094 463.2816772460938 211.2898406982422 463.2816772460938 C 210.2180480957031 463.2816772460938 209.1922607421875 462.9089050292969 208.4014434814453 462.2319946289062 L 199.1731414794922 454.3296203613281 C 197.12158203125 452.5728149414062 195.9449615478516 450.0795288085938 195.9449615478516 447.489013671875 L 195.9449615478516 436.3573913574219 C 195.9449615478516 434.6528015136719 197.4145202636719 433.2660217285156 199.2208557128906 433.2660217285156 L 200.8281555175781 433.2660217285156 C 203.97998046875 433.2660217285156 207.0374603271484 432.0737915039062 209.2166290283203 429.9950256347656 L 209.3154449462891 429.9008178710938 C 209.9350280761719 429.3098449707031 210.76220703125 428.9843139648438 211.6444396972656 428.9843139648438 Z" stroke="none" fill="#fff"/>
          </g>
          <g id="Group_19504" data-name="Group 19504" transform="translate(2.439 6.159)">
            <path id="Path_26738" data-name="Path 26738" d="M8.2,18.17,5.923,14.545,3.614,18.17H-.113l4.121-5.763L-.216,6.2H3.649L5.991,9.791,8.436,6.2h3.557l-4.07,5.694,4.258,6.276Z" transform="translate(11.974 -3.782)" fill="#fff"/>
            <path id="Path_26737" data-name="Path 26737" d="M12.095,14.86v2.69H10.648v2.894H7.183V17.55H.336V14.982L7.2,6.056h3.444v8.8Zm-4.911,0v-4.3l-3.3,4.3Z" transform="translate(-0.336 -6.056)" fill="#fff"/>
          </g>
        </g>
      </g>
      <g id="Group_20853" data-name="Group 20853" transform="translate(9.676 101.651)">
        <g id="Rectangle_13287" data-name="Rectangle 13287" transform="translate(0 0)" fill="#d82b1b" stroke="#fff" stroke-width="1">
          <rect width="147.908" height="33.583" rx="16.791" stroke="none"/>
          <rect x="0.5" y="0.5" width="146.908" height="32.583" rx="16.291" fill="none"/>
        </g>
        <g id="Group_20700" data-name="Group 20700" transform="translate(9.179 5.698)">
          <path id="Path_28372" data-name="Path 28372" d="M771.335,139.127a9.61,9.61,0,0,1-4.183-.834,5.623,5.623,0,0,1-2.66-2.733,11.93,11.93,0,0,1-.919-5.138,12.236,12.236,0,0,1,.894-5.126,5.517,5.517,0,0,1,2.624-2.744,9.651,9.651,0,0,1,4.219-.834,9.845,9.845,0,0,1,4.243.822,5.465,5.465,0,0,1,2.624,2.72,12.082,12.082,0,0,1,.895,5.09,12.247,12.247,0,0,1-.919,5.211,5.565,5.565,0,0,1-2.648,2.745A9.648,9.648,0,0,1,771.335,139.127Z" transform="translate(-763.573 -121.718)" fill="#fff"/>
          <path id="Union_88" data-name="Union 88" d="M0,21.193V2.914H3.578L3.7,4.026A7.888,7.888,0,0,1,7.883,2.72a3.8,3.8,0,0,1,3.337,1.692A8.608,8.608,0,0,1,12.38,9.3q0,3.579-1.547,5.319a6.088,6.088,0,0,1-4.788,1.741,12.172,12.172,0,0,1-2.079-.194v5.029ZM5.2,6.142a6.312,6.312,0,0,0-1.233.52V13.19a6.345,6.345,0,0,0,1.813.29,2.172,2.172,0,0,0,1.886-.834,5.29,5.29,0,0,0,.6-2.962,5.989,5.989,0,0,0-.5-2.853,1.6,1.6,0,0,0-1.463-.846A4.1,4.1,0,0,0,5.2,6.142Zm53.688,9.793a2.458,2.458,0,0,1-.907-1.366,8.717,8.717,0,0,1-2.055,1.269,6.7,6.7,0,0,1-2.756.52,3.24,3.24,0,0,1-2.636-1.1,4.209,4.209,0,0,1-.918-2.793A3.37,3.37,0,0,1,50.5,9.938,5.337,5.337,0,0,1,53.168,8.7a34.763,34.763,0,0,1,4.546-.568V7.653A1.385,1.385,0,0,0,56.988,6.4a3.9,3.9,0,0,0-2.007-.435,13.959,13.959,0,0,0-1.765.133,13.472,13.472,0,0,0-2.249.52l-.653-3.07a18.238,18.238,0,0,1,2.479-.593,14.627,14.627,0,0,1,2.454-.23,6.74,6.74,0,0,1,4.485,1.246,4.579,4.579,0,0,1,1.439,3.662v4.086a1.8,1.8,0,0,0,.218,1.064.686.686,0,0,0,.556.266,1.643,1.643,0,0,0,.267-.024,1.247,1.247,0,0,0,.265-.073l.242,2.853a4.211,4.211,0,0,1-.943.4,4.37,4.37,0,0,1-1.234.157A2.882,2.882,0,0,1,58.886,15.934ZM55.2,10.385a3.506,3.506,0,0,0-1.584.544,1.441,1.441,0,0,0-.544,1.245,1.659,1.659,0,0,0,.411,1.257,1.487,1.487,0,0,0,1.064.387,4.963,4.963,0,0,0,1.621-.3,4.547,4.547,0,0,0,1.547-.907V10.168Q56.238,10.24,55.2,10.385ZM15.91,15.221a5.4,5.4,0,0,1-1.015-3.651V5.839H13.009V3.2l1.886-.242L15.354.157h3.482V2.962h3.312V5.839H18.836v5.417a2.069,2.069,0,0,0,.35,1.378,1.416,1.416,0,0,0,1.1.387,4.631,4.631,0,0,0,.859-.085q.446-.085,1-.206l.532,3a11.952,11.952,0,0,1-1.959.483,12.068,12.068,0,0,1-1.838.145A3.78,3.78,0,0,1,15.91,15.221Zm28.369.894V7.8a2.284,2.284,0,0,0-.314-1.245,1.213,1.213,0,0,0-1.113-.5,2.96,2.96,0,0,0-1.064.193,8.932,8.932,0,0,0-.968.435,2.167,2.167,0,0,1,.06.4c.008.137.013.27.013.4v8.632H36.928V7.8A2.173,2.173,0,0,0,36.6,6.577a1.245,1.245,0,0,0-1.124-.5,2.9,2.9,0,0,0-.98.169,6.672,6.672,0,0,0-.955.435v9.43H29.578V2.962h3.578V4.1a7.559,7.559,0,0,1,4.086-1.354,3.972,3.972,0,0,1,1.85.375,2.739,2.739,0,0,1,1.125,1.1A12.193,12.193,0,0,1,42.465,3.1a6.509,6.509,0,0,1,2.225-.375,3.273,3.273,0,0,1,2.672,1.064,4.1,4.1,0,0,1,.883,2.708v9.623Zm-20.317,0V4.643a4.156,4.156,0,0,0,1.135.966c.181.1.835.425.835.425h.005l.427-.19A3.951,3.951,0,0,0,27.9,4.765V16.116Zm82.513-1.049a3.875,3.875,0,0,1-.965-2.8,8.231,8.231,0,0,1,.634-3.337,5.2,5.2,0,0,1,1.83-2.262,4.926,4.926,0,0,1,2.85-.818,3.242,3.242,0,0,1,2.023.579,1.859,1.859,0,0,1,.753,1.554,2.759,2.759,0,0,1-1.131,2.243,6.721,6.721,0,0,1-3.135,1.232,10.705,10.705,0,0,1-1.232.147q-.607.037-1.158.019v.5a2.88,2.88,0,0,0,.643,2.032,2.419,2.419,0,0,0,1.858.689,6.919,6.919,0,0,0,1.37-.147,9.56,9.56,0,0,0,1.535-.46l.22,1.176a7.49,7.49,0,0,1-1.627.5,9.332,9.332,0,0,1-1.737.166A3.615,3.615,0,0,1,106.475,15.066Zm1.848-7.1a5.091,5.091,0,0,0-1.25,2.638,7.1,7.1,0,0,0,.956-.028,9.809,9.809,0,0,0,.975-.138,5.92,5.92,0,0,0,2.335-.8,1.675,1.675,0,0,0,.846-1.443q0-1.213-1.618-1.213A2.989,2.989,0,0,0,108.323,7.969ZM84,15.176a3.289,3.289,0,0,1-.929-2.491A9.42,9.42,0,0,1,83.7,9.146a5.542,5.542,0,0,1,1.784-2.428,4.454,4.454,0,0,1,2.758-.873,9.672,9.672,0,0,1,2.611.349l-.423,1.25A6.775,6.775,0,0,0,89.273,7.2a9.495,9.495,0,0,0-1.085-.064,2.8,2.8,0,0,0-1.893.717,4.869,4.869,0,0,0-1.306,1.922,7.2,7.2,0,0,0-.478,2.675,2.195,2.195,0,0,0,.7,1.738,2.707,2.707,0,0,0,1.857.615,7.906,7.906,0,0,0,1.25-.091q.569-.093,1.121-.221l.147,1.14a8.077,8.077,0,0,1-1.324.322,9.791,9.791,0,0,1-1.563.12A3.74,3.74,0,0,1,84,15.176Zm-8.274-.11a3.875,3.875,0,0,1-.965-2.8A8.22,8.22,0,0,1,75.4,8.925a5.2,5.2,0,0,1,1.829-2.262,4.93,4.93,0,0,1,2.851-.818,3.238,3.238,0,0,1,2.022.579,1.86,1.86,0,0,1,.754,1.554,2.761,2.761,0,0,1-1.131,2.243,6.727,6.727,0,0,1-3.135,1.232,10.735,10.735,0,0,1-1.232.147q-.607.037-1.158.019v.5a2.877,2.877,0,0,0,.644,2.032,2.416,2.416,0,0,0,1.857.689,6.919,6.919,0,0,0,1.37-.147,9.54,9.54,0,0,0,1.535-.46l.221,1.176a7.515,7.515,0,0,1-1.627.5,9.334,9.334,0,0,1-1.738.166A3.615,3.615,0,0,1,75.73,15.066Zm1.848-7.1a5.091,5.091,0,0,0-1.251,2.638,7.1,7.1,0,0,0,.956-.028,9.753,9.753,0,0,0,.975-.138,5.927,5.927,0,0,0,2.335-.8A1.676,1.676,0,0,0,81.44,8.2q0-1.213-1.619-1.213A2.989,2.989,0,0,0,77.579,7.969Zm19.132,7.823a1.289,1.289,0,0,1-.432-.828,8.208,8.208,0,0,1-1.637.828,4.838,4.838,0,0,1-1.636.275,2.266,2.266,0,0,1-1.619-.523,1.828,1.828,0,0,1-.551-1.389,5.57,5.57,0,0,1,.064-.708q.064-.468.2-1.342t.368-2.354q.23-1.48.579-3.724H93.5q-.294,1.857-.5,3.126t-.322,2.059q-.12.791-.193,1.251c-.049.306-.083.546-.1.717s-.034.318-.046.441a1.193,1.193,0,0,0,.331.883,1.348,1.348,0,0,0,.993.331,3.99,3.99,0,0,0,1.287-.212,6.89,6.89,0,0,0,1.305-.616l1.25-7.98h1.434q-.368,2.28-.6,3.761t-.368,2.344q-.138.865-.2,1.278c-.043.275-.068.463-.074.561s-.009.165-.009.2q0,.662.533.662a1.425,1.425,0,0,0,.515-.129l-.019,1.048a2.032,2.032,0,0,1-.57.23,2.435,2.435,0,0,1-.57.082A1.343,1.343,0,0,1,96.711,15.793Zm-30.074.083a10.585,10.585,0,0,1-2.04-.561l.515-1.232a11.455,11.455,0,0,0,1.922.524A11.335,11.335,0,0,0,69.1,14.8a3.908,3.908,0,0,0,2.381-.607,1.913,1.913,0,0,0,.8-1.6,1.735,1.735,0,0,0-.431-1.223,3.824,3.824,0,0,0-1.113-.809q-.681-.341-1.444-.653a9.145,9.145,0,0,1-1.443-.744,3.689,3.689,0,0,1-1.113-1.085,2.955,2.955,0,0,1-.432-1.664,3.123,3.123,0,0,1,1.278-2.6,5.915,5.915,0,0,1,3.668-.984,9.389,9.389,0,0,1,1.7.147A12.7,12.7,0,0,1,74.6,3.4l-.5,1.25a8.646,8.646,0,0,0-3.07-.533,4,4,0,0,0-2.335.606,1.868,1.868,0,0,0-.864,1.6,1.685,1.685,0,0,0,.431,1.186,3.776,3.776,0,0,0,1.122.809q.689.341,1.453.671a11.02,11.02,0,0,1,1.443.754A3.674,3.674,0,0,1,73.395,10.8a2.7,2.7,0,0,1,.414,1.608,3.265,3.265,0,0,1-1.223,2.657,5.763,5.763,0,0,1-3.705,1A12.965,12.965,0,0,1,66.637,15.875Zm32.877.009,1.563-9.856h1.305l-.2,1.213a7.276,7.276,0,0,1,1.571-1.066,3.3,3.3,0,0,1,1.407-.331,3.731,3.731,0,0,1,1.287.2l-.423,1.379a4.359,4.359,0,0,0-1.232-.184,3.19,3.19,0,0,0-1.242.276,5.447,5.447,0,0,0-1.425.956l-1.176,7.41ZM25.964,5.206a.123.123,0,0,0-.016-.009,2.658,2.658,0,0,1-.483-.221,3.489,3.489,0,0,1-1.487-1.711,4.951,4.951,0,0,1-.361-1.986c0-.264.029-.528.042-.793,0-.043.026-.058.06-.072A6.344,6.344,0,0,1,26.938.074a6.355,6.355,0,0,1,1.336.361.049.049,0,0,1,.034.046c.007.093.017.186.024.279s.011.16.016.24v.374c0,.02-.005.041-.006.061a6.036,6.036,0,0,1-.079.793,4.753,4.753,0,0,1-.3,1.063,3.279,3.279,0,0,1-1.871,1.875c-.033.013-.065.028-.1.042Z" transform="translate(16.756 1.051)" fill="#fff" stroke="rgba(0,0,0,0)" stroke-miterlimit="10" stroke-width="1"/>
          <path id="Path_28384" data-name="Path 28384" d="M770.806,136.586a1.632,1.632,0,0,0,1.632,1.632H773.9l1.093-.009c-.181-.142-.432-.331-.573-.463a2.328,2.328,0,0,1-.807-1.612,1.132,1.132,0,0,1,.547-1.058,1.1,1.1,0,0,1,1.417.261l.115.149.08-.1a1.114,1.114,0,0,1,1.943.28,1.414,1.414,0,0,1-.076,1.146,1.958,1.958,0,0,1-.8.869c-.5.315-1.023.607-1.533.914-.22.132-.432.278-.649.415a1.152,1.152,0,0,0-.539.778,1.285,1.285,0,0,0,.034.621,1.622,1.622,0,0,0,.252.438l.011.014a1.516,1.516,0,0,0,.107.117,1.631,1.631,0,0,0,2.785-1.154v-1.467a.137.137,0,0,1,.137-.137h1.467a1.632,1.632,0,0,0,0-3.264h-1.467a.137.137,0,0,1-.137-.137V133.35a1.631,1.631,0,1,0-3.263,0v1.467a.138.138,0,0,1-.138.137h-1.467a1.631,1.631,0,0,0-1.632,1.632Z" transform="translate(-768.054 -127.913)" fill="#d9041f"/>
        </g>
      </g>
    </g>
  </g>
</svg>
